<?xml version="1.0" encoding="utf-8"?>
<!-- Generator: Adobe Illustrator 25.2.1, SVG Export Plug-In . SVG Version: 6.00 Build 0)  -->
<svg version="1.1" id="Layer_1" xmlns="http://www.w3.org/2000/svg" xmlns:xlink="http://www.w3.org/1999/xlink" x="0px" y="0px"
	 viewBox="0 0 64 80" style="enable-background:new 0 0 64 80;" xml:space="preserve">
<style type="text/css">
	.st0{fill:#FFFFFF;}
</style>
<path class="st0" d="M58.7,27.8h-2V13.7c0-1.1-0.4-2.1-1.2-2.9c-0.8-0.8-1.8-1.2-2.9-1.2H6.2c-1.1,0-2.1,0.4-2.9,1.2
	c-0.8,0.8-1.2,1.8-1.2,2.9v42.4c0,1.1,0.4,2.1,1.2,2.9c0.8,0.8,1.8,1.2,2.9,1.2h16.1v3c0,1.3-0.5,2.6-1.5,3.6
	c-0.9,0.9-2.2,1.5-3.6,1.5h-2c-0.6,0-1,0.5-1,1c0,0.6,0.5,1,1,1h43.4c1.1,0,2.1-0.4,2.9-1.2c0.8-0.8,1.2-1.8,1.2-2.9V31.8
	c0-1.1-0.4-2.1-1.2-2.9C60.8,28.2,59.8,27.8,58.7,27.8L58.7,27.8z M39.5,27.8v-3c0-0.5-0.2-1-0.6-1.4c-0.4-0.4-0.9-0.6-1.4-0.6H27.4
	c-0.5,0-1,0.2-1.4,0.6c-0.4,0.4-0.6,0.9-0.6,1.4v6.1c0,0.5,0.2,1,0.6,1.4c0.4,0.4,0.9,0.6,1.4,0.6h7.1v2l-7.1,0c-0.6,0-1,0.5-1,1
	c0,0.6,0.5,1,1,1h7.1v4H23.4V20.7h18.2v7.1L39.5,27.8z M34.6,30.8h-7.2v-6.1h10.1v3.2c-0.7,0.2-1.3,0.5-1.8,1.1
	C35.2,29.5,34.8,30.1,34.6,30.8L34.6,30.8z M41.5,18.7H23.4v-1c0-0.5,0.2-1,0.6-1.4c0.4-0.4,0.9-0.6,1.4-0.6h14.1
	c0.5,0,1,0.2,1.4,0.6c0.4,0.4,0.6,0.9,0.6,1.4L41.5,18.7z M23.4,42.9h11.1v3h-9.1c-0.5,0-1-0.2-1.4-0.6c-0.4-0.4-0.6-0.9-0.6-1.4
	L23.4,42.9z M36.5,37.9h24.2v22.2H36.5V37.9z M60.7,31.8v4l-24.2,0v-4c0-0.5,0.2-1,0.6-1.4c0.4-0.4,0.9-0.6,1.4-0.6h20.2
	c0.5,0,1,0.2,1.4,0.6C60.5,30.8,60.7,31.3,60.7,31.8L60.7,31.8z M54.6,13.7v14.1H43.6V17.7c0-1.1-0.4-2.1-1.2-2.9
	c-0.8-0.8-1.8-1.2-2.9-1.2H25.4c-1.1,0-2.1,0.4-2.9,1.2c-0.8,0.8-1.2,1.8-1.2,2.9v26.2c0,1.1,0.4,2.1,1.2,2.9
	c0.8,0.8,1.8,1.2,2.9,1.2h9.1v2l-16.1,0V11.7h34.3c0.5,0,1,0.2,1.4,0.6C54.4,12.6,54.7,13.1,54.6,13.7L54.6,13.7z M6.2,11.7h10.1V50
	H4.2V13.7c0-0.5,0.2-1,0.6-1.4C5.2,11.9,5.7,11.7,6.2,11.7L6.2,11.7z M4.2,56.1v-4h30.3v6.1H6.2c-0.5,0-1-0.2-1.4-0.6
	C4.4,57.1,4.2,56.6,4.2,56.1L4.2,56.1z M24.4,63.1l0-3h10.1v6.1c0,0.7,0.2,1.4,0.6,2H22.3C23.6,66.8,24.4,65,24.4,63.1L24.4,63.1z
	 M58.7,68.2H38.5c-0.5,0-1-0.2-1.4-0.6c-0.4-0.4-0.6-0.9-0.6-1.4v-4h24.2v4c0,0.5-0.2,1-0.6,1.4C59.7,68,59.2,68.2,58.7,68.2
	L58.7,68.2z"/>
<path class="st0" d="M9.2,46h2c0.5,0,1-0.2,1.4-0.6c0.4-0.4,0.6-0.9,0.6-1.4v-2c0-0.5-0.2-1-0.6-1.4c-0.4-0.4-0.9-0.6-1.4-0.6h-2
	c-0.5,0-1,0.2-1.4,0.6c-0.4,0.4-0.6,0.9-0.6,1.4v2v0c0,0.5,0.2,1,0.6,1.4C8.2,45.8,8.7,46,9.2,46L9.2,46z M9.2,41.9h2v2l-2,0V41.9z"
	/>
<path class="st0" d="M27.4,56.1h4c0.6,0,1-0.5,1-1s-0.5-1-1-1h-4c-0.6,0-1,0.5-1,1S26.8,56.1,27.4,56.1z"/>
<path class="st0" d="M49.6,64.1h-2c-0.6,0-1,0.5-1,1c0,0.6,0.5,1,1,1h2c0.6,0,1-0.5,1-1C50.6,64.6,50.2,64.1,49.6,64.1L49.6,64.1z"
	/>
<path class="st0" d="M47.6,31.8h-3c-0.6,0-1,0.5-1,1c0,0.6,0.5,1,1,1h3c0.6,0,1-0.5,1-1C48.6,32.3,48.1,31.8,47.6,31.8z"/>
<path class="st0" d="M52.6,31.8h-1c-0.6,0-1,0.5-1,1c0,0.6,0.5,1,1,1h1c0.6,0,1-0.5,1-1C53.6,32.3,53.2,31.8,52.6,31.8z"/>
<path class="st0" d="M56.9,41.3L56.9,41.3c-0.4-0.3-0.8-0.4-1.2-0.4H41.5c-0.4,0-0.9,0.1-1.2,0.4l0,0c-0.5,0.4-0.8,1-0.8,1.6V51
	c0,0.6,0.3,1.1,0.7,1.5c0,0,0,0,0,0v0c0.4,0.3,0.8,0.5,1.3,0.5h14.1c0.5,0,0.9-0.2,1.3-0.5c0,0,0,0,0,0l0,0c0.4-0.4,0.7-0.9,0.7-1.5
	v-8.1C57.7,42.3,57.4,41.7,56.9,41.3L56.9,41.3z M41.5,43.7l5.2,3.2l-5.2,3.2V43.7z M44,42.9h9.1l-4.6,2.8L44,42.9z M48.6,48.2
	l4.6,2.8H44L48.6,48.2z M50.5,47l5.2-3.2v6.5L50.5,47z"/>
<path class="st0" d="M56.7,55H40.5c-0.6,0-1,0.5-1,1c0,0.6,0.5,1,1,1h16.1c0.6,0,1-0.5,1-1C57.7,55.5,57.2,55,56.7,55z"/>
<path class="st0" d="M8.2,16.7h4c0.6,0,1-0.5,1-1s-0.5-1-1-1h-4c-0.6,0-1,0.5-1,1S7.7,16.7,8.2,16.7z"/>
<path class="st0" d="M8.2,21.8h4c0.6,0,1-0.5,1-1c0-0.6-0.5-1-1-1h-4c-0.6,0-1,0.5-1,1C7.2,21.3,7.7,21.8,8.2,21.8z"/>
<path class="st0" d="M8.2,26.8h4c0.6,0,1-0.5,1-1c0-0.6-0.5-1-1-1h-4c-0.6,0-1,0.5-1,1C7.2,26.3,7.7,26.8,8.2,26.8z"/>
<path class="st0" d="M8.2,31.8h4c0.6,0,1-0.5,1-1c0-0.6-0.5-1-1-1h-4c-0.6,0-1,0.5-1,1C7.2,31.4,7.7,31.8,8.2,31.8z"/>
<path class="st0" d="M8.2,36.9h4c0.6,0,1-0.5,1-1c0-0.6-0.5-1-1-1h-4c-0.6,0-1,0.5-1,1C7.2,36.4,7.7,36.9,8.2,36.9z"/>
</svg>
