<?xml version="1.0" encoding="utf-8"?>
<!-- Generator: Adobe Illustrator 25.2.1, SVG Export Plug-In . SVG Version: 6.00 Build 0)  -->
<svg version="1.1" id="Layer_1" xmlns="http://www.w3.org/2000/svg" xmlns:xlink="http://www.w3.org/1999/xlink" x="0px" y="0px"
	 viewBox="0 0 64 80" style="enable-background:new 0 0 64 80;" xml:space="preserve">
<style type="text/css">
	.st0{fill:#FFFFFF;}
</style>
<path class="st0" d="M18.7,58.7l1.3-3.3l10.5,3.5l-2,3.4L18.7,58.7z M23.7,69.4l-3.2-1.3v-6.5l3.2,1.2V69.4z M31.1,72.5l-5.3-2.2
	v-6.8l2.8,1c0.5,0.2,1,0,1.3-0.4l1.2-2L31.1,72.5z M32.1,57.1L22.8,54l9.3-3.1l9.3,3.1L32.1,57.1z M38.5,70.3l-5.3,2.2V62l1.2,2
	c0.3,0.4,0.8,0.6,1.3,0.4l2.8-1L38.5,70.3z M43.7,68.1l-3.2,1.3v-6.7l3.2-1.2V68.1z M35.7,62.2l-2-3.4l10.3-4l1.5,3.8L35.7,62.2z"/>
<path class="st0" d="M31.1,31.4l-2.1-1.1v4l2.1,1.1V31.4z"/>
<path class="st0" d="M33.2,35.4l2.1-1.1v-4l-2.1,1.1V35.4z"/>
<path class="st0" d="M34,28.6l-1.9-0.9l-1.9,0.9l1.9,0.9L34,28.6z"/>
<path class="st0" d="M51.1,11.7h2.1v2.1h-2.1V11.7z"/>
<path class="st0" d="M55.4,18.1h2.1v2.1h-2.1V18.1z"/>
<path class="st0" d="M51.1,49.8h2.1v2.1h-2.1V49.8z"/>
<path class="st0" d="M55.4,43.4h2.1v2.1h-2.1V43.4z"/>
<path class="st0" d="M58.5,23.3h2.1v2.1h-2.1V23.3z"/>
<path class="st0" d="M58.5,38.1h2.1v2.1h-2.1V38.1z"/>
<path class="st0" d="M11,11.7h2.1v2.1H11V11.7z"/>
<path class="st0" d="M6.7,18.1h2.1v2.1H6.7V18.1z"/>
<path class="st0" d="M11,49.8h2.1v2.1H11V49.8z"/>
<path class="st0" d="M6.7,43.4h2.1v2.1H6.7V43.4z"/>
<path class="st0" d="M3.6,23.3h2.1v2.1H3.6V23.3z"/>
<path class="st0" d="M3.6,38.1h2.1v2.1H3.6V38.1z"/>
<path class="st0" d="M59.6,28.6c-0.7,0-1.3,0.2-1.8,0.6c-0.5,0.4-0.9,0.9-1.2,1.5H44.8c-0.1-0.7-0.2-1.4-0.4-2.1H49
	c0.3,0,0.5-0.1,0.7-0.3l2.9-2.9h3.8v-2.1h-4.2c-0.3,0-0.5,0.1-0.7,0.3l-2.9,2.9h-4.9c-0.3-0.6-0.6-1.2-0.9-1.7l4.6-4.6h5.9v-2.1
	h-6.3c-0.3,0-0.5,0.1-0.7,0.3l-4.8,4.8c-0.9-1-1.9-1.8-3.1-2.4l6.9-6.9H49v-2.1h-4.2c-0.3,0-0.5,0.1-0.7,0.3l-7.8,7.8l0.1,0.1
	c-2.7-1-5.7-1-8.4,0L20.2,12c-0.2-0.2-0.5-0.3-0.7-0.3h-4.2v2.1H19l6.9,6.9c-1.1,0.6-2.2,1.5-3.1,2.4l-4.8-4.8
	c-0.2-0.2-0.5-0.3-0.7-0.3H11v2.1h5.9l4.6,4.6h0c-0.4,0.5-0.7,1.1-0.9,1.7h-4.9l-2.9-2.9c-0.2-0.2-0.5-0.3-0.7-0.3H7.8v2.1h3.8
	l2.9,2.9c0.2,0.2,0.5,0.3,0.7,0.3h4.6c-0.2,0.7-0.3,1.4-0.4,2.1H7.6c-0.3-0.9-1.1-1.7-2.1-2c-1-0.3-2-0.1-2.8,0.5
	c-0.8,0.6-1.3,1.5-1.3,2.5s0.5,2,1.3,2.5c0.8,0.6,1.9,0.8,2.8,0.5c1-0.3,1.7-1,2.1-2h11.9c0.1,0.7,0.2,1.4,0.4,2.1h-4.6
	c-0.3,0-0.5,0.1-0.7,0.3l-2.9,2.9H7.8v2.1H12c0.3,0,0.5-0.1,0.7-0.3l2.9-2.9h4.9h0c0.3,0.6,0.6,1.2,0.9,1.7l-4.6,4.6H11v2.1h6.3
	c0.3,0,0.5-0.1,0.7-0.3l4.8-4.8c0.9,1,1.9,1.8,3.1,2.4L19,49.8h-3.8v2.1h4.2c0.3,0,0.5-0.1,0.7-0.3l7.8-7.8c2.7,0.9,5.7,0.9,8.4,0
	l-0.1,0.1l7.8,7.8v0c0.2,0.2,0.5,0.3,0.7,0.3H49v-2.1h-3.8l-6.9-6.9c1.1-0.6,2.2-1.5,3.1-2.4l4.8,4.8c0.2,0.2,0.5,0.3,0.7,0.3h6.3
	v-2.1h-5.9l-4.6-4.6h0c0.4-0.5,0.7-1.1,0.9-1.7h4.9l2.9,2.9h0c0.2,0.2,0.5,0.3,0.7,0.3h4.2v-2.1h-3.8l-2.9-2.9
	C49.6,35.1,49.3,35,49,35h-4.6c0.2-0.7,0.3-1.4,0.4-2.1h11.9c0.3,0.7,0.8,1.3,1.5,1.7c0.7,0.4,1.5,0.5,2.2,0.3
	c0.8-0.2,1.4-0.6,1.9-1.3c0.4-0.6,0.6-1.4,0.6-2.2c-0.1-0.8-0.5-1.5-1-2C61.1,28.9,60.4,28.6,59.6,28.6L59.6,28.6z M4.6,32.9
	c-0.4,0-0.8-0.3-1-0.7c-0.2-0.4-0.1-0.8,0.2-1.2c0.3-0.3,0.8-0.4,1.2-0.2c0.4,0.2,0.7,0.5,0.7,1C5.7,32.4,5.2,32.9,4.6,32.9z
	 M32.1,42.4c-2.7,0-5.4-1.1-7.3-3c-2-1.9-3.1-4.5-3.2-7.2c-0.1-2.7,0.9-5.4,2.7-7.4l1.6,1.4c-1.1,1.3-1.9,2.9-2.1,4.6h1v2.1h-1
	c0.3,2.7,2,5.2,4.5,6.4c2.5,1.3,5.4,1.3,7.8,0c2.5-1.3,4.1-3.7,4.5-6.4h-1v-2.1h1c-0.4-2.9-2.2-5.4-4.9-6.6c-2.7-1.2-5.8-1-8.2,0.6
	L26.3,23l0,0c2.8-1.8,6.3-2.3,9.4-1.1c3.1,1.1,5.6,3.7,6.5,6.9c1,3.2,0.4,6.7-1.6,9.4C38.6,40.8,35.5,42.4,32.1,42.4L32.1,42.4z
	 M26.8,35v-6.3c0-0.4,0.2-0.8,0.6-0.9l4.2-2.1c0.3-0.1,0.6-0.1,0.9,0l4.2,2.1c0.4,0.2,0.6,0.5,0.6,0.9V35c0,0.4-0.2,0.8-0.6,0.9
	L32.6,38c-0.3,0.1-0.6,0.1-0.9,0l-4.2-2.1C27.1,35.7,26.8,35.4,26.8,35z M59.6,32.9c-0.4,0-0.8-0.3-1-0.7c-0.2-0.4-0.1-0.8,0.2-1.2
	c0.3-0.3,0.8-0.4,1.2-0.2c0.4,0.2,0.7,0.5,0.7,1C60.7,32.4,60.2,32.9,59.6,32.9z"/>
</svg>
