<?xml version="1.0" encoding="utf-8"?>
<!-- Generator: Adobe Illustrator 25.2.1, SVG Export Plug-In . SVG Version: 6.00 Build 0)  -->
<svg version="1.1" id="Layer_1" xmlns="http://www.w3.org/2000/svg" xmlns:xlink="http://www.w3.org/1999/xlink" x="0px" y="0px"
	 viewBox="0 0 64 80" style="enable-background:new 0 0 64 80;" xml:space="preserve">
<style type="text/css">
	.st0{fill:#FFFFFF;}
</style>
<g>
	<path class="st0" d="M61,9H38.23C37.08,4.81,34.75,2,32,2s-5.08,2.81-6.23,7H3c-0.55,0-1,0.45-1,1v36c0,2.76,2.24,5,5,5h20v5h-5
		c-0.55,0-1,0.45-1,1v4c0,0.55,0.45,1,1,1h20c0.55,0,1-0.45,1-1v-4c0-0.55-0.45-1-1-1h-5v-5h20c2.76,0,5-2.24,5-5V10
		C62,9.45,61.55,9,61,9z M37.65,22.77C39.06,23.73,39.93,25.3,40,27c0,0.62-0.13,1.24-0.38,1.81c-1.21-1.12-2.66-1.92-4.25-2.35
		c0.37-0.36,0.7-0.76,1-1.18c0.06-0.1,0.12-0.18,0.19-0.28l0.28-0.47c0.09-0.16,0.18-0.32,0.26-0.49l0.2-0.39
		c0.11-0.24,0.22-0.48,0.32-0.74C37.6,22.86,37.63,22.82,37.65,22.77z M32,4c2.37,0,5,4.52,5,11c0.01,2.03-0.28,4.05-0.87,6
		c-0.09,0.29-0.19,0.57-0.3,0.85c-0.02,0.07-0.05,0.14-0.08,0.21c-0.12,0.3-0.24,0.59-0.38,0.86l-0.18,0.34
		c-0.08,0.15-0.16,0.29-0.24,0.42l-0.24,0.37l-0.21,0.29c-0.09,0.12-0.18,0.24-0.27,0.34C34.17,24.8,34.09,24.9,34,25
		c-0.14,0.15-0.29,0.29-0.45,0.42c-0.09,0.07-0.18,0.14-0.28,0.2l-0.23,0.14l-0.33,0.14l-0.19,0.07c-0.35,0.11-0.71,0.11-1.06,0
		l-0.19-0.07L31,25.71l-0.23-0.14c-0.1-0.06-0.19-0.13-0.28-0.2c-0.15-0.13-0.31-0.27-0.46-0.42l-0.21-0.23
		c-0.09-0.1-0.18-0.22-0.27-0.34l-0.21-0.28l-0.24-0.38c-0.08-0.13-0.16-0.27-0.24-0.42L28.63,23c-0.14-0.27-0.26-0.56-0.39-0.86
		c-0.02-0.07-0.04-0.14-0.07-0.2c-0.11-0.28-0.21-0.57-0.3-0.87C27.27,19.1,26.98,17.06,27,15C27,8.52,29.64,4,32,4z M28.63,26.46
		c-1.59,0.43-3.04,1.23-4.25,2.35C24.13,28.24,24,27.62,24,27c0.07-1.7,0.94-3.27,2.35-4.23c0,0.05,0,0.09,0.07,0.14
		c0.1,0.26,0.21,0.5,0.32,0.74s0.13,0.26,0.19,0.39s0.18,0.33,0.28,0.49L27.48,25c0.07,0.1,0.14,0.19,0.2,0.29
		C27.97,25.7,28.28,26.1,28.63,26.46z M4,11h21.33C25.11,12.32,25,13.66,25,15c-0.01,1.95,0.23,3.9,0.72,5.79
		C23.5,22.08,22.09,24.43,22,27c0.02,1.48,0.51,2.92,1.41,4.1c0.33,0.44,0.95,0.54,1.4,0.21c0.08-0.06,0.15-0.13,0.21-0.21
		c1.73-2.05,4.3-3.19,6.98-3.1c2.69-0.1,5.27,1.04,7,3.1c0.33,0.44,0.95,0.54,1.4,0.21c0.08-0.06,0.15-0.13,0.21-0.21
		c0.89-1.18,1.38-2.62,1.39-4.1c-0.09-2.57-1.5-4.92-3.72-6.21C38.77,18.9,39.01,16.95,39,15c0-1.34-0.11-2.68-0.33-4H60v14
		c0,5.93-8.9,11.16-21.27,12.6c-0.45-1.22-1.47-2.14-2.73-2.46V31c0-0.55-0.45-1-1-1h-6c-0.55,0-1,0.45-1,1v4.14
		c-1.26,0.32-2.28,1.24-2.73,2.46C12.9,36.16,4,30.93,4,25V11z M41,60H23v-2h18V60z M35,56h-6v-5h6V56z M57,49H7c-1.66,0-3-1.34-3-3
		v-1h56v1C60,47.66,58.66,49,57,49z M60,43H4V30.46c3.56,4.66,11.59,8.19,21.91,9.24H26c0.37,0,0.71-0.21,0.88-0.54l0,0
		c0.06-0.11,0.1-0.23,0.12-0.36l0,0c0.1-1.03,0.97-1.81,2-1.8c0.55,0,1-0.45,1-1v-4h4v4c0,0.55,0.45,1,1,1c1.03-0.01,1.9,0.77,2,1.8
		c0.05,0.51,0.48,0.9,1,0.9h0.12c10.32-1.05,18.35-4.58,21.9-9.24L60,43z"/>
	<path class="st0" d="M32,15c1.66,0,3-1.34,3-3s-1.34-3-3-3c-1.66,0-3,1.34-3,3S30.34,15,32,15z M32,11c0.55,0,1,0.45,1,1
		s-0.45,1-1,1s-1-0.45-1-1S31.45,11,32,11z"/>
</g>
</svg>
