<?xml version="1.0" encoding="utf-8"?>
<!-- Generator: Adobe Illustrator 27.4.1, SVG Export Plug-In . SVG Version: 6.00 Build 0)  -->
<svg version="1.1" id="Capa_1" xmlns="http://www.w3.org/2000/svg" xmlns:xlink="http://www.w3.org/1999/xlink" x="0px" y="0px"
	 viewBox="0 0 99 64" style="enable-background:new 0 0 99 64;" xml:space="preserve">
<style type="text/css">
	.st0{clip-path:url(#SVGID_00000059990141981719763960000002160251725322208150_);}
	.st1{fill:#009B3A;}
	.st2{fill:#FEDF00;}
	.st3{fill:#002776;}
</style>
<g>
	<defs>
		<rect id="SVGID_1_" y="5" width="99" height="54"/>
	</defs>
	<clipPath id="SVGID_00000080168946377734435320000002863874669598954375_">
		<use xlink:href="#SVGID_1_"  style="overflow:visible;"/>
	</clipPath>
	<g style="clip-path:url(#SVGID_00000080168946377734435320000002863874669598954375_);">
		<path class="st1" d="M99,5H0v54h99V5z"/>
		<path class="st2" d="M19.1,32.3l30.5-20.4l30.7,20.3L49.7,52.8L19.1,32.3z"/>
		<path class="st3" d="M49.7,45.7c7.1,0,12.9-6.1,12.9-13.5c0-7.5-5.8-13.5-12.9-13.5s-12.9,6.1-12.9,13.5
			C36.8,39.7,42.6,45.7,49.7,45.7z"/>
		<path class="st1" d="M39,27.5c0.1,0.4-0.1,0.6-0.5,0.7c-0.3,0-0.6-0.1-0.7-0.5c-0.1-0.4,0.1-0.6,0.5-0.7C38.7,27,39,27.2,39,27.5z
			 M38.1,27.7c0.1,0.2,0.2,0.4,0.5,0.4c0.2,0,0.3-0.3,0.3-0.5c0-0.2-0.2-0.4-0.5-0.4C38.1,27.2,38,27.4,38.1,27.7z"/>
		<path class="st1" d="M39.7,26.9c0.1,0,0.2,0,0.3-0.1c0.2,0,0.3,0,0.4,0.1c0.1,0,0.1,0.1,0.1,0.2c0,0.1-0.1,0.3-0.2,0.3
			c0,0,0,0,0,0c0.1,0,0.2,0.1,0.2,0.2c0.1,0.2,0.1,0.3,0.1,0.3c-0.1,0-0.1,0-0.2,0c0,0-0.1-0.1-0.1-0.3c-0.1-0.2-0.1-0.2-0.3-0.2
			c-0.1,0-0.1,0-0.2,0c0,0.2,0,0.3,0.1,0.5c-0.1,0-0.1,0-0.2,0C39.8,27.6,39.8,27.3,39.7,26.9L39.7,26.9z M40,27.4
			c0.1,0,0.1,0,0.2,0c0.2,0,0.3-0.1,0.3-0.2c0-0.1-0.1-0.2-0.3-0.2c-0.1,0-0.1,0-0.2,0C39.9,27.1,39.9,27.2,40,27.4L40,27.4z"/>
		<path class="st1" d="M41.3,26.8c0.1,0,0.2,0,0.3,0c0.2,0,0.4,0,0.5,0.1c0.1,0.1,0.2,0.2,0.2,0.4c0,0.2,0,0.3-0.2,0.4
			c-0.1,0.1-0.3,0.2-0.5,0.2c-0.1,0-0.2,0-0.3,0C41.4,27.5,41.3,27.1,41.3,26.8L41.3,26.8z M41.6,27.8c0,0,0.1,0,0.2,0
			c0.3,0,0.5-0.2,0.5-0.5c0-0.3-0.2-0.4-0.5-0.4c-0.1,0-0.1,0-0.2,0C41.5,27.2,41.5,27.5,41.6,27.8L41.6,27.8z"/>
		<path class="st1" d="M43.8,27.4c-0.2,0-0.3,0-0.5,0c0,0.1,0,0.3,0,0.4c0.2,0,0.4,0,0.5,0v0.1c-0.2,0-0.5,0-0.7,0
			c0-0.4,0-0.8,0-1.1c0.2,0,0.5,0,0.7,0c0,0,0,0.1,0,0.1c-0.2,0-0.3,0-0.5,0c0,0.1,0,0.2,0,0.4c0.2,0,0.3,0,0.5,0
			C43.8,27.3,43.8,27.3,43.8,27.4L43.8,27.4z"/>
		<path class="st1" d="M45.6,27.5c0-0.2,0-0.3,0-0.5c0,0,0,0,0,0c-0.1,0.1-0.1,0.3-0.2,0.4c-0.1,0.2-0.2,0.3-0.2,0.5
			c0,0-0.1,0-0.1,0c-0.1-0.2-0.1-0.4-0.2-0.6c-0.1-0.2-0.1-0.3-0.1-0.4c0,0,0,0,0,0c0,0.1,0,0.3,0,0.5c0,0.2,0,0.3,0,0.5
			c0,0-0.1,0-0.1,0c0-0.4,0.1-0.7,0.1-1.1c0.1,0,0.1,0,0.2,0c0.1,0.2,0.1,0.4,0.2,0.6c0,0.1,0.1,0.3,0.1,0.4c0,0,0,0,0,0
			c0-0.1,0.1-0.2,0.2-0.4c0.1-0.2,0.2-0.3,0.3-0.5c0.1,0,0.1,0,0.2,0c0,0.4,0,0.8,0,1.1c-0.1,0-0.1,0-0.2,0
			C45.6,27.9,45.6,27.7,45.6,27.5L45.6,27.5z"/>
		<path class="st1" d="M48.2,27.9c-0.2,0-0.3-0.1-0.5-0.1c0,0.1,0,0.3-0.1,0.4c0.2,0,0.3,0.1,0.5,0.1c0,0,0,0.1,0,0.1
			c-0.2,0-0.4-0.1-0.7-0.1c0.1-0.4,0.1-0.7,0.2-1.1c0.2,0,0.4,0.1,0.7,0.1c0,0,0,0.1,0,0.1c-0.2,0-0.3-0.1-0.5-0.1
			c0,0.1,0,0.2-0.1,0.4c0.2,0,0.3,0.1,0.5,0.1C48.2,27.8,48.2,27.9,48.2,27.9L48.2,27.9z"/>
		<path class="st1" d="M50,27.8c0.1,0,0.2,0,0.3,0.1c0.2,0,0.3,0.1,0.3,0.2c0.1,0.1,0.1,0.2,0,0.3c0,0.1-0.1,0.2-0.2,0.2
			c-0.1,0.1-0.2,0.1-0.4,0c0,0-0.1,0-0.1,0c0,0.1-0.1,0.3-0.1,0.4c-0.1,0-0.1,0-0.2,0C49.8,28.5,49.9,28.1,50,27.8z M50,28.3
			c0,0,0.1,0,0.1,0c0.2,0.1,0.3,0,0.4-0.1c0-0.1-0.1-0.2-0.2-0.3c-0.1,0-0.1,0-0.2,0C50.1,28.1,50.1,28.2,50,28.3L50,28.3z"/>
		<path class="st1" d="M51.5,28.2c0.1,0,0.2,0,0.3,0.1c0.2,0.1,0.3,0.1,0.3,0.2c0,0.1,0.1,0.2,0,0.2c0,0.1-0.2,0.2-0.3,0.2
			c0,0,0,0,0,0c0.1,0.1,0.1,0.2,0.1,0.3c0,0.2,0,0.3,0,0.3c-0.1,0-0.1,0-0.2-0.1c0,0,0-0.1,0-0.3c0-0.2,0-0.2-0.2-0.3
			c0,0-0.1,0-0.1,0c0,0.2-0.1,0.3-0.1,0.5c0,0-0.1,0-0.1-0.1C51.3,28.9,51.4,28.6,51.5,28.2L51.5,28.2z M51.5,28.8
			c0.1,0,0.1,0,0.2,0.1c0.2,0.1,0.3,0,0.3-0.1c0-0.1,0-0.2-0.2-0.3c-0.1,0-0.1,0-0.2,0C51.6,28.5,51.6,28.6,51.5,28.8L51.5,28.8z"/>
		<path class="st1" d="M53.8,29.7c-0.2,0.4-0.5,0.4-0.8,0.3c-0.3-0.1-0.4-0.4-0.3-0.7c0.1-0.3,0.4-0.5,0.8-0.3
			C53.8,29.1,53.9,29.4,53.8,29.7z M52.9,29.3c-0.1,0.2,0,0.5,0.2,0.6c0.2,0.1,0.4,0,0.5-0.3c0.1-0.2,0.1-0.5-0.2-0.6
			C53.2,28.9,53,29.1,52.9,29.3L52.9,29.3z"/>
		<path class="st1" d="M55.1,30.9c-0.1,0-0.2,0-0.4-0.1c-0.2-0.1-0.3-0.2-0.3-0.3c-0.1-0.1-0.1-0.3,0-0.5c0.1-0.3,0.5-0.4,0.9-0.2
			c0.1,0.1,0.2,0.1,0.3,0.2c0,0-0.1,0.1-0.1,0.1c0-0.1-0.1-0.1-0.2-0.2c-0.3-0.1-0.5-0.1-0.7,0.2c-0.1,0.3,0,0.5,0.2,0.6
			c0.1,0,0.2,0.1,0.2,0.1c0.1-0.1,0.1-0.2,0.2-0.3c-0.1,0-0.2-0.1-0.2-0.1c0,0,0-0.1,0.1-0.1c0.1,0.1,0.2,0.1,0.4,0.2
			C55.3,30.6,55.2,30.7,55.1,30.9L55.1,30.9z"/>
		<path class="st1" d="M56.3,30.3c0.1,0,0.2,0.1,0.3,0.1c0.2,0.1,0.2,0.2,0.3,0.3c0,0.1,0,0.2,0,0.2c-0.1,0.1-0.2,0.2-0.3,0.1
			c0,0,0,0,0,0c0.1,0.1,0.1,0.2,0,0.3c0,0.2-0.1,0.3-0.1,0.3c0,0-0.1-0.1-0.1-0.1c0,0,0-0.1,0.1-0.3c0-0.2,0-0.2-0.1-0.3
			c0,0-0.1,0-0.1-0.1c-0.1,0.1-0.2,0.3-0.2,0.4c0,0-0.1-0.1-0.1-0.1C56,31,56.2,30.7,56.3,30.3L56.3,30.3z M56.2,30.9
			c0,0,0.1,0.1,0.1,0.1c0.2,0.1,0.3,0.1,0.4,0c0.1-0.1,0-0.2-0.1-0.3c-0.1,0-0.1-0.1-0.1-0.1C56.4,30.6,56.3,30.8,56.2,30.9z"/>
		<path class="st1" d="M57.9,32c-0.1-0.1-0.3-0.2-0.4-0.3c-0.1,0.1-0.1,0.2-0.2,0.3c0.2,0.1,0.3,0.2,0.5,0.3c0,0,0,0.1-0.1,0.1
			c-0.2-0.1-0.4-0.3-0.6-0.4c0.2-0.3,0.4-0.6,0.6-0.9c0.2,0.1,0.4,0.2,0.6,0.4c0,0,0,0.1-0.1,0.1c-0.1-0.1-0.3-0.2-0.4-0.3
			c-0.1,0.1-0.1,0.2-0.2,0.3C57.7,31.7,57.9,31.8,57.9,32C58,31.9,58,32,57.9,32L57.9,32z"/>
		<path class="st1" d="M58.4,32.7c0,0.1,0.1,0.2,0.2,0.2c0.1,0.1,0.3,0.1,0.3,0c0.1-0.1,0-0.2-0.1-0.3c-0.1-0.2-0.2-0.3-0.1-0.4
			c0.1-0.1,0.3-0.2,0.5,0c0.1,0.1,0.2,0.2,0.2,0.2c0,0-0.1,0-0.1,0.1c0,0-0.1-0.1-0.2-0.2c-0.1-0.1-0.3-0.1-0.3,0
			c-0.1,0.1,0,0.2,0.1,0.3c0.1,0.2,0.2,0.3,0.1,0.5c-0.1,0.1-0.3,0.2-0.5,0c-0.1-0.1-0.2-0.2-0.2-0.2C58.3,32.8,58.4,32.8,58.4,32.7
			z"/>
		<path class="st1" d="M59.6,33.6c0,0.1,0.1,0.2,0.2,0.2c0.1,0.1,0.3,0.1,0.3,0c0.1-0.1,0.1-0.2,0-0.3c-0.1-0.2-0.2-0.3-0.1-0.5
			c0.1-0.1,0.3-0.1,0.5,0c0.1,0.1,0.2,0.2,0.2,0.2c0,0-0.1,0-0.1,0.1c0,0-0.1-0.1-0.2-0.2c-0.1-0.1-0.2-0.1-0.3,0
			c-0.1,0.1,0,0.2,0.1,0.3c0.1,0.2,0.1,0.3,0,0.5c-0.1,0.1-0.3,0.2-0.5,0c-0.1-0.1-0.2-0.2-0.2-0.3C59.5,33.7,59.5,33.6,59.6,33.6
			L59.6,33.6z"/>
		<path class="st1" d="M61.8,35c-0.3,0.3-0.6,0.2-0.8,0c-0.2-0.2-0.3-0.5,0-0.8c0.2-0.3,0.6-0.3,0.9,0C62.1,34.4,62.1,34.8,61.8,35
			L61.8,35z M61.1,34.4c-0.2,0.2-0.2,0.4,0,0.6c0.2,0.2,0.4,0.1,0.6-0.1c0.2-0.2,0.2-0.4,0-0.6C61.5,34.1,61.2,34.2,61.1,34.4z"/>
	</g>
</g>
</svg>
