<svg width="99" height="54" viewBox="0 0 99 54" fill="none" xmlns="http://www.w3.org/2000/svg">
<g clip-path="url(#clip0_225_648)">
<path d="M99 0H0V54H99V0Z" fill="#009B3A"/>
<path d="M19.106 27.2712L49.6164 6.89111L80.2711 27.2229L49.6811 47.7748L19.106 27.2712Z" fill="#FEDF00"/>
<path d="M49.7144 40.737C56.8528 40.737 62.6396 34.6813 62.6396 27.2113C62.6396 19.7412 56.8528 13.6855 49.7144 13.6855C42.576 13.6855 36.7892 19.7412 36.7892 27.2113C36.7892 34.6813 42.576 40.737 49.7144 40.737Z" fill="#002776"/>
<path d="M39.0418 22.5132C39.1135 22.8994 38.8985 23.136 38.5906 23.1833C38.2717 23.2322 37.9941 23.0439 37.9135 22.7071C37.8289 22.3543 38.024 22.0776 38.3642 22.0262C38.7115 21.9737 38.9801 22.1805 39.0418 22.5132ZM38.0837 22.6747C38.1389 22.9133 38.3279 23.1015 38.5747 23.0645C38.8234 23.027 38.9229 22.7971 38.8737 22.543C38.8304 22.3203 38.6538 22.1043 38.3817 22.1455C38.111 22.1866 38.0274 22.4304 38.0837 22.6747Z" fill="#009B3A"/>
<path d="M39.7184 21.8891C39.799 21.8655 39.9164 21.8459 40.0298 21.8356C40.2054 21.8202 40.3228 21.8398 40.4099 21.8974C40.4806 21.9426 40.5258 22.0172 40.5373 22.1041C40.5562 22.2527 40.4651 22.3592 40.3398 22.4096C40.3398 22.4111 40.3398 22.4132 40.3403 22.4147C40.4403 22.4368 40.5079 22.5135 40.5527 22.6282C40.6134 22.7824 40.6562 22.8894 40.687 22.9306C40.6328 22.9347 40.5786 22.9383 40.5243 22.9424C40.5004 22.912 40.4602 22.8169 40.4064 22.6796C40.3487 22.5268 40.2741 22.4734 40.1283 22.4816C40.0781 22.4862 40.0278 22.4908 39.9776 22.4955C40.0025 22.658 40.0268 22.8205 40.0517 22.983C39.9995 22.9882 39.9472 22.9933 39.8945 22.9984C39.8358 22.6287 39.7771 22.2584 39.7189 21.8886L39.7184 21.8891ZM39.9602 22.3859C40.0149 22.3808 40.0701 22.3756 40.1248 22.371C40.2965 22.3556 40.394 22.2625 40.3771 22.1334C40.3577 21.9879 40.2308 21.9334 40.0577 21.9472C39.9786 21.9544 39.9234 21.9663 39.898 21.9755C39.9189 22.1123 39.9398 22.2491 39.9607 22.3864L39.9602 22.3859Z" fill="#009B3A"/>
<path d="M41.2994 21.775C41.3979 21.7576 41.5163 21.7426 41.6467 21.7385C41.883 21.7313 42.0546 21.7776 42.1715 21.8686C42.2899 21.9597 42.3625 22.0903 42.373 22.2734C42.3834 22.458 42.3297 22.6092 42.2218 22.7146C42.1138 22.8216 41.9302 22.8818 41.6939 22.8895C41.582 22.8931 41.4875 22.8916 41.4074 22.8869C41.3716 22.5166 41.3352 22.1458 41.2994 21.7756V21.775ZM41.5546 22.7681C41.5954 22.7733 41.6536 22.7733 41.7153 22.7712C42.0521 22.7609 42.2242 22.5861 42.2053 22.2801C42.1904 22.0132 42.0108 21.8445 41.6641 21.8548C41.5795 21.8573 41.5158 21.8666 41.4735 21.8764C41.5004 22.1736 41.5278 22.4714 41.5546 22.7686V22.7681Z" fill="#009B3A"/>
<path d="M43.7809 22.364C43.6202 22.3568 43.4595 22.3506 43.2983 22.346C43.3013 22.4818 43.3038 22.6176 43.3068 22.7538C43.4834 22.759 43.6595 22.7657 43.8356 22.7739V22.8963C43.6083 22.885 43.3799 22.8773 43.1521 22.8721C43.1416 22.4952 43.1312 22.1182 43.1212 21.7412C43.3501 21.7464 43.5789 21.7546 43.8072 21.7654C43.8072 21.806 43.8072 21.8472 43.8072 21.8878C43.6341 21.8796 43.461 21.8729 43.2879 21.8682C43.2904 21.9876 43.2928 22.1064 43.2953 22.2257C43.457 22.2303 43.6187 22.2365 43.7799 22.2437C43.7799 22.2838 43.7799 22.3244 43.7799 22.3645L43.7809 22.364Z" fill="#009B3A"/>
<path d="M45.634 22.546C45.636 22.3882 45.638 22.1989 45.6499 22.059C45.648 22.059 45.6465 22.059 45.6445 22.0585C45.5927 22.1855 45.531 22.3198 45.4589 22.4679C45.3748 22.6417 45.2918 22.816 45.2107 22.9909C45.1714 22.9868 45.1316 22.9832 45.0923 22.9791C45.036 22.7939 44.9783 22.6093 44.9191 22.4247C44.8669 22.2611 44.8226 22.111 44.7918 21.9747C44.7903 21.9747 44.7893 21.9747 44.7878 21.9747C44.7788 22.1146 44.7629 22.3028 44.7455 22.471C44.7286 22.6309 44.7122 22.7914 44.6958 22.9518C44.646 22.9477 44.5963 22.9441 44.5465 22.94C44.5853 22.5661 44.6256 22.1922 44.6669 21.8188C44.7366 21.8245 44.8062 21.8302 44.8754 21.8358C44.94 22.0235 45.0032 22.2118 45.0649 22.3995C45.1097 22.543 45.145 22.6705 45.1699 22.7903C45.1714 22.7903 45.1734 22.7903 45.1753 22.7903C45.2122 22.6798 45.2624 22.5604 45.3261 22.4242C45.4102 22.2503 45.4957 22.077 45.5828 21.9042C45.6519 21.9119 45.7211 21.9196 45.7907 21.9279C45.7887 22.3054 45.7858 22.6823 45.7813 23.0593C45.7305 23.0531 45.6798 23.047 45.629 23.0413C45.631 22.8757 45.6325 22.7101 45.6335 22.5445L45.634 22.546Z" fill="#009B3A"/>
<path d="M48.1747 22.9228C48.0175 22.8899 47.8593 22.858 47.7016 22.8282C47.6812 22.9614 47.6603 23.0946 47.6399 23.2283C47.813 23.2612 47.9861 23.2962 48.1588 23.3327C48.1518 23.3728 48.1448 23.4124 48.1379 23.4525C47.915 23.4052 47.6916 23.361 47.4673 23.3193C47.522 22.949 47.5767 22.5788 47.6314 22.209C47.8563 22.2506 48.0807 22.2949 48.3045 22.3422C48.2976 22.3823 48.2906 22.4219 48.2836 22.462C48.114 22.4265 47.9444 22.3921 47.7742 22.3597C47.7563 22.4764 47.7384 22.5932 47.72 22.7104C47.8787 22.7408 48.0374 22.7726 48.1956 22.8056C48.1886 22.8452 48.1822 22.8842 48.1752 22.9238L48.1747 22.9228Z" fill="#009B3A"/>
<path d="M50.0234 22.7734C50.1025 22.7832 50.2049 22.8012 50.3318 22.8382C50.488 22.883 50.593 22.9493 50.6497 23.0285C50.7024 23.1 50.7198 23.1905 50.693 23.2862C50.6656 23.3839 50.6129 23.4502 50.5368 23.4883C50.4338 23.5418 50.291 23.5428 50.1413 23.4996C50.0955 23.4862 50.0532 23.4729 50.0199 23.4549C49.9831 23.5999 49.9467 23.7444 49.9099 23.8894C49.8597 23.875 49.8089 23.8612 49.7587 23.8473C49.8467 23.4893 49.9353 23.1314 50.0234 22.7734ZM50.0492 23.3407C50.0811 23.3582 50.1228 23.3736 50.1741 23.3885C50.3602 23.442 50.4955 23.3947 50.5363 23.2456C50.5756 23.1031 50.4805 23.0002 50.3069 22.9498C50.2383 22.9303 50.1845 22.92 50.1557 22.919C50.1204 23.0594 50.0845 23.2003 50.0487 23.3407H50.0492Z" fill="#009B3A"/>
<path d="M51.5248 23.2329C51.6084 23.2453 51.7233 23.2756 51.8302 23.3126C51.9964 23.3702 52.0944 23.4355 52.1486 23.5225C52.1924 23.5914 52.2019 23.6757 52.173 23.757C52.1247 23.8963 51.9954 23.9529 51.8591 23.9467C51.8591 23.9483 51.8581 23.9498 51.8576 23.9514C51.9387 24.0121 51.9665 24.1067 51.9566 24.2265C51.9442 24.3875 51.9357 24.4996 51.9457 24.549C51.8944 24.5305 51.8437 24.5114 51.7924 24.4934C51.784 24.4569 51.7894 24.3566 51.8009 24.2131C51.8158 24.0547 51.7715 23.9771 51.6352 23.9246C51.5875 23.9082 51.5402 23.8917 51.4924 23.8753C51.4432 24.029 51.3944 24.1828 51.3457 24.3366C51.2959 24.3196 51.2462 24.3026 51.1969 24.2862C51.3064 23.9354 51.4158 23.5842 51.5253 23.2334L51.5248 23.2329ZM51.5258 23.7703C51.578 23.7883 51.6297 23.8063 51.6815 23.8243C51.8442 23.8809 51.9735 23.8382 52.0148 23.7174C52.0611 23.5811 51.9695 23.4808 51.8064 23.4222C51.7317 23.3965 51.676 23.3841 51.6491 23.3821C51.6079 23.5117 51.5666 23.6413 51.5253 23.7703H51.5258Z" fill="#009B3A"/>
<path d="M53.8122 24.6899C53.659 25.0421 53.3456 25.1255 53.059 25.0056C52.7625 24.8817 52.6327 24.586 52.7506 24.2692C52.8745 23.9369 53.1914 23.8115 53.5073 23.9441C53.8301 24.0794 53.9436 24.3864 53.8122 24.6899ZM52.9123 24.3299C52.8272 24.5525 52.8824 24.8045 53.1118 24.9002C53.3426 24.9969 53.5545 24.8606 53.6535 24.6276C53.7401 24.4235 53.7097 24.1565 53.4565 24.0506C53.2048 23.9457 52.9993 24.1015 52.9123 24.3304V24.3299Z" fill="#009B3A"/>
<path d="M55.1266 25.8951C55.053 25.8833 54.9112 25.8529 54.7634 25.7794C54.5978 25.6966 54.4794 25.5917 54.4152 25.4451C54.3595 25.3155 54.3614 25.1519 54.4346 24.9946C54.5749 24.6932 54.9142 24.5821 55.3002 24.775C55.4325 24.8413 55.5236 24.9195 55.5614 24.9653C55.5315 24.9941 55.5022 25.0229 55.4723 25.0517C55.4241 24.9971 55.3579 24.939 55.2425 24.8814C54.9644 24.7421 54.7097 24.8089 54.5913 25.0619C54.4714 25.3186 54.5699 25.55 54.8256 25.6775C54.9186 25.7238 54.9883 25.7444 55.0281 25.7465C55.0783 25.6477 55.1281 25.5485 55.1783 25.4497C55.1032 25.4111 55.0276 25.3731 54.952 25.3355C54.9689 25.3011 54.9858 25.2661 55.0032 25.2317C55.1266 25.2934 55.2495 25.3556 55.3718 25.4183C55.2903 25.5773 55.2087 25.7362 55.1271 25.8951H55.1266Z" fill="#009B3A"/>
<path d="M56.332 25.3481C56.4126 25.3754 56.5215 25.4268 56.621 25.4834C56.7753 25.5708 56.8598 25.6531 56.8971 25.7472C56.9275 25.8223 56.92 25.9067 56.8757 25.9802C56.8001 26.1067 56.6603 26.1371 56.526 26.1057C56.525 26.1072 56.524 26.1088 56.5235 26.1098C56.5922 26.1839 56.6016 26.2816 56.5683 26.3963C56.5245 26.5505 56.4942 26.6575 56.4942 26.7079C56.4469 26.6801 56.3997 26.6524 56.3529 26.6246C56.3514 26.5876 56.3763 26.4909 56.4161 26.3536C56.4618 26.2024 56.433 26.1185 56.3076 26.0414C56.2633 26.0162 56.2191 25.9915 56.1748 25.9668C56.0957 26.1072 56.0166 26.2476 55.938 26.388C55.8917 26.3623 55.8459 26.3366 55.7997 26.3109C55.9778 25.99 56.1554 25.6691 56.333 25.3487L56.332 25.3481ZM56.2275 25.8717C56.2758 25.8984 56.324 25.9257 56.3723 25.9535C56.523 26.0393 56.6608 26.0219 56.7255 25.9123C56.7986 25.7884 56.727 25.6737 56.5758 25.5857C56.5061 25.5467 56.4539 25.524 56.427 25.5168C56.3604 25.6351 56.2942 25.7534 56.2275 25.8717Z" fill="#009B3A"/>
<path d="M57.9448 26.9987C57.8085 26.9087 57.6717 26.8202 57.5339 26.7328C57.4613 26.8454 57.3882 26.958 57.3155 27.0701C57.4663 27.1663 57.6165 27.2635 57.7658 27.3623C57.7434 27.3957 57.7205 27.4291 57.6981 27.462C57.5056 27.3345 57.311 27.209 57.1155 27.0866C57.3155 26.7734 57.5155 26.4597 57.7155 26.1465C57.912 26.2699 58.1065 26.3954 58.3006 26.5235C58.2782 26.5569 58.2553 26.5903 58.2329 26.6237C58.0861 26.5265 57.9389 26.4314 57.7906 26.3373C57.727 26.436 57.6628 26.5348 57.5991 26.633C57.7374 26.7209 57.8747 26.8099 58.0115 26.9004C57.9891 26.9333 57.9672 26.9663 57.9448 26.9992V26.9987Z" fill="#009B3A"/>
<path d="M58.4075 27.734C58.4433 27.8075 58.5095 27.895 58.599 27.9592C58.7324 28.0549 58.8562 28.0492 58.9244 27.9598C58.9871 27.877 58.9692 27.789 58.8657 27.643C58.7373 27.4712 58.6871 27.3215 58.7791 27.1935C58.8806 27.052 59.0935 27.0428 59.2975 27.1904C59.405 27.268 59.4662 27.3462 59.4955 27.4028C59.4592 27.4249 59.4234 27.447 59.3871 27.4691C59.3652 27.4285 59.3159 27.3508 59.2214 27.2824C59.0786 27.1796 58.9702 27.2146 58.9254 27.2763C58.8637 27.3606 58.897 27.447 59.0035 27.5967C59.1338 27.7813 59.1652 27.9181 59.0652 28.0482C58.9597 28.185 58.7558 28.2179 58.5194 28.0482C58.4224 27.9788 58.3349 27.8785 58.3035 27.8086C58.3384 27.7834 58.3727 27.7587 58.4075 27.734Z" fill="#009B3A"/>
<path d="M59.5861 28.6083C59.6179 28.6839 59.6791 28.7744 59.7661 28.8439C59.8945 28.9467 60.0194 28.9488 60.093 28.8629C60.1612 28.7837 60.1477 28.6952 60.0517 28.5435C59.9318 28.3645 59.89 28.2123 59.9895 28.0904C60.099 27.9557 60.3134 27.9577 60.5104 28.1167C60.6139 28.2 60.6711 28.2817 60.6974 28.3393C60.6596 28.3594 60.6223 28.3795 60.585 28.3995C60.5656 28.3579 60.5203 28.2776 60.4288 28.2041C60.291 28.0935 60.1806 28.1223 60.1318 28.1809C60.0651 28.2612 60.094 28.3491 60.1925 28.5049C60.3134 28.6963 60.3373 28.8351 60.2293 28.9591C60.1159 29.0892 59.9094 29.1108 59.6811 28.9282C59.5876 28.8536 59.505 28.7482 59.4776 28.6767C59.5139 28.6536 59.5497 28.6309 59.5861 28.6078V28.6083Z" fill="#009B3A"/>
<path d="M61.8148 30.0067C61.5402 30.2778 61.2059 30.2418 60.9706 30.0289C60.7273 29.8082 60.7064 29.4889 60.9347 29.2384C61.1735 28.9756 61.5258 28.9725 61.7849 29.208C62.0501 29.4487 62.0511 29.7738 61.8148 30.0072V30.0067ZM61.0696 29.3515C60.9069 29.5274 60.8706 29.7794 61.0591 29.9496C61.2487 30.1219 61.5034 30.072 61.683 29.8915C61.8402 29.7342 61.9058 29.476 61.6979 29.2872C61.4914 29.1 61.2362 29.171 61.0696 29.3515Z" fill="#009B3A"/>
</g>
<defs>
<clipPath id="clip0_225_648">
<rect width="99" height="54" fill="white"/>
</clipPath>
</defs>
</svg>
