<?xml version="1.0" encoding="utf-8"?>
<!-- Generator: Adobe Illustrator 25.2.1, SVG Export Plug-In . SVG Version: 6.00 Build 0)  -->
<svg version="1.1" id="Layer_1" xmlns="http://www.w3.org/2000/svg" xmlns:xlink="http://www.w3.org/1999/xlink" x="0px" y="0px"
	 viewBox="0 0 64 80" style="enable-background:new 0 0 64 80;" xml:space="preserve">
<style type="text/css">
	.st0{fill:#FFFFFF;}
</style>
<path class="st0" d="M13.8,21.7c4.3,0,7.4-4.6,5.3-8.7l8.9-2.9c0.9,1.9,2.9,3.2,5.1,3.2c0.8,0,1.6-0.2,2.3-0.5l3.8,7.3l0,0
	c-2.4,3.8,0.4,8.8,4.8,8.8c3.2,0,5.7-2.6,5.7-5.7c0-4.5-5-7.3-8.9-4.8l-3.6-6.9c0.9-1,1.4-2.3,1.5-3.7l11,1
	c-0.1,2.8,2.2,4.9,4.8,4.9c2.6,0,4.8-2.1,4.8-4.8c0-4.8-6.4-6.6-8.9-2.4L38.4,5.3c-0.9-2-2.9-3.4-5.2-3.4c-3.2,0-5.7,2.6-5.7,5.7
	c0,0.1,0,0.2,0,0.2l-10,3.2c-4-3.1-9.6-0.3-9.6,4.7C7.9,19.1,10.5,21.7,13.8,21.7L13.8,21.7z M47.5,23.2c0,4.4-6.7,4.4-6.7,0
	C40.8,18.8,47.5,18.8,47.5,23.2z M54.7,6.5c3.2,0,3.2,4.8,0,4.8C51.5,11.2,51.5,6.5,54.7,6.5z M33.2,4.3c1.8,0,3.3,1.5,3.3,3.3
	S35,11,33.2,11c-1.8,0-3.3-1.5-3.3-3.3S31.4,4.3,33.2,4.3z M17.4,15.8c0,4.7-7.2,4.7-7.2,0C10.3,11,17.4,11,17.4,15.8z"/>
<path class="st0" d="M58.3,50.3c0.3-7.4-4.6-9.6-6.5-10.1c-2.5-5.6-7.5-6-10.4-5.3c-3.8-3.4-9.1-1.8-10.6-1.2
	c-6.6-1.7-10.3,2-11.4,3.4c-4.1,0.2-6.4,2.7-6.9,6.3c-4.5,0.7-8,5.3-8,10.9c0,7.1,5.6,11.6,9.3,11l5.9-0.9c3.1,2,6.5,2.2,9.1-0.1
	c2,2.9,5,3.8,6.7,4v8.6c0,2.1,2.9,0.8,10.8,1.3c0.1,0,0.5,0,0.9-0.4c0.2-0.2,0.4-0.5,0.3-0.9c-0.2-6.9,5-8,5.2-8
	c1.4-0.2,4.5-3.3,4.2-7.4C60.6,57.4,59.6,52.6,58.3,50.3L58.3,50.3z M54.9,60.2c-0.3,0.3-0.4,0.7-0.3,1.1c0,0,0.6,3.2-2.4,5.3
	c-1.3,0.3-6.5,2.1-6.8,9.1l-2.5,0v-6.3c0-2.5,2.1-3.8,2.2-3.8c4-2.1,4.9-4.9,4.9-5.1c0.2-0.6-0.2-1.3-0.8-1.5
	c-1.9-0.6-0.7,2-5.3,4.4c-0.1,0.1-3.4,2-3.4,5.9v6.3l-2.4,0c-0.1-7.9,0.6-9.7-1.2-9.8c0,0-4.6,0.1-6.6-4.2c-0.2-0.4-0.6-0.7-1-0.7
	c-1.4-0.1-1.2,1.9-3.9,2.4c-2.8,0.6-4.4-1.7-5.5-1.5l-6.2,1c-3.7-0.1-6.7-3.9-6.7-8.6c0-4.8,3-8.6,6.8-8.6c2,0,0.4-2.6,2.4-4.8
	c2-2.1,4.2-0.7,4.9-2c0,0,2.8-4.7,9.5-2.8c0.3,0.1,0.5,0.1,0.8-0.1c0.1,0,5.7-2.4,8.9,1c0.3,0.4,0.8,0.5,1.3,0.3
	c0.6-0.2,5.9-1.8,8.3,4.3c0.2,0.4,0.5,0.7,0.9,0.7c0.2,0,5.6,1,5.1,8.1C55.9,51.3,59.2,55.8,54.9,60.2L54.9,60.2z"/>
<path class="st0" d="M14.1,52.4c0,0,2.9-1.7,4.4-0.2c0.2,0.2,0.5,0.4,0.8,0.4c0.1,0,0.2,0,0.2,0c0.4-0.1,0.7-0.3,0.9-0.7
	c0.2-0.5,2.1-5.4-0.3-7.8c-0.5-0.5-1.2-0.5-1.7,0c-0.5,0.5-0.5,1.2,0,1.7c0.7,0.7,0.5,2.5,0.2,3.8c-2.7-1.1-5.7,0.7-5.9,0.8
	c-0.6,0.3-0.7,1.1-0.4,1.6C12.8,52.6,13.6,52.8,14.1,52.4L14.1,52.4z"/>
<path class="st0" d="M27,43.5c-0.4,1.3-0.9,3.8,0.5,5.5c0.2,0.3,0.6,0.4,0.9,0.4c0.3,0,0.5-0.1,0.8-0.3c0.5-0.4,0.6-1.2,0.2-1.7
	c-0.8-1-0.1-3.1,0.2-3.8c0.2-0.5,0.1-1-0.3-1.4l-2.4-2.1c-0.5-0.4-1.3-0.4-1.7,0.1c-0.4,0.5-0.4,1.3,0.1,1.7L27,43.5z"/>
<path class="st0" d="M43.3,42.3c-1.8,0.3-2.8,2-3.3,3.6c-2.8-2-2.5-5-2.4-5.2c0.2-1.6-2.2-1.9-2.4-0.3c-0.3,2,0.5,6.4,5.2,8.4
	c0.2,0.1,0.3,0.1,0.5,0.1c0.6,0,1.1-0.5,1.2-1.1c0.1-0.9,0.6-3,1.7-3.1c0.7-0.1,1.1-0.7,1-1.4S43.9,42.2,43.3,42.3L43.3,42.3z"/>
<path class="st0" d="M51.2,53.8c-0.2-1.4-0.8-2.6-1.4-3.4c1.4-1.4,3.1-5.2,1-5.5c-0.7-0.1-1.3,0.4-1.4,1c-0.1,0.7-0.6,2.6-1.9,3.2
	C47.3,49.3,47,49.6,47,50c-0.1,0.4,0.1,0.8,0.3,1c0.5,0.6,1.9,2.4,1.5,4c-0.2,0.9,0.7,1.7,1.6,1.4c0.2-0.1,1.2-0.3,1.6,0.1
	c0.2,0.3,0.6,0.4,0.9,0.4c0.3,0,0.6-0.1,0.8-0.3c0.5-0.4,0.6-1.2,0.1-1.7C53.1,54,52.2,53.7,51.2,53.8L51.2,53.8z"/>
<path class="st0" d="M36.3,50.7c-0.3-0.3-0.7-0.5-1.1-0.4c-0.4,0.1-0.8,0.4-0.9,0.8c0,0.1-1,2.8,0.4,5.2c0.9,1.6,0.4,3.3-0.2,3.7
	c-0.6,0.3-0.7,1.1-0.4,1.6c0.7,1.1,2.6,0.6,3.3-2.1c0.8-3-0.9-4.2-1.1-5.9c2.4,1.2,4.3,0.2,5.9,2c1,1.2,2.8-0.4,1.8-1.6
	C41.2,50.9,38,53,36.3,50.7L36.3,50.7z"/>
<path class="st0" d="M28.7,54.8c-0.2-0.3-0.5-0.4-0.8-0.4c-1.3-0.1-3.4-0.5-4.1-0.9c-0.3-0.2-0.8-0.2-1.1-0.1
	c-0.4,0.2-0.6,0.5-0.7,0.9c0,0.1-0.4,2-3.4,1.9h-3.8c-0.7,0-1.2,0.5-1.2,1.2c0,0.7,0.5,1.2,1.2,1.2l3.7,0c0.1,0,0.3,0,0.4,0
	c2.7,0,4.2-1.3,4.9-2.5c1.2,0.4,2.6,0.6,3.3,0.6l1.1,1.3c0.4,0.5,1.2,0.6,1.7,0.2c0.5-0.4,0.6-1.2,0.2-1.7L28.7,54.8z"/>
</svg>
