<?xml version="1.0" encoding="utf-8"?>
<!-- Generator: Adobe Illustrator 27.4.1, SVG Export Plug-In . SVG Version: 6.00 Build 0)  -->
<svg version="1.1" id="Capa_1" xmlns="http://www.w3.org/2000/svg" xmlns:xlink="http://www.w3.org/1999/xlink" x="0px" y="0px"
	 viewBox="0 0 70 64" style="enable-background:new 0 0 70 64;" xml:space="preserve">
<style type="text/css">
	.st0{clip-path:url(#SVGID_00000053521452336243495920000003925347772401665445_);}
	.st1{fill:#1B75B4;}
</style>
<g>
	<defs>
		<rect id="SVGID_1_" x="5.1" y="2.1" width="59.9" height="59.9"/>
	</defs>
	<clipPath id="SVGID_00000119103292692567510540000018420729682449214872_">
		<use xlink:href="#SVGID_1_"  style="overflow:visible;"/>
	</clipPath>
	<g style="clip-path:url(#SVGID_00000119103292692567510540000018420729682449214872_);">
		<path class="st1" d="M56.1,56H41c-0.3,0-0.6-0.3-0.6-0.6c0-0.3,0.3-0.6,0.6-0.6h15.1c0.3,0,0.6,0.3,0.6,0.6
			C56.7,55.7,56.4,56,56.1,56z"/>
		<path class="st1" d="M23.6,59.5c-0.7,0-1.4-0.3-1.9-0.8c-0.5-0.5-0.8-1.2-0.8-1.9c0-0.7,0.3-1.4,0.8-1.9c0.5-0.5,1.2-0.8,1.9-0.8
			c0.7,0,1.4,0.3,1.9,0.8c0.5,0.5,0.8,1.2,0.8,1.9c0,0.7-0.3,1.4-0.8,1.9C25,59.2,24.3,59.5,23.6,59.5z M23.6,55.3
			c-0.6,0-1.1,0.4-1.4,0.9c-0.2,0.5-0.1,1.2,0.3,1.6c0.4,0.4,1.1,0.5,1.6,0.3c0.5-0.2,0.9-0.8,0.9-1.3C25.1,56,24.4,55.3,23.6,55.3
			L23.6,55.3z"/>
		<path class="st1" d="M40.8,12.5H6c-0.3,0-0.6-0.3-0.6-0.6c0-0.3,0.3-0.6,0.6-0.6h34.7c0.3,0,0.6,0.3,0.6,0.6
			C41.4,12.3,41.1,12.5,40.8,12.5z"/>
		<path class="st1" d="M64.3,52.6H6c-0.3,0-0.6-0.3-0.6-0.6c0-0.3,0.3-0.6,0.6-0.6h58.3c0.3,0,0.6,0.3,0.6,0.6
			C64.9,52.3,64.7,52.6,64.3,52.6z"/>
		<path class="st1" d="M25.9,8.3h-5.3C20.3,8.3,20,8,20,7.7C20,7.3,20.3,7,20.6,7h5.3c0.3,0,0.6,0.3,0.6,0.6
			C26.5,8,26.3,8.3,25.9,8.3z"/>
		<path class="st1" d="M20.1,52.5c-0.3,0-0.6-0.3-0.6-0.6v-3.1c0-0.3,0.3-0.6,0.6-0.6h41.2c0.2,0,0.3,0.1,0.4,0.2
			c0.1,0.1,0.2,0.3,0.2,0.4v3.1c0,0.3-0.3,0.6-0.6,0.6c-0.3,0-0.6-0.3-0.6-0.6v-2.5h-40v2.5c0,0.2-0.1,0.3-0.2,0.4
			C20.5,52.4,20.3,52.5,20.1,52.5L20.1,52.5z"/>
		<path class="st1" d="M29.4,49.4c-0.3,0-0.6-0.3-0.6-0.6v-2.2h-6v2.2c0,0.3-0.3,0.6-0.6,0.6c-0.3,0-0.6-0.3-0.6-0.6v-2.8
			c0-0.3,0.3-0.6,0.6-0.6h7.2c0.2,0,0.3,0.1,0.4,0.2c0.1,0.1,0.2,0.3,0.2,0.4v2.8c0,0.2-0.1,0.3-0.2,0.4
			C29.7,49.3,29.6,49.4,29.4,49.4z"/>
		<path class="st1" d="M59.5,49.4c-0.3,0-0.6-0.3-0.6-0.6v-2.2h-6v2.2c0,0.3-0.3,0.6-0.6,0.6s-0.6-0.3-0.6-0.6v-2.8
			c0-0.3,0.3-0.6,0.6-0.6h7.2c0.2,0,0.3,0.1,0.4,0.2c0.1,0.1,0.2,0.3,0.2,0.4v2.8c0,0.2-0.1,0.3-0.2,0.4
			C59.8,49.3,59.6,49.4,59.5,49.4z"/>
		<path class="st1" d="M39.6,49.4c-0.3,0-0.6-0.3-0.6-0.6v-2.2h-6v2.2c0,0.3-0.3,0.6-0.6,0.6c-0.3,0-0.6-0.3-0.6-0.6v-2.8
			c0-0.3,0.3-0.6,0.6-0.6h7.2c0.2,0,0.3,0.1,0.4,0.2c0.1,0.1,0.2,0.3,0.2,0.4v2.8c0,0.2-0.1,0.3-0.2,0.4
			C39.9,49.3,39.7,49.4,39.6,49.4L39.6,49.4z"/>
		<path class="st1" d="M33.2,46.5c-0.3,0-0.6-0.3-0.6-0.6V33.5c0-0.3,0.3-0.6,0.6-0.6c0.3,0,0.6,0.3,0.6,0.6v12.4
			c0,0.2-0.1,0.3-0.2,0.4C33.5,46.5,33.3,46.5,33.2,46.5z"/>
		<path class="st1" d="M38.9,46.5c-0.3,0-0.6-0.3-0.6-0.6v-8.4c0-0.3,0.3-0.6,0.6-0.6s0.6,0.3,0.6,0.6v8.4c0,0.2-0.1,0.3-0.2,0.4
			C39.2,46.5,39,46.5,38.9,46.5z"/>
		<path class="st1" d="M49.5,49.4c-0.3,0-0.6-0.3-0.6-0.6v-2.2h-6v2.2c0,0.3-0.3,0.6-0.6,0.6s-0.6-0.3-0.6-0.6v-2.8
			c0-0.3,0.3-0.6,0.6-0.6h7.2c0.2,0,0.3,0.1,0.4,0.2c0.1,0.1,0.2,0.3,0.2,0.4v2.8c0,0.2-0.1,0.3-0.2,0.4
			C49.9,49.3,49.7,49.4,49.5,49.4z"/>
		<path class="st1" d="M43.1,46.5c-0.3,0-0.6-0.3-0.6-0.6v-8.4c0-0.3,0.3-0.6,0.6-0.6c0.3,0,0.6,0.3,0.6,0.6v8.4
			c0,0.2-0.1,0.3-0.2,0.4S43.3,46.5,43.1,46.5z"/>
		<path class="st1" d="M48.8,46.5c-0.3,0-0.6-0.3-0.6-0.6V33.7c0-0.3,0.3-0.6,0.6-0.6c0.3,0,0.6,0.3,0.6,0.6v12.2
			c0,0.2-0.1,0.3-0.2,0.4C49.2,46.5,49,46.5,48.8,46.5z"/>
		<path class="st1" d="M18.9,29.1c-0.3,0-0.6-0.3-0.6-0.6v-3.4c0-0.2,0.1-0.4,0.3-0.5l22-13.1c0.2-0.1,0.4-0.1,0.6,0l22.3,13.1
			c0.2,0.1,0.3,0.3,0.3,0.5v3.4c0,0.2-0.1,0.3-0.2,0.4c-0.1,0.1-0.3,0.2-0.4,0.2H50.4c-0.3,0-0.6-0.3-0.6-0.6c0-0.3,0.3-0.6,0.6-0.6
			h12.2v-2.4L40.9,12.8L19.5,25.5v2.5h12.3c0.3,0,0.6,0.3,0.6,0.6c0,0.3-0.3,0.6-0.6,0.6H18.9z"/>
		<path class="st1" d="M29.4,32h-7.2c-0.3,0-0.6-0.3-0.6-0.6v-2.8c0-0.3,0.3-0.6,0.6-0.6c0.3,0,0.6,0.3,0.6,0.6v2.2h6v-2.2
			c0-0.3,0.3-0.6,0.6-0.6c0.3,0,0.6,0.3,0.6,0.6v2.8c0,0.2-0.1,0.3-0.2,0.4C29.7,31.9,29.6,32,29.4,32L29.4,32z"/>
		<path class="st1" d="M59.5,32h-7.2c-0.3,0-0.6-0.3-0.6-0.6v-2.8c0-0.3,0.3-0.6,0.6-0.6c0.3,0,0.6,0.3,0.6,0.6v2.2h6v-2.2
			c0-0.3,0.3-0.6,0.6-0.6s0.6,0.3,0.6,0.6v2.8c0,0.2-0.1,0.3-0.2,0.4C59.8,31.9,59.7,32,59.5,32L59.5,32z"/>
		<path class="st1" d="M28.6,46.5c-0.3,0-0.6-0.3-0.6-0.6V31.4c0-0.3,0.3-0.6,0.6-0.6c0.3,0,0.6,0.3,0.6,0.6v14.6
			c0,0.2-0.1,0.3-0.2,0.4C28.9,46.5,28.8,46.5,28.6,46.5z"/>
		<path class="st1" d="M58.8,46.5c-0.3,0-0.6-0.3-0.6-0.6V31.4c0-0.3,0.3-0.6,0.6-0.6c0.3,0,0.6,0.3,0.6,0.6v14.5
			c0,0.2-0.1,0.3-0.2,0.4C59.1,46.4,59,46.5,58.8,46.5z"/>
		<path class="st1" d="M53.1,46.5c-0.3,0-0.6-0.3-0.6-0.6V31.4c0-0.3,0.3-0.6,0.6-0.6c0.3,0,0.6,0.3,0.6,0.6v14.6
			c0,0.2-0.1,0.3-0.2,0.4C53.4,46.5,53.2,46.5,53.1,46.5z"/>
		<path class="st1" d="M22.9,46.5c-0.3,0-0.6-0.3-0.6-0.6V31.4c0-0.3,0.3-0.6,0.6-0.6c0.3,0,0.6,0.3,0.6,0.6v14.6
			c0,0.2-0.1,0.3-0.2,0.4C23.2,46.5,23.1,46.5,22.9,46.5z"/>
		<path class="st1" d="M41.1,38.4c-2.6,0-5.2-1-7-2.9c-1.9-1.8-2.9-4.4-2.9-7c0-2.6,1-5.1,2.9-7c1.9-1.8,4.4-2.9,7-2.9
			c2.6,0,5.2,1,7,2.9c1.9,1.8,2.9,4.4,2.9,7c0,2.6-1.1,5.1-2.9,7C46.2,37.3,43.7,38.4,41.1,38.4L41.1,38.4z M41.1,19.9
			c-2.3,0-4.5,0.9-6.2,2.5c-1.6,1.6-2.5,3.8-2.5,6.1s0.9,4.5,2.5,6.1c1.6,1.6,3.8,2.5,6.2,2.5c2.3,0,4.5-0.9,6.2-2.5
			c1.6-1.6,2.5-3.8,2.5-6.1c0-2.3-0.9-4.5-2.6-6.1C45.6,20.8,43.4,19.9,41.1,19.9L41.1,19.9z"/>
		<path class="st1" d="M36.2,61.9H10.6c-3,0-5.6-2.5-5.6-5.5V7.5c0-1.5,0.6-2.8,1.7-3.9c1-1,2.5-1.6,3.9-1.6h25.5
			c1.5,0,2.8,0.6,3.9,1.6c1,1,1.6,2.4,1.6,3.8v4.4c0,0.3-0.3,0.6-0.6,0.6c-0.3,0-0.6-0.3-0.6-0.6V7.5c0-1.1-0.4-2.2-1.2-3
			c-0.8-0.8-1.9-1.2-3-1.2H10.6c-2.4,0-4.3,1.9-4.3,4.2v48.9c0,2.3,2,4.3,4.3,4.3h25.5c2.3,0,4.2-2,4.2-4.3V52
			c0-0.3,0.3-0.6,0.6-0.6c0.3,0,0.6,0.3,0.6,0.6v4.4C41.6,59.5,39.2,61.9,36.2,61.9L36.2,61.9z"/>
		<path class="st1" d="M58.3,56h-0.1c-0.3,0-0.6-0.3-0.6-0.6c0-0.3,0.3-0.6,0.6-0.6h0.1c0.3,0,0.6,0.3,0.6,0.6
			C58.9,55.7,58.7,56,58.3,56z"/>
		<path class="st1" d="M41.1,33c-2,0-3.3-1-3.4-2.6c0-0.3,0.3-0.6,0.6-0.6c0.3,0,0.6,0.3,0.6,0.6c0,1.3,1.6,1.4,2.2,1.4
			c0.6,0,1.3-0.3,1.6-0.6c0.2-0.2,0.3-0.6,0.2-0.9c-0.1-0.4-0.3-0.8-1.5-1l-0.3-0.1c-1-0.1-2.1-0.3-2.9-1.4c-0.3-0.4-0.4-1-0.3-1.5
			c0.2-0.7,0.6-1.3,1.2-1.7c0.9-0.6,2.2-0.7,3.3-0.2c0.8,0.3,1.4,0.9,1.8,1.7c0.1,0.3,0,0.7-0.4,0.8c-0.3,0.1-0.7,0-0.8-0.3
			c-0.2-0.5-0.6-0.9-1.1-1.1c-0.7-0.3-1.6-0.3-2.1,0.1c-0.3,0.2-0.6,0.5-0.7,0.9c0,0.2,0,0.4,0.1,0.6c0.4,0.6,1.1,0.8,2.1,0.9
			c0.1,0,0.2,0,0.4,0.1c0.6,0.1,2.3,0.4,2.5,2c0.1,0.7-0.1,1.3-0.5,1.8C43.1,32.6,42.2,33,41.1,33L41.1,33L41.1,33z"/>
		<path class="st1" d="M41.1,25.3c-0.3,0-0.6-0.3-0.6-0.6V23c0-0.3,0.3-0.6,0.6-0.6c0.3,0,0.6,0.3,0.6,0.6v1.7
			c0,0.2-0.1,0.3-0.2,0.4C41.4,25.3,41.3,25.3,41.1,25.3z"/>
		<path class="st1" d="M41.1,34.8c-0.3,0-0.6-0.3-0.6-0.6v-1.8c0-0.3,0.3-0.6,0.6-0.6c0.3,0,0.6,0.3,0.6,0.6v1.8
			c0,0.2-0.1,0.3-0.2,0.4C41.4,34.7,41.3,34.8,41.1,34.8z"/>
		<path class="st1" d="M25.8,24.9c-0.3,0-0.5-0.2-0.6-0.4c-0.1-0.3,0-0.5,0.3-0.7l15.1-9c0.2-0.1,0.4-0.1,0.6,0l15.2,8.8
			c0.3,0.2,0.4,0.5,0.2,0.8c-0.2,0.3-0.5,0.4-0.8,0.2L40.9,16l-14.8,8.8C26,24.9,25.9,24.9,25.8,24.9L25.8,24.9z"/>
		<path class="st1" d="M56.7,17c-0.3,0-0.6-0.3-0.6-0.6c0-1.5-0.6-2.9-1.7-4s-2.5-1.7-4-1.7c-0.3,0-0.6-0.3-0.6-0.6
			c0-0.3,0.3-0.6,0.6-0.6c1.8,0,3.6,0.7,4.9,2c1.3,1.3,2,3,2,4.9c0,0.2-0.1,0.3-0.2,0.4C57,17,56.9,17,56.7,17L56.7,17z"/>
		<path class="st1" d="M60.4,17c-0.3,0-0.6-0.3-0.6-0.6c0-2.5-1-4.8-2.7-6.6c-1.8-1.7-4.1-2.7-6.6-2.7c-0.3,0-0.6-0.3-0.6-0.6
			c0-0.3,0.3-0.6,0.6-0.6c2.8,0,5.5,1.1,7.5,3.1c2,2,3.1,4.6,3.1,7.4c0,0.2-0.1,0.3-0.2,0.4C60.7,17,60.5,17,60.4,17z"/>
		<path class="st1" d="M64.2,17c-0.3,0-0.6-0.3-0.6-0.6c0-3.5-1.4-6.8-3.9-9.3c-2.5-2.5-5.8-3.8-9.3-3.8c-0.3,0-0.6-0.3-0.6-0.6
			c0-0.3,0.3-0.6,0.6-0.6c3.8,0,7.5,1.5,10.2,4.2c2.7,2.7,4.2,6.3,4.2,10.1c0,0.2-0.1,0.3-0.2,0.4C64.5,17,64.4,17,64.2,17L64.2,17z
			"/>
	</g>
</g>
</svg>
