<svg width="70" height="70" viewBox="0 0 70 70" fill="none" xmlns="http://www.w3.org/2000/svg">
<g clip-path="url(#clip0_218_141)">
<path d="M59.6733 63.0288H42.0296C41.6336 63.0288 41.3123 62.7101 41.3123 62.3173C41.3123 61.9244 41.6336 61.6057 42.0296 61.6057H59.6733C60.0693 61.6057 60.3906 61.9244 60.3906 62.3173C60.3906 62.7101 60.0693 63.0288 59.6733 63.0288Z" fill="#1B75B4"/>
<path d="M21.6607 67.0913C20.824 67.0913 20.0214 66.7609 19.4286 66.1742C18.8371 65.5875 18.504 64.7914 18.504 63.9602C18.504 63.129 18.8371 62.3342 19.4286 61.7462C20.0201 61.1595 20.8227 60.8291 21.6607 60.8291C22.4988 60.8291 23.3001 61.1595 23.8929 61.7462C24.4844 62.3329 24.8175 63.129 24.8175 63.9602C24.8175 64.7914 24.4844 65.5862 23.8929 66.1742C23.3014 66.7609 22.4988 67.0913 21.6607 67.0913ZM21.6607 62.2639C20.9643 62.2639 20.3374 62.6802 20.0712 63.3176C19.805 63.955 19.9519 64.6899 20.4437 65.1778C20.9355 65.6656 21.6765 65.8126 22.3204 65.5485C22.9631 65.2844 23.3827 64.6613 23.3827 63.9719C23.3827 63.0288 22.6116 62.2652 21.6621 62.2652L21.6607 62.2639Z" fill="#1B75B4"/>
<path d="M41.7424 12.2356H1.14757C0.751493 12.2356 0.430176 11.9169 0.430176 11.5241C0.430176 11.1312 0.751493 10.8125 1.14757 10.8125H41.7424C42.1385 10.8125 42.4598 11.1312 42.4598 11.5241C42.4598 11.9169 42.1385 12.2356 41.7424 12.2356Z" fill="#1B75B4"/>
<path d="M69.2839 59.0444H1.14757C0.751493 59.0444 0.430176 58.7257 0.430176 58.3329C0.430176 57.94 0.751493 57.6213 1.14757 57.6213H69.2839C69.68 57.6213 70.0013 57.94 70.0013 58.3329C70.0013 58.7257 69.68 59.0444 69.2839 59.0444Z" fill="#1B75B4"/>
<path d="M24.386 7.25611H18.2181C17.822 7.25611 17.5007 6.93741 17.5007 6.54456C17.5007 6.15171 17.822 5.83301 18.2181 5.83301H24.386C24.7821 5.83301 25.1034 6.15171 25.1034 6.54456C25.1034 6.93741 24.7821 7.25611 24.386 7.25611Z" fill="#1B75B4"/>
<path d="M17.6344 58.9703C17.2384 58.9703 16.9171 58.6516 16.9171 58.2587V54.5995C16.9171 54.2066 17.2384 53.8879 17.6344 53.8879H65.8426C66.0327 53.8879 66.215 53.9621 66.3501 54.0961C66.4852 54.2288 66.56 54.4096 66.56 54.5995V58.1911C66.56 58.5839 66.2386 58.9026 65.8426 58.9026C65.4465 58.9026 65.1252 58.5839 65.1252 58.1911V55.311H18.3518V58.2587C18.3518 58.4473 18.2771 58.6281 18.142 58.7608C18.0082 58.8948 17.8259 58.969 17.6344 58.969V58.9703Z" fill="#1B75B4"/>
<path d="M28.4714 55.311C28.0753 55.311 27.754 54.9923 27.754 54.5995V51.9939H20.7729V54.5995C20.7729 54.9923 20.4515 55.311 20.0555 55.311C19.6594 55.311 19.3381 54.9923 19.3381 54.5995V51.2824C19.3381 50.8895 19.6594 50.5708 20.0555 50.5708H28.4714C28.6615 50.5708 28.8438 50.6449 28.9789 50.7789C29.114 50.9129 29.1887 51.0937 29.1887 51.2824V54.5995C29.1887 54.7881 29.114 54.9689 28.9789 55.1029C28.8438 55.2369 28.6628 55.311 28.4714 55.311Z" fill="#1B75B4"/>
<path d="M63.6156 55.311C63.2195 55.311 62.8982 54.9923 62.8982 54.5995V51.9939H55.9171V54.5995C55.9171 54.9923 55.5958 55.311 55.1997 55.311C54.8036 55.311 54.4823 54.9923 54.4823 54.5995V51.2824C54.4823 50.8895 54.8036 50.5708 55.1997 50.5708H63.6156C63.8058 50.5708 63.9881 50.6449 64.1232 50.7789C64.2582 50.9129 64.333 51.0937 64.333 51.2824V54.5995C64.333 54.7881 64.2582 54.9689 64.1232 55.1029C63.9894 55.2356 63.8071 55.311 63.6156 55.311Z" fill="#1B75B4"/>
<path d="M40.347 55.311C39.9509 55.311 39.6296 54.9923 39.6296 54.5995V51.9939H32.6459V54.5995C32.6459 54.9923 32.3246 55.311 31.9285 55.311C31.5324 55.311 31.2111 54.9923 31.2111 54.5995V51.2824C31.2111 50.8895 31.5324 50.5708 31.9285 50.5708H40.3457C40.5359 50.5708 40.7182 50.6449 40.8532 50.7789C40.987 50.9129 41.0631 51.0937 41.0631 51.2824V54.5995C41.0631 54.7881 40.987 54.9689 40.8532 55.1029C40.7182 55.2356 40.5359 55.311 40.3457 55.311H40.347Z" fill="#1B75B4"/>
<path d="M32.8491 51.9954C32.4531 51.9954 32.1317 51.6767 32.1317 51.2838V36.7601C32.1317 36.3673 32.4531 36.0486 32.8491 36.0486C33.2452 36.0486 33.5665 36.3673 33.5665 36.7601V51.2838C33.5665 51.4725 33.4918 51.6533 33.3567 51.7873C33.2216 51.9213 33.0393 51.9954 32.8491 51.9954Z" fill="#1B75B4"/>
<path d="M39.5391 51.9952C39.143 51.9952 38.8217 51.6765 38.8217 51.2837V41.4481C38.8217 41.0553 39.143 40.7366 39.5391 40.7366C39.9352 40.7366 40.2565 41.0553 40.2565 41.4481V51.2837C40.2565 51.4723 40.1817 51.6531 40.0467 51.7871C39.9129 51.9211 39.7306 51.9952 39.5391 51.9952Z" fill="#1B75B4"/>
<path d="M51.9918 55.311C51.5957 55.311 51.2744 54.9923 51.2744 54.5995V51.9939H44.292V54.5995C44.292 54.9923 43.9707 55.311 43.5746 55.311C43.1785 55.311 42.8572 54.9923 42.8572 54.5995V51.2824C42.8572 50.8895 43.1785 50.5708 43.5746 50.5708H51.9918C52.182 50.5708 52.3643 50.6449 52.4994 50.7789C52.6344 50.9129 52.7092 51.0937 52.7092 51.2824V54.5995C52.7092 54.7881 52.6344 54.9689 52.4994 55.1029C52.3643 55.2356 52.182 55.311 51.9918 55.311Z" fill="#1B75B4"/>
<path d="M44.4966 51.9952C44.1005 51.9952 43.7792 51.6765 43.7792 51.2837V41.4481C43.7792 41.0553 44.1005 40.7366 44.4966 40.7366C44.8926 40.7366 45.214 41.0553 45.214 41.4481V51.2837C45.214 51.4723 45.1392 51.6531 45.0041 51.7871C44.869 51.9211 44.6867 51.9952 44.4966 51.9952Z" fill="#1B75B4"/>
<path d="M51.1852 51.9953C50.7892 51.9953 50.4678 51.6766 50.4678 51.2837V36.9916C50.4678 36.5987 50.7892 36.28 51.1852 36.28C51.5813 36.28 51.9026 36.5987 51.9026 36.9916V51.2837C51.9026 51.4724 51.8265 51.6532 51.6928 51.7872C51.5577 51.9211 51.3754 51.9953 51.1852 51.9953Z" fill="#1B75B4"/>
<path d="M16.1354 31.6555C15.7393 31.6555 15.418 31.3368 15.418 30.944V26.9609C15.418 26.7111 15.5505 26.4796 15.7669 26.3508L41.5064 11.0778C41.7319 10.9451 42.0139 10.9451 42.2395 11.0778L68.2675 26.3456C68.4852 26.473 68.619 26.7059 68.619 26.957V30.9297C68.619 31.1183 68.5429 31.2991 68.4092 31.4318C68.2741 31.5658 68.0918 31.6399 67.9016 31.6399H52.9636C52.5675 31.6399 52.2462 31.3212 52.2462 30.9284C52.2462 30.5355 52.5675 30.2168 52.9636 30.2168H67.1829V27.3615L41.8762 12.5204L16.8528 27.3602V30.2324H31.1875C31.5835 30.2324 31.9049 30.5511 31.9049 30.944C31.9049 31.3368 31.5835 31.6555 31.1875 31.6555H16.1354Z" fill="#1B75B4"/>
<path d="M28.4714 34.9558H20.0555C19.6594 34.9558 19.3381 34.6371 19.3381 34.2442V30.9271C19.3381 30.5343 19.6594 30.2156 20.0555 30.2156C20.4515 30.2156 20.7729 30.5343 20.7729 30.9271V33.5327H27.754V30.9271C27.754 30.5343 28.0753 30.2156 28.47 30.2156C28.8648 30.2156 29.1874 30.5343 29.1874 30.9271V34.2442C29.1874 34.4329 29.1127 34.6137 28.9776 34.7477C28.8438 34.8816 28.6615 34.9558 28.47 34.9558H28.4714Z" fill="#1B75B4"/>
<path d="M63.6366 34.9558H55.2273C54.8312 34.9558 54.5099 34.6371 54.5099 34.2442V30.9271C54.5099 30.5343 54.8312 30.2156 55.2273 30.2156C55.6234 30.2156 55.9447 30.5343 55.9447 30.9271V33.5327H62.9271V30.9271C62.9271 30.5343 63.2484 30.2156 63.6445 30.2156C64.0406 30.2156 64.3619 30.5343 64.3619 30.9271V34.2442C64.3619 34.4342 64.2858 34.6163 64.1494 34.7503C64.013 34.8842 63.8294 34.9584 63.6379 34.9558H63.6366Z" fill="#1B75B4"/>
<path d="M27.5494 51.9953C27.1533 51.9953 26.832 51.6766 26.832 51.2838V34.2443C26.832 33.8514 27.1533 33.5327 27.5494 33.5327C27.9454 33.5327 28.2668 33.8514 28.2668 34.2443V51.2838C28.2668 51.4724 28.192 51.6532 28.0569 51.7872C27.9218 51.9212 27.7395 51.9953 27.5494 51.9953Z" fill="#1B75B4"/>
<path d="M62.83 51.9316C62.434 51.9316 62.1126 51.6129 62.1126 51.22V34.2443C62.1126 33.8514 62.434 33.5327 62.83 33.5327C63.2261 33.5327 63.5474 33.8514 63.5474 34.2443V51.22C63.5474 51.4087 63.4727 51.5895 63.3376 51.7235C63.2025 51.8574 63.0202 51.9316 62.83 51.9316Z" fill="#1B75B4"/>
<path d="M56.1414 51.9953C55.7453 51.9953 55.424 51.6766 55.424 51.2838V34.2443C55.424 33.8514 55.7453 33.5327 56.1414 33.5327C56.5374 33.5327 56.8588 33.8514 56.8588 34.2443V51.2838C56.8588 51.4724 56.784 51.6532 56.6489 51.7872C56.5151 51.9212 56.3329 51.9953 56.1414 51.9953Z" fill="#1B75B4"/>
<path d="M20.8542 51.9953C20.4581 51.9953 20.1368 51.6766 20.1368 51.2838V34.2443C20.1368 33.8514 20.4581 33.5327 20.8542 33.5327C21.2502 33.5327 21.5716 33.8514 21.5716 34.2443V51.2838C21.5716 51.4724 21.4968 51.6532 21.3617 51.7872C21.2279 51.9212 21.0456 51.9953 20.8542 51.9953Z" fill="#1B75B4"/>
<path d="M42.0756 42.433C38.9975 42.433 36.0453 41.2206 33.8682 39.0612C31.6924 36.9019 30.4688 33.9737 30.4688 30.9207C30.4688 27.8676 31.6911 24.9395 33.8682 22.7814C36.0453 20.622 38.9975 19.4097 42.0756 19.4097C45.1536 19.4097 48.1058 20.622 50.2816 22.7814C52.4587 24.9408 53.681 27.8676 53.681 30.9207C53.6784 33.9724 52.4535 36.8993 50.2777 39.0573C48.1019 41.2154 45.151 42.4304 42.0742 42.433H42.0756ZM42.0756 20.8328C39.3778 20.8328 36.7902 21.8955 34.8833 23.7882C32.9764 25.6809 31.9049 28.2462 31.9049 30.922C31.9049 33.5978 32.9764 36.1643 34.8833 38.0557C36.7915 39.9471 39.3778 41.0099 42.0756 41.0099C44.7733 41.0099 47.3609 39.9471 49.2678 38.0557C51.1761 36.163 52.2462 33.5978 52.2462 30.922C52.2436 28.2475 51.1708 25.6835 49.2639 23.7921C47.357 21.9007 44.772 20.8367 42.0756 20.8341V20.8328Z" fill="#1B75B4"/>
<path d="M36.3495 70H6.51291C2.98366 70 0 67.0354 0 63.5245V6.37925C0.002623 4.67777 0.701653 3.04913 1.93709 1.86798C3.15547 0.671226 4.8014 0 6.51684 0H36.3535C38.0532 0.00780495 39.6807 0.684234 40.8795 1.87969C42.0782 3.07515 42.7497 4.69338 42.747 6.37925V11.524C42.747 11.9169 42.4257 12.2356 42.0296 12.2356C41.6336 12.2356 41.3122 11.9169 41.3122 11.524V6.37925C41.3149 5.06932 40.7942 3.81272 39.8644 2.88263C38.9345 1.95384 37.6702 1.42831 36.3495 1.4218H6.51291C3.76269 1.4218 1.43478 3.69825 1.43478 6.37795V63.5232C1.43478 66.2614 3.76269 68.5756 6.51684 68.5756H36.3535C39.0447 68.5756 41.3162 66.2627 41.3162 63.5232V58.3446C41.3162 57.9518 41.6375 57.6331 42.0336 57.6331C42.4296 57.6331 42.751 57.9518 42.751 58.3446V63.5232C42.747 67.0927 39.8775 69.9987 36.3495 69.9987V70Z" fill="#1B75B4"/>
<path d="M62.2556 63.0288H62.1127C61.7166 63.0288 61.3953 62.7101 61.3953 62.3173C61.3953 61.9244 61.7166 61.6057 62.1127 61.6057H62.2556C62.6517 61.6057 62.973 61.9244 62.973 62.3173C62.973 62.7101 62.6517 63.0288 62.2556 63.0288Z" fill="#1B75B4"/>
<path d="M42.1372 36.1539C39.7883 36.1539 38.242 34.9805 38.1883 33.1477C38.1764 32.7548 38.4873 32.427 38.8834 32.414C39.2794 32.4023 39.6099 32.7119 39.6217 33.1034C39.6663 34.602 41.4513 34.7412 42.2041 34.7295C42.9569 34.7178 43.6756 34.4303 44.0572 33.9958C44.3038 33.7148 44.4087 33.3389 44.3444 32.9721C44.2762 32.4491 43.9575 32.0563 42.6237 31.8403L42.2303 31.7792C41.0644 31.6049 39.7411 31.4072 38.8374 30.1389C38.4755 29.6394 38.3351 29.015 38.4519 28.4114C38.6276 27.5997 39.1181 26.8894 39.8171 26.4341C40.8217 25.7564 42.3654 25.6536 43.6506 26.1766C44.5857 26.5486 45.3281 27.2823 45.7045 28.2097C45.8356 28.5727 45.6533 28.9733 45.2913 29.1138C44.9294 29.2543 44.5202 29.0839 44.3694 28.7288C44.132 28.1655 43.6769 27.7206 43.1077 27.493C42.2605 27.1483 41.2427 27.1977 40.6224 27.6114C40.2434 27.8559 39.9719 28.2319 39.8617 28.6663C39.8145 28.894 39.867 29.132 40.0047 29.3193C40.528 30.0556 41.2716 30.2 42.4428 30.3743C42.5792 30.3951 42.7169 30.4159 42.8533 30.4381C43.5103 30.5434 45.509 30.8647 45.7622 32.7899C45.8776 33.5587 45.6468 34.3392 45.13 34.9246C44.4743 35.6778 43.3831 36.1357 42.2119 36.1513L42.1346 36.1552L42.1372 36.1539Z" fill="#1B75B4"/>
<path d="M42.1359 27.1963C41.7398 27.1963 41.4185 26.8776 41.4185 26.4848V24.4711C41.4185 24.0782 41.7398 23.7595 42.1359 23.7595C42.532 23.7595 42.8533 24.0782 42.8533 24.4711V26.4848C42.8533 26.6734 42.7785 26.8542 42.6434 26.9882C42.5097 27.1222 42.3274 27.1963 42.1359 27.1963Z" fill="#1B75B4"/>
<path d="M42.1359 38.2728C41.7398 38.2728 41.4185 37.9541 41.4185 37.5612V35.4357C41.4185 35.0428 41.7398 34.7241 42.1359 34.7241C42.532 34.7241 42.8533 35.0428 42.8533 35.4357V37.5612C42.8533 37.7498 42.7785 37.9307 42.6434 38.0646C42.5097 38.1986 42.3274 38.2728 42.1359 38.2728Z" fill="#1B75B4"/>
<path d="M24.2063 26.723C23.8837 26.723 23.5991 26.5109 23.5126 26.2026C23.426 25.893 23.5585 25.5652 23.8352 25.4013L41.505 14.8529C41.7306 14.7202 42.0126 14.7202 42.2382 14.8529L59.9605 25.1698C60.3015 25.3688 60.4156 25.8046 60.2149 26.1441C60.0142 26.4823 59.5749 26.5955 59.2326 26.3965L41.8762 16.2942L24.5762 26.6202C24.4647 26.6865 24.3375 26.723 24.2077 26.723H24.2063Z" fill="#1B75B4"/>
<path d="M60.3723 17.5C59.9762 17.5 59.6549 17.1813 59.6549 16.7885C59.6549 15.0389 58.9545 13.3608 57.7073 12.1237C56.4601 10.8866 54.7682 10.1907 53.0043 10.1907C52.6082 10.1907 52.2869 9.87198 52.2869 9.47913C52.2869 9.08628 52.6082 8.76758 53.0043 8.76758C55.1486 8.76758 57.2063 9.61311 58.7224 11.1169C60.2385 12.6206 61.091 14.6616 61.091 16.7885C61.091 16.9771 61.0149 17.1579 60.8811 17.2919C60.746 17.4259 60.5637 17.5 60.3736 17.5H60.3723Z" fill="#1B75B4"/>
<path d="M64.6701 17.5C64.274 17.5 63.9527 17.1813 63.9527 16.7885C63.9527 13.9085 62.7985 11.1455 60.746 9.10972C58.6935 7.07393 55.9079 5.92921 53.0043 5.92921C52.6082 5.92921 52.2869 5.6105 52.2869 5.21766C52.2869 4.82481 52.6082 4.5061 53.0043 4.5061C56.2883 4.5061 59.4372 5.80042 61.7598 8.10419C64.0825 10.4079 65.3874 13.5312 65.3874 16.7885C65.3874 16.9771 65.3127 17.1579 65.1776 17.2919C65.0438 17.4259 64.8615 17.5 64.6701 17.5Z" fill="#1B75B4"/>
<path d="M69.1685 17.5C68.7725 17.5 68.4511 17.1813 68.4511 16.7885C68.4511 12.7247 66.8236 8.82744 63.9265 5.95392C61.0294 3.08039 57.1001 1.46607 53.003 1.46607C52.6069 1.46607 52.2856 1.14737 52.2856 0.75452C52.2856 0.361671 52.6069 0.0429688 53.003 0.0429688C57.4804 0.0429688 61.7743 1.80689 64.9402 4.94708C68.1062 8.08727 69.8846 12.3462 69.8846 16.7872C69.8846 16.9758 69.8098 17.1566 69.6748 17.2906C69.541 17.4246 69.3587 17.4987 69.1672 17.4987L69.1685 17.5Z" fill="#1B75B4"/>
</g>
<defs>
<clipPath id="clip0_218_141">
<rect width="70" height="70" fill="white"/>
</clipPath>
</defs>
</svg>
