<svg width="76" height="66" viewBox="0 0 76 66" fill="none" xmlns="http://www.w3.org/2000/svg">
<g clip-path="url(#clip0_218_134)">
<path d="M62.0274 0H13.9726L0 29.6427L38 66L76 29.6427L62.0274 0Z" fill="#53AE94"/>
<path d="M43.2774 23.6137V17.8608H56.5326V9.09558H20.4391V17.8608H33.6954V23.6092C22.9216 24.0995 14.82 26.2179 14.82 28.7545C14.82 31.2912 22.9254 33.4092 33.6954 33.9052V52.332H43.282V33.9018C54.036 33.4092 62.1205 31.2931 62.1205 28.7583C62.1205 26.2235 54.036 24.1078 43.282 23.6152M43.282 32.3412V32.3363C43.0118 32.3532 41.6222 32.4362 38.5286 32.4362C36.0552 32.4362 34.3148 32.3664 33.7026 32.3347V32.3427C24.1817 31.924 17.0772 30.2789 17.0772 28.3106C17.0772 26.3423 24.1832 24.6995 33.6999 24.2805V30.7036C34.3235 30.7462 36.1065 30.8507 38.5673 30.8507C41.5234 30.8507 43.0095 30.7285 43.282 30.7036V24.2805C52.782 24.7002 59.8701 26.3468 59.8701 28.3084C59.8701 30.2699 52.7786 31.9172 43.282 32.337" fill="white"/>
</g>
<defs>
<clipPath id="clip0_218_134">
<rect width="76" height="66" fill="white"/>
</clipPath>
</defs>
</svg>
