<svg width="69" height="69" viewBox="0 0 69 69" fill="none" xmlns="http://www.w3.org/2000/svg">
<g clip-path="url(#clip0_218_124)">
<path d="M6.59498 44.3044H13.19V50.868H6.59498V44.3044ZM0 37.7408H19.7849V57.4316H0V37.7408ZM3.29749 54.1498H16.4875V41.0226H3.29749V54.1498ZM51.1111 6.56361H44.5161V13.1272H51.1111V6.56361ZM57.7061 19.6908H37.9211V0H57.7061V19.6908ZM54.4086 3.28181H41.2186V16.409H54.4086V3.28181ZM13.19 6.56361H6.59498V13.1272H13.19V6.56361ZM19.7849 19.6908H0V0H19.7849V19.6908ZM16.4875 3.28181H3.29749V16.409H16.4875V3.28181ZM18.1362 21.824H0.412186V35.5256H2.8853V24.2854H18.1362V21.824ZM7.66667 34.6231V27.9774H3.70968V30.4388H5.19355V34.6231H7.66667ZM11.129 27.4031H21.7634V24.9417H8.65591V35.4435H11.129V27.4031ZM28.4409 27.4031H32.81V24.9417H28.4409V14.522H25.9677V18.0499H22.6703V20.5113H25.9677V34.2128H17.0645V31.5874H14.5914V36.6742H28.4409V27.4046V27.4031ZM23.9068 6.7277H29.8423V2.87158H33.9642V15.2604H36.4373V0.410226H22.6703V2.87158H27.3692V4.26635H21.4337V12.3068H23.9068V6.7277ZM24.9785 9.76338H30.172V20.2652H32.6452V7.30202H24.9785V9.76338ZM36.4373 18.0499H33.9642V21.824H31.3262V24.2854H36.4373V18.0499ZM14.0968 30.5208H18.9606V32.1617H21.4337V28.0595H11.6237V35.5256H14.0968V30.5208ZM24.1541 21.824H20.0323V24.2854H24.1541V21.824ZM23.9068 13.7015H21.4337V16.409H23.9068V13.7015ZM28.1111 13.5375V11.0761H25.638V13.5375H28.1111ZM22.2581 26.1724V33.6385H24.7312V26.1724H22.2581ZM4.61649 24.9417V27.4031H7.41936V24.9417H4.61649ZM33.9642 54.56H23.9068V38.7253H21.4337V57.1035H36.4373V49.6373H33.9642V54.56ZM33.0573 43.8942H25.638V52.8371H28.1111V46.3555H30.5842V51.3603H33.0573V43.8942ZM29.3477 39.956H25.638V42.4174H29.3477V39.956ZM32.5627 33.6385H30.0896V41.1867H32.5627V33.6385ZM31.3262 32.0797H37.8387V29.6183H31.3262V32.0797ZM36.4373 28.6338V26.1724H33.9642V28.6338H36.4373ZM34.6237 38.6433H41.4659V36.1819H34.6237V38.6433ZM30.0072 54.0678H31.7384V51.6064H30.0072V54.0678ZM38.3333 21.4958V33.6385H40.8065V21.4958H38.3333ZM45.3405 21.824H42.5376V24.2854H45.3405V21.824ZM48.3082 41.1867V23.0547H45.8351V41.1867H48.3082ZM42.1254 31.0951H42.7025V38.6433H45.1756V28.6338H42.1254V31.0951ZM45.1756 27.4031V26.1724H42.7025V27.4031H45.1756ZM43.0323 39.956H35.2007V42.4174H43.0323V39.956ZM51.1935 25.0238H48.7204V33.1463H51.1935V25.0238ZM57.4588 20.2652H48.8029V22.7265H57.4588V20.2652ZM53.0896 24.9417V27.4031H55.0681V24.9417H53.0896ZM57.4588 28.6338H53.0896V31.0951H57.4588V28.6338ZM54.8208 32.3258V33.3924H52.4301V35.8537H57.2939V32.3258H54.8208ZM38.3333 55.7907H39.2401C39.2401 54.396 39.405 53.0012 39.8172 51.6885H38.3333V55.7907ZM36.4373 46.0273V44.2224H33.9642V48.4887H41.0538C41.466 47.5862 41.9606 46.7658 42.6201 46.0273H36.4373ZM53.4194 38.6433H57.4588V36.1819H50.9462V40.1201C51.7706 39.874 52.595 39.7099 53.4194 39.6278V38.6433ZM45.4229 42.9917H42.4552V45.453H42.9498C43.6918 44.5505 44.5161 43.7301 45.4229 42.9917ZM69 55.7907C69 63.0927 63.0645 69 55.7276 69C48.3907 69 42.4552 63.0927 42.4552 55.7907C42.4552 48.4887 48.3907 42.5815 55.7276 42.5815C63.0645 42.5815 69 48.4887 69 55.7907ZM66.5269 55.7907C66.5269 49.8835 61.6631 45.0428 55.7276 45.0428C49.7921 45.0428 44.9283 49.8835 44.9283 55.7907C44.9283 61.698 49.7921 66.5386 55.7276 66.5386C61.6631 66.5386 66.5269 61.698 66.5269 55.7907ZM60.4265 51.0321H56.9642V53.4935H60.4265C61.6631 53.4935 62.7348 54.56 62.7348 55.7907C62.7348 57.0214 61.6631 58.088 60.4265 58.088H56.9642V60.5493H60.4265C63.0645 60.5493 65.2079 58.4162 65.2079 55.7907C65.2079 53.1653 63.0645 51.0321 60.4265 51.0321ZM48.7204 55.7907C48.7204 54.56 49.7921 53.4935 51.0287 53.4935H54.491V51.0321H51.0287C48.3907 51.0321 46.2473 53.1653 46.2473 55.7907C46.2473 58.4162 48.3907 60.5493 51.0287 60.5493H54.491V58.088H51.0287C49.7921 58.088 48.7204 57.1034 48.7204 55.7907ZM59.19 55.7907C59.19 55.1344 58.6129 54.56 57.9534 54.56H53.6667C53.0072 54.56 52.4301 55.1344 52.4301 55.7907C52.4301 56.4471 53.0072 57.0214 53.6667 57.0214H57.9534C58.6129 57.0214 59.19 56.4471 59.19 55.7907Z" fill="#1B75B4"/>
</g>
<defs>
<clipPath id="clip0_218_124">
<rect width="69" height="69" fill="white"/>
</clipPath>
</defs>
</svg>
