<svg width="68" height="51" viewBox="0 0 68 51" fill="none" xmlns="http://www.w3.org/2000/svg">
<g clip-path="url(#clip0_224_36)">
<path d="M68 0L44.9619 5.33252C45.4282 6.02002 45.8292 6.747 46.1623 7.50529L53.6465 5.76953L46.7687 9.1757C46.9991 9.97347 47.1545 10.7889 47.2336 11.6139L53.8463 8.33845L44.7343 14.6484C45.2713 11.2504 44.2028 7.79662 41.8311 5.26309C39.8022 3.09578 36.9407 1.86237 33.9403 1.86237C30.94 1.86237 28.0785 3.09578 26.0496 5.26309C24.0942 7.35145 23.0104 10.0824 23.0104 12.9181C23.0104 15.7539 24.0942 18.4848 26.0496 20.5732C27.5345 22.1592 29.4801 23.2578 31.6228 23.7234L18.9914 32.4716L15.3999 42.3321V27.3719L24.7964 22.7241C24.6132 22.5485 24.4342 22.3688 24.2607 22.185C23.8694 21.7657 23.5044 21.3233 23.17 20.8591L14.3799 25.21L5.0778 17.0159L20.5929 13.4232C20.5624 12.5968 20.6082 11.7678 20.7303 10.9482L0 15.7416L12.9727 27.1704V51L26.1592 38.7816L34.8729 46.4584L68 0ZM32.7288 4.33191V6.05814C31.5784 6.54143 30.7013 7.49303 30.3252 8.66246C29.9491 9.83325 30.1115 11.1061 30.7693 12.149C31.4285 13.1918 32.5179 13.9024 33.753 14.093C34.3178 14.1815 34.8091 14.5191 35.088 15.0092C35.3669 15.4993 35.4002 16.0874 35.181 16.6047C34.9617 17.1221 34.5121 17.5128 33.9611 17.6653C33.4102 17.8177 32.819 17.7129 32.3583 17.3835C31.8171 17.0241 31.0829 17.1507 30.6985 17.668C30.3127 18.1853 30.414 18.9082 30.9261 19.3057C31.4604 19.6883 32.0766 19.9442 32.7288 20.0545V21.5016C30.8512 21.2294 29.1276 20.3322 27.8439 18.9613C26.2993 17.3127 25.4431 15.1549 25.4431 12.9168C25.4431 10.6787 26.2993 8.52087 27.8439 6.87224C29.1276 5.50134 30.8526 4.60419 32.7288 4.33191ZM35.1574 4.33191C37.035 4.60419 38.7586 5.50134 40.0437 6.87224C41.2899 8.20367 42.0948 9.87409 42.3529 11.6629C42.611 13.4532 42.3099 15.276 41.4897 16.8947L35.1574 21.2784V19.7754C36.3078 19.2921 37.1849 18.3405 37.561 17.1711C37.9371 16.0003 37.7747 14.7274 37.1169 13.6846C36.4577 12.6418 35.3697 11.9311 34.1332 11.7405C33.5684 11.652 33.0771 11.3144 32.7982 10.8243C32.5193 10.3342 32.486 9.74748 32.7052 9.22879C32.9245 8.71147 33.3741 8.31939 33.9251 8.16828C34.4746 8.01716 35.0658 8.12063 35.5279 8.45008C36.0678 8.78907 36.7838 8.65701 37.1627 8.14786C37.5402 7.64006 37.45 6.92942 36.9559 6.52782C36.423 6.14663 35.8082 5.88933 35.1588 5.77906V4.33191H35.1574ZM60.0926 6.93214L34.4552 42.8875L22.8813 32.6922L60.0926 6.93214ZM20.9454 34.1897L24.3412 37.182L17.5676 43.4593L20.9454 34.191V34.1897Z" fill="#1B75B4"/>
</g>
<defs>
<clipPath id="clip0_224_36">
<rect width="68" height="51" fill="white"/>
</clipPath>
</defs>
</svg>
