<svg width="54" height="67" viewBox="0 0 54 67" fill="none" xmlns="http://www.w3.org/2000/svg">
<g clip-path="url(#clip0_218_132)">
<path d="M6.35596 23.2899C7.12739 23.2899 7.85336 23.5938 8.39749 24.1419C8.943 24.6928 9.24331 25.4226 9.24331 26.1997C9.24331 26.5314 9.37418 26.8491 9.60561 27.0836C9.83841 27.3181 10.1539 27.45 10.4817 27.45H43.514C44.1987 27.45 44.7524 26.8894 44.7524 26.2025C44.7524 24.597 46.0487 23.2913 47.6425 23.2899C48.3272 23.2899 48.881 22.7307 48.881 22.0424V9.56628C48.881 8.87663 48.3258 8.3188 47.6425 8.3188C46.0501 8.3188 44.7524 7.01166 44.7524 5.40618C44.7524 4.71653 44.1973 4.15871 43.514 4.15871H10.4831C9.79846 4.15871 9.24469 4.71792 9.24469 5.40618C9.24469 7.01166 7.94841 8.3188 6.35459 8.3188C6.02535 8.3188 5.71127 8.44924 5.47846 8.68236C5.24566 8.91826 5.11617 9.23463 5.11617 9.56628V22.0438C5.11617 22.732 5.6727 23.2899 6.35596 23.2899ZM42.4202 6.65365C42.8859 8.63657 44.437 10.2004 46.4041 10.668V20.9406C44.4384 21.411 42.8859 22.9749 42.4189 24.9536H29.7633C33.6549 23.7575 36.4954 20.1094 36.4954 15.805C36.4954 11.5006 33.6549 7.85117 29.7633 6.65504H42.4202V6.65365ZM34.0186 15.8036C34.0186 19.7015 30.8695 22.8736 26.9999 22.875C23.129 22.875 19.9799 19.7029 19.9799 15.8036C19.9799 11.9058 23.129 8.7337 26.9999 8.7337C30.8709 8.7337 34.0186 11.9058 34.0186 15.8036ZM7.593 10.668C9.56015 10.199 11.1113 8.63657 11.5783 6.65365H24.2366C20.345 7.84979 17.5031 11.4978 17.5031 15.8036C17.5031 20.1094 20.3422 23.7561 24.2338 24.9522H11.5796C11.3537 23.9865 10.8661 23.0984 10.1511 22.3768C9.43617 21.6566 8.55453 21.164 7.59438 20.9365V10.668H7.593ZM24.1388 18.1418C23.5285 18.1418 23.0422 18.9522 23.0422 19.5058C23.0422 20.5438 24.6237 21.5484 26.5577 21.6136V22.0202C26.5577 22.2478 26.8153 22.4587 27.1694 22.4587C27.4752 22.4587 27.7824 22.2478 27.7824 22.0188V21.5484C29.6669 21.239 30.9563 20.0248 30.9576 18.01C30.9576 15.8161 29.2481 15.0557 27.7824 14.5034V12.1348C28.828 12.2152 29.1324 12.7356 29.6669 12.7356C30.3763 12.7356 30.6656 11.8406 30.6656 11.4063C30.6656 10.2837 28.7797 10.0242 27.7824 9.99228V9.58848C27.7824 9.35813 27.4752 9.14999 27.1694 9.14999C26.8153 9.14999 26.5577 9.35952 26.5577 9.58848V10.0436C24.8482 10.2837 23.3329 11.2717 23.3329 13.3351C23.3329 15.3985 25.0727 16.1131 26.5577 16.6778V19.3102C25.3634 19.0951 24.8179 18.1404 24.1388 18.1404V18.1418ZM27.6198 17.1177C28.2012 17.3966 28.602 17.7366 28.602 18.2708C28.602 18.8564 28.1695 19.1645 27.6198 19.2963V17.1177ZM25.6871 13.0908C25.6871 12.7023 25.9943 12.3318 26.7189 12.1819V14.1177C26.1073 13.8568 25.6871 13.5668 25.6871 13.0922V13.0908ZM15.8239 51.6598V52.0664C15.8239 52.2926 16.0815 52.5049 16.4355 52.5049C16.7413 52.5049 17.0485 52.2926 17.0485 52.065V51.5946C18.933 51.2852 20.2224 50.071 20.2238 48.0562C20.2238 45.8637 18.5142 45.1019 17.0485 44.5496V42.181C18.0941 42.2601 18.3985 42.7818 18.933 42.7818C19.6424 42.7818 19.9317 41.8868 19.9317 41.4511C19.9317 40.3299 18.0459 40.0704 17.0485 40.0385V39.6347C17.0485 39.4043 16.7413 39.1962 16.4355 39.1962C16.0815 39.1962 15.8239 39.4057 15.8239 39.6347V40.0898C14.1143 40.3299 12.6004 41.3179 12.6004 43.3813C12.6004 45.4447 14.3402 46.1565 15.8239 46.7241V49.3564C14.6295 49.1427 14.084 48.1866 13.4049 48.1866C12.7946 48.1866 12.3084 48.9984 12.3084 49.552C12.3084 50.59 13.8898 51.5946 15.8239 51.6598ZM16.8846 47.1625C17.4645 47.4415 17.8668 47.7814 17.8668 48.3157C17.8668 48.8998 17.4342 49.2093 16.8846 49.3397V47.1625ZM14.9519 43.1343C14.9519 42.7471 15.2591 42.3752 15.9837 42.2268V44.1625C15.372 43.9016 14.9519 43.6116 14.9519 43.1343ZM38.519 40.3909V38.0237C39.5646 38.1027 39.869 38.6245 40.4035 38.6245C41.113 38.6245 41.4022 37.7295 41.4022 37.2938C41.4022 36.1726 39.5164 35.9131 38.519 35.8812V35.476C38.519 35.247 38.2118 35.0375 37.906 35.0375C37.552 35.0375 37.2944 35.247 37.2944 35.476V35.9311C35.5848 36.1726 34.0709 37.1592 34.0709 39.224C34.0709 41.2887 35.8108 41.9992 37.2944 42.5667V45.1991C36.1 44.984 35.5545 44.0293 34.8754 44.0293C34.2651 44.0293 33.7789 44.8397 33.7789 45.3933C33.7789 46.4313 35.3603 47.4373 37.2944 47.5025V47.9077C37.2944 48.1353 37.5534 48.3462 37.906 48.3462C38.2118 48.3462 38.519 48.1353 38.519 47.9063V47.4373C40.4035 47.1265 41.6929 45.9137 41.6943 43.8975C41.6943 41.705 39.9834 40.9432 38.519 40.3909ZM37.4542 40.0038C36.8425 39.7415 36.4224 39.4529 36.4224 38.977C36.4224 38.5884 36.7296 38.2179 37.4542 38.0694V40.0038ZM38.3551 45.1824V43.0038C38.935 43.2827 39.3373 43.6213 39.3373 44.157C39.3373 44.7425 38.9061 45.0506 38.3551 45.1824ZM53.0122 38.68V34.5213V5.40618C53.0122 2.42557 50.6043 0 47.6453 0H6.35459C3.39561 0 0.986269 2.42557 0.986269 5.40618V38.68C0.986269 41.6606 3.39423 44.0876 6.35321 44.0876H6.58739L6.8629 44.5941C6.80642 45.0048 6.76647 45.4225 6.76647 45.8485C6.76647 46.57 6.85326 47.2708 7.00479 47.9452C6.85739 48.6209 6.76647 49.3106 6.76647 50.0058C6.76647 55.2815 11.0259 59.5721 16.2633 59.5721C19.017 59.5721 21.4925 58.3773 23.2296 56.486C23.3701 56.5942 23.5409 56.6608 23.7241 56.6608C24.0272 56.6608 24.3041 56.4957 24.4487 56.2279L25.7918 53.7524L28.2494 52.3994C28.3486 52.3453 28.4271 52.269 28.4932 52.183C28.766 53.3569 29.2577 54.4406 29.9148 55.4064L29.9121 55.4092L27.4545 56.7621C27.19 56.9078 27.0247 57.1881 27.0247 57.492C27.0247 57.7959 27.19 58.0762 27.4545 58.2219L29.9121 59.5748L31.2552 62.049C31.3998 62.3168 31.6781 62.4819 31.9798 62.4819C32.2815 62.4819 32.5597 62.3168 32.7044 62.049L34.0475 59.5748L34.874 59.1197C35.7763 59.4083 36.7337 59.5707 37.7311 59.5707C42.9671 59.5707 47.2279 55.2801 47.2279 50.0044C47.2279 49.3092 47.1384 48.6196 46.9896 47.9438C47.1411 47.2666 47.2279 46.5673 47.2279 45.8471C47.2279 45.2532 47.1549 44.6648 47.0474 44.0848H47.6412C50.6001 44.0848 53.0081 41.6592 53.0081 38.6786L53.0122 38.68ZM44.9591 40.7684L44.6629 40.6046L43.6146 40.0274L44.4328 39.5764L44.9591 39.285C45.0968 39.2087 45.2112 39.0949 45.2869 38.9548L46.0225 37.6018L46.7568 38.9548C46.8325 39.0949 46.9469 39.2073 47.086 39.2864L48.1784 39.8886L48.4291 40.0274L47.1756 40.7184L47.0846 40.7684C46.9469 40.8447 46.8325 40.9585 46.7568 41.1L46.0212 42.453L45.2856 41.1C45.2098 40.9599 45.0955 40.8447 44.9577 40.7698L44.9591 40.7684ZM47.8037 37.4173L46.9083 35.7688H47.6439C48.6909 35.7688 49.6662 35.4607 50.4927 34.9362C50.2985 36.2919 49.1826 37.3396 47.8037 37.4173ZM47.6439 33.2738H42.2412C40.8994 32.5412 39.3648 32.1249 37.7352 32.1249C36.1056 32.1249 34.5696 32.5412 33.2278 33.2738H6.35459C4.90265 33.2738 3.70969 32.1859 3.50581 30.7775C4.33234 31.3034 5.30627 31.6101 6.35459 31.6101H47.6439C48.6909 31.6101 49.6662 31.302 50.4927 30.7775C50.2902 32.1859 49.0972 33.2738 47.6439 33.2738ZM3.46448 5.40757C3.46448 3.80348 4.76076 2.49633 6.35459 2.49633H47.6425C49.235 2.49633 50.5326 3.80348 50.5326 5.40757V26.2039C50.5326 27.8094 49.2364 29.1151 47.6425 29.1151H6.35321C4.76076 29.1151 3.46311 27.8094 3.46311 26.2039V5.40757H3.46448ZM3.78683 39.976C3.65183 39.7027 3.55127 39.4085 3.50581 39.0963C3.81851 39.2933 4.15739 39.4501 4.50591 39.5806L3.78683 39.9774V39.976ZM5.62724 40.86L6.97173 40.119C7.05851 40.0704 7.13152 40.0038 7.19489 39.9275C7.23208 39.8831 7.27066 39.8401 7.29959 39.7873L8.0352 38.4344L8.76943 39.7873C8.8452 39.9275 8.95953 40.0399 9.09867 40.119L10.4432 40.86L9.09867 41.6009C8.96091 41.6773 8.84657 41.7924 8.77081 41.9326L8.0352 43.2855L7.29959 41.9326C7.22382 41.7924 7.10948 41.6773 6.97173 41.6009L6.95657 41.5912L5.62586 40.86H5.62724ZM9.24469 45.8499C9.24469 45.2504 9.32734 44.669 9.46785 44.1125L10.1029 42.9442L12.5605 41.5885C12.8263 41.4428 12.9902 41.1638 12.9902 40.86C12.9902 40.5561 12.8249 40.2758 12.5605 40.1287L12.3276 40.001C13.4517 39.2323 14.8059 38.7799 16.2647 38.7799C20.1356 38.7799 23.2833 41.9534 23.2833 45.8512C23.2833 46.2023 23.2489 46.545 23.1993 46.8822C23.1208 46.9488 23.0505 47.0238 22.9995 47.1168L21.6564 49.5923L19.1989 50.9452C18.9344 51.0909 18.7691 51.3698 18.7691 51.6751C18.7691 51.9304 18.8917 52.1635 19.0859 52.3203C18.2208 52.7047 17.2675 52.9226 16.2619 52.9226C12.3924 52.9226 9.24331 49.7505 9.24331 45.8512L9.24469 45.8499ZM23.7076 39.9275H28.4064C28.3059 40.4673 28.248 41.0223 28.2425 41.5912H24.7545C24.4597 40.9987 24.1112 40.4423 23.7062 39.9275H23.7076ZM16.2633 57.0799C13.4145 57.0799 10.9611 55.3592 9.86321 52.8948C11.5535 54.4559 13.7961 55.4161 16.2633 55.4161C18.2484 55.4161 20.0846 54.7861 21.6082 53.7302L21.6564 53.7551L21.892 54.1909C20.6136 55.9351 18.5762 57.0799 16.2633 57.0799ZM25.5521 51.9929L24.789 52.4147C24.6512 52.491 24.5369 52.6048 24.4597 52.7463L23.7241 54.0993L22.9885 52.7463C22.9127 52.6048 22.7984 52.491 22.6593 52.4147L21.3148 51.6737L22.6593 50.9313C22.797 50.855 22.9114 50.7412 22.9885 50.6011L23.7241 49.2481L24.4584 50.6011C24.5341 50.7412 24.6485 50.8536 24.7876 50.9327L25.6472 51.4045L26.1321 51.6737L25.5521 51.9929ZM28.2494 50.9424L25.7918 49.5909L25.7285 49.4715C25.6954 48.9581 25.632 48.4489 25.5246 47.9493C25.6747 47.2722 25.7629 46.5728 25.7629 45.8526C25.7629 45.2504 25.7009 44.6607 25.5935 44.0903H28.4202C28.3114 44.6704 28.2397 45.2587 28.2397 45.8526C28.2397 46.5742 28.3265 47.2749 28.4781 47.9493C28.3307 48.6251 28.2397 49.3147 28.2397 50.0099C28.2397 50.3347 28.2563 50.6552 28.288 50.9702C28.2728 50.9632 28.2632 50.9508 28.2508 50.9424H28.2494ZM29.2426 37.4339H20.7707C19.4289 36.7026 17.8943 36.285 16.2633 36.285C14.6323 36.285 13.0977 36.7026 11.7573 37.4339H9.37418L8.75979 36.303C8.61515 36.0338 8.33688 35.8687 8.0352 35.8687C7.73351 35.8687 7.45525 36.0338 7.31061 36.303L6.69622 37.4339H6.35321C4.90127 37.4339 3.70831 36.346 3.50443 34.9376C4.33096 35.4635 5.30489 35.7702 6.35321 35.7702H30.2895C29.8845 36.2836 29.5346 36.8414 29.2412 37.4339H29.2426ZM33.046 58.2372C33.024 58.2497 33.0061 58.2691 32.984 58.2843C32.8752 58.3579 32.7801 58.4509 32.7168 58.5674L31.9812 59.9217L31.2456 58.5688C31.1698 58.4287 31.0555 58.3163 30.9177 58.2372L29.5732 57.4962L30.9177 56.7552C30.9397 56.7427 30.9576 56.7233 30.9783 56.708C31.0871 56.6345 31.1822 56.5415 31.2456 56.4249L31.9812 55.072L32.7154 56.4249C32.7912 56.5651 32.9055 56.6803 33.0446 56.7566L34.3891 57.4976L33.0446 58.2372H33.046ZM37.7338 57.0799C37.406 57.0799 37.0864 57.0507 36.7709 57.0063C36.7007 56.9106 36.6152 56.8246 36.5078 56.7649L34.0502 55.412L33.502 54.4004C34.7762 55.047 36.213 55.4161 37.7352 55.4161C40.2024 55.4161 42.4464 54.4559 44.1353 52.8948C43.036 55.3578 40.5826 57.0799 37.7338 57.0799ZM37.7338 52.9212C34.885 52.9212 32.4302 51.2005 31.3323 48.7361C33.0226 50.2944 35.2666 51.2574 37.7338 51.2574C40.201 51.2574 42.445 50.2958 44.1339 48.7361C43.0346 51.1991 40.5812 52.9212 37.7338 52.9212ZM37.7338 48.7611C33.8629 48.7611 30.7152 45.589 30.7152 41.6911C30.7152 37.7933 33.8643 34.6198 37.7338 34.6198C40.2837 34.6198 42.5153 36.0019 43.7455 38.057L41.4959 39.2975C41.2314 39.4432 41.0661 39.7221 41.0661 40.0274C41.0661 40.3327 41.2314 40.6102 41.4959 40.7559L43.9535 42.1088L44.5747 43.255C43.8653 46.4021 41.0703 48.7597 37.7338 48.7597V48.7611ZM16.5071 62.0087V66.1674C16.5071 66.6281 16.138 66.9986 15.682 66.9986C15.226 66.9986 14.8555 66.6267 14.8555 66.1674V62.0087C14.8555 61.548 15.2246 61.1775 15.682 61.1775C16.138 61.1775 16.5071 61.5494 16.5071 62.0087ZM9.43754 60.5392L8.61239 61.981C8.45948 62.246 8.18259 62.3973 7.89606 62.3973C7.75693 62.3973 7.61504 62.3612 7.48418 62.2849C7.08882 62.0559 6.95382 61.548 7.18112 61.1498L8.00765 59.708C8.23494 59.3098 8.73775 59.1738 9.13586 59.4028C9.52984 59.6345 9.66484 60.1424 9.43754 60.5406V60.5392ZM5.11617 53.2237C5.34346 53.6233 5.20846 54.1312 4.81311 54.3601L1.23698 56.4388C1.10749 56.5151 0.964228 56.5512 0.825096 56.5512C0.539942 56.5512 0.263055 56.4027 0.108769 56.1349C-0.118527 55.7353 0.0164731 55.2274 0.41183 54.9985L3.98795 52.9198C4.38193 52.6881 4.88749 52.8254 5.11617 53.2223V53.2237ZM2.22606 46.681C1.7701 46.681 1.39953 46.3092 1.39953 45.8499C1.39953 45.3906 1.76872 45.0187 2.22606 45.0187H3.87775C4.33372 45.0187 4.7029 45.3906 4.7029 45.8499C4.7029 46.3092 4.33372 46.681 3.87775 46.681H2.22606ZM39.1431 62.0087V66.1674C39.1431 66.6281 38.7739 66.9986 38.3165 66.9986C37.8592 66.9986 37.4914 66.6267 37.4914 66.1674V62.0087C37.4914 61.548 37.8606 61.1775 38.3165 61.1775C38.7725 61.1775 39.1431 61.5494 39.1431 62.0087ZM46.8174 61.1498C47.0447 61.548 46.9097 62.0559 46.5143 62.2849C46.3835 62.3612 46.2416 62.3973 46.1024 62.3973C45.8173 62.3973 45.5404 62.2474 45.3861 61.981L44.561 60.5392C44.3337 60.141 44.4687 59.6331 44.864 59.4028C45.2594 59.1738 45.7636 59.3098 45.9922 59.708L46.8174 61.1484V61.1498ZM53.887 56.1363C53.7341 56.4041 53.4572 56.5526 53.1707 56.5526C53.0315 56.5526 52.8896 56.5165 52.7588 56.4402L49.1826 54.3615C48.7873 54.1326 48.6523 53.6247 48.8796 53.2251C49.1083 52.8268 49.6111 52.6908 50.0078 52.9212L53.5839 54.9998C53.9793 55.2302 54.1143 55.7381 53.8856 56.1377L53.887 56.1363ZM51.7711 45.0173C52.227 45.0173 52.5976 45.3892 52.5976 45.8485C52.5976 46.3078 52.2284 46.6797 51.7711 46.6797H50.1194C49.6634 46.6797 49.2942 46.3078 49.2942 45.8485C49.2942 45.3892 49.6634 45.0173 50.1194 45.0173H51.7711Z" fill="#1B75B4"/>
</g>
<defs>
<clipPath id="clip0_218_132">
<rect width="54" height="67" fill="white"/>
</clipPath>
</defs>
</svg>
