<?xml version="1.0" encoding="utf-8"?>
<!-- Generator: Adobe Illustrator 27.4.1, SVG Export Plug-In . SVG Version: 6.00 Build 0)  -->
<svg version="1.1" id="Capa_1" xmlns="http://www.w3.org/2000/svg" xmlns:xlink="http://www.w3.org/1999/xlink" x="0px" y="0px"
	 viewBox="0 0 76 64" style="enable-background:new 0 0 76 64;" xml:space="preserve">
<style type="text/css">
	.st0{clip-path:url(#SVGID_00000023998155732675946490000004980355665595964321_);}
	.st1{fill:#53AE94;}
	.st2{fill:#FFFFFF;}
</style>
<g>
	<defs>
		<rect id="SVGID_1_" x="2.4" y="1" width="71.3" height="61.9"/>
	</defs>
	<clipPath id="SVGID_00000009590899345937776730000003100312985511832455_">
		<use xlink:href="#SVGID_1_"  style="overflow:visible;"/>
	</clipPath>
	<g style="clip-path:url(#SVGID_00000009590899345937776730000003100312985511832455_);">
		<path class="st1" d="M60.5,1H15.5L2.4,28.9L38,63l35.6-34.1L60.5,1z"/>
		<path class="st2" d="M43,23.2v-5.4h12.4V9.6H21.5v8.2H34v5.4c-10.1,0.5-17.7,2.4-17.7,4.8c0,2.4,7.6,4.4,17.7,4.8v17.3h9V32.8
			C53,32.4,60.6,30.4,60.6,28S53,23.7,43,23.2 M43,31.4L43,31.4c-0.3,0-1.6,0.1-4.5,0.1c-2.3,0-4-0.1-4.5-0.1v0
			C25,31,18.4,29.4,18.4,27.6c0-1.8,6.7-3.4,15.6-3.8v6c0.6,0,2.3,0.1,4.6,0.1c2.8,0,4.2-0.1,4.4-0.1v-6c8.9,0.4,15.6,1.9,15.6,3.8
			C58.5,29.4,51.9,31,43,31.4"/>
	</g>
</g>
</svg>
