<?xml version="1.0" encoding="utf-8"?>
<!-- Generator: Adobe Illustrator 27.4.1, SVG Export Plug-In . SVG Version: 6.00 Build 0)  -->
<svg version="1.1" id="Capa_1" xmlns="http://www.w3.org/2000/svg" xmlns:xlink="http://www.w3.org/1999/xlink" x="0px" y="0px"
	 viewBox="0 0 98 64" style="enable-background:new 0 0 98 64;" xml:space="preserve">
<style type="text/css">
	.st0{clip-path:url(#SVGID_00000104703205383871994820000014697262722727285637_);}
	.st1{fill-rule:evenodd;clip-rule:evenodd;fill:#1B75B4;}
</style>
<g>
	<defs>
		<rect id="SVGID_1_" x="11.4" y="2.8" width="75.3" height="58.4"/>
	</defs>
	<clipPath id="SVGID_00000000938888805176041140000010530268235352284040_">
		<use xlink:href="#SVGID_1_"  style="overflow:visible;"/>
	</clipPath>
	<g style="clip-path:url(#SVGID_00000000938888805176041140000010530268235352284040_);">
		<path class="st1" d="M81.6,2.8c-0.3,0-0.6,0.3-0.6,0.7c0,0.4,0.3,0.7,0.6,0.7l2,0l-5.1,5.4c-0.5-0.4-1.2-0.7-1.9-0.7
			c-1.7,0-3.2,1.5-3.2,3.3c0,0.6,0.1,1.2,0.4,1.7l-5.7,4.5c-0.6-0.6-1.3-1-2.2-1c-1.7,0-3.2,1.5-3.2,3.3c0,0.3,0.1,0.7,0.1,1l-5.5,6
			c-0.6-0.6-1.3-1-2.2-1c-1.7,0-3.2,1.5-3.2,3.3c0,0.4,0.1,0.8,0.2,1.2L47,34.8c-0.6-0.7-1.4-1.2-2.3-1.2c-1.7,0-3.2,1.5-3.2,3.3
			c0,0.2,0,0.3,0,0.5l-4.9,2.1c-0.5-1-1.5-1.6-2.6-1.6c-1.7,0-3.2,1.5-3.2,3.4c0,0.5,0.1,1,0.3,1.5l-5.3,5.9c0,0,0,0,0,0
			c0,0,0,0,0,0.1c0,0,0,0,0,0.1c0,0,0,0.1,0,0.1c0,0,0,0,0,0.1c0,0,0,0,0,0.1c0,0.1,0,0.1,0,0.2c0,0.1,0,0.1,0.1,0.2c0,0,0,0,0,0.1
			c0,0,0,0,0,0.1c0,0,0.1,0.1,0.1,0.1c0,0,0,0,0.1,0c0,0,0,0,0.1,0c0,0,0,0,0.1,0c0,0,0.1,0,0.1,0c0,0,0.1,0,0.1,0c0,0,0,0,0.1,0
			c0.1,0,0.2-0.1,0.3-0.2l5.2-5.8c0.5,0.5,1.2,0.8,2,0.9c1.7,0,3.2-1.5,3.2-3.4c0-0.2,0-0.4,0-0.5l4.9-2.1c0.5,1,1.5,1.6,2.6,1.7
			c1.7,0,3.2-1.5,3.2-3.3c0-0.4-0.1-0.7-0.1-1l5.4-3.7c0.6,0.6,1.4,1.1,2.2,1.1c1.7,0,3.2-1.5,3.2-3.3c0-0.4-0.1-0.8-0.2-1.2
			l5.4-5.9c0.6,0.7,1.4,1.2,2.3,1.2c1.7,0,3.2-1.5,3.2-3.3c0-0.4-0.1-0.9-0.2-1.3l5.9-4.6c0.5,0.4,1.2,0.7,1.9,0.7
			c1.7,0,3.2-1.5,3.2-3.3c0-0.6-0.1-1.2-0.4-1.7l5.2-5.5l0,2.2h0c0,0.2,0.1,0.4,0.2,0.5C84.9,8,85,8.1,85.2,8.1
			c0.2,0,0.3-0.1,0.4-0.2c0.1-0.1,0.2-0.3,0.2-0.5l0.1-4.5L81.6,2.8C81.7,2.8,81.7,2.8,81.6,2.8L81.6,2.8z M76.7,10.2
			c1,0,1.9,0.9,1.9,2.1c0,1.1-0.9,2-1.9,2c-1,0-1.9-0.9-1.9-2.1C74.8,11.1,75.6,10.2,76.7,10.2z M22.5,14c-1.3,0-2.3,1.1-2.3,2.5
			v37.5c0,0.4,0.1,0.9,0.3,1.2H12c-0.3,0-0.6,0.3-0.6,0.7v2.5c0,0.2,0.1,0.4,0.2,0.5c0,0,0.6,0.5,1.4,1.1c0.8,0.5,1.6,1.2,2.6,1.2
			l66.8,0h0c0.2,0,0.3-0.1,0.4-0.2c0.8-0.2,1.6-0.5,2.3-1c0.8-0.5,1.4-1.1,1.4-1.1c0.2-0.1,0.2-0.3,0.2-0.5v-2.5
			c0-0.4-0.3-0.7-0.6-0.7h-8.4c0.2-0.4,0.3-0.8,0.3-1.2V18.5c0-0.2-0.1-0.4-0.2-0.5c-0.1-0.1-0.3-0.2-0.4-0.2
			c-0.2,0-0.3,0.1-0.4,0.2c-0.1,0.1-0.2,0.3-0.2,0.5v35.5c0,0.7-0.5,1.2-1.1,1.2H22.5c-0.6,0-1.1-0.5-1.1-1.2V16.6
			c0-0.7,0.5-1.2,1.1-1.2h46.1c0.2,0,0.3-0.1,0.4-0.2c0.1-0.1,0.2-0.3,0.2-0.5c0-0.2-0.1-0.4-0.2-0.5c-0.1-0.1-0.3-0.2-0.4-0.2H22.5
			z M49,15.4c-0.4,0-0.8,0.4-0.8,0.9c0,0.5,0.4,0.9,0.8,0.9c0.4,0,0.8-0.4,0.8-0.9C49.8,15.8,49.4,15.4,49,15.4z M49,15.8
			c0.2,0,0.4,0.2,0.4,0.5c0,0.3-0.2,0.5-0.4,0.5c-0.2,0-0.4-0.2-0.4-0.5C48.5,16.1,48.7,15.8,49,15.8z M23.8,17.3
			c-0.3,0-0.6,0.3-0.6,0.7v34.3c0,0.4,0.3,0.7,0.6,0.7h50.5c0.3,0,0.6-0.3,0.6-0.7V21.9c0-0.2-0.1-0.4-0.2-0.5
			c-0.1-0.1-0.3-0.2-0.4-0.2c-0.2,0-0.3,0.1-0.4,0.2c-0.1,0.1-0.2,0.3-0.2,0.5v29.7H24.4v-33h35.8c0.2,0,0.3-0.1,0.4-0.2
			c0.1-0.1,0.2-0.3,0.2-0.5s-0.1-0.4-0.2-0.5c-0.1-0.1-0.3-0.2-0.4-0.2L23.8,17.3L23.8,17.3z M66,18.7c1,0,1.9,0.9,1.9,2.1
			c0,1.1-0.9,2-1.9,2c-1,0-1.9-0.9-1.9-2.1C64.1,19.6,64.9,18.7,66,18.7z M55.3,28c1,0,1.9,0.9,1.9,2.1c0,1.1-0.9,2-1.9,2
			c-1,0-1.9-0.9-1.9-2.1C53.4,28.8,54.2,27.9,55.3,28z M44.6,35c1,0,1.9,0.9,1.9,2.1c0,1.1-0.9,2-1.9,2c-1,0-1.9-0.9-1.9-2.1
			C42.7,35.8,43.6,34.9,44.6,35z M34,39.3c1,0,1.9,0.9,1.9,2.1c0,1.1-0.9,2-1.9,2c-1,0-1.9-0.9-1.9-2.1C32.1,40.2,32.9,39.3,34,39.3
			z M12.6,56.6h30.2c0.1,0.1,0.1,0.1,0.3,0.3c0.2,0.2,0.5,0.5,1,0.5h10c0.5,0,0.8-0.4,0.9-0.6c0.1-0.1,0.1-0.1,0.1-0.2h30.2v1.4
			c-0.2,0.1-0.5,0.4-1.1,0.8c-0.7,0.5-1.7,1-2,1l-66.7,0c-0.3,0-1.2-0.4-1.9-0.9c-0.6-0.4-0.9-0.7-1-0.8L12.6,56.6L12.6,56.6
			L12.6,56.6z"/>
	</g>
</g>
</svg>
