<?xml version="1.0" encoding="utf-8"?>
<!-- Generator: Adobe Illustrator 27.4.1, SVG Export Plug-In . SVG Version: 6.00 Build 0)  -->
<svg version="1.1" id="Capa_1" xmlns="http://www.w3.org/2000/svg" xmlns:xlink="http://www.w3.org/1999/xlink" x="0px" y="0px"
	 viewBox="0 0 75 64" style="enable-background:new 0 0 75 64;" xml:space="preserve">
<style type="text/css">
	.st0{clip-path:url(#SVGID_00000121257991862467203270000015444783306188519829_);}
	.st1{fill:#1B75B4;}
</style>
<g>
	<defs>
		<rect id="SVGID_1_" x="8" y="1.3" width="59" height="61.3"/>
	</defs>
	<clipPath id="SVGID_00000036946541819659097770000015341675844902498970_">
		<use xlink:href="#SVGID_1_"  style="overflow:visible;"/>
	</clipPath>
	<g style="clip-path:url(#SVGID_00000036946541819659097770000015341675844902498970_);">
		<path class="st1" d="M41.4,24.4c-0.3-0.1-0.6-0.2-0.7-0.2v-0.7c0.4,0.1,0.8,0.3,0.9,0.4l0.4-0.7c-0.2-0.1-0.3-0.2-0.5-0.3
			c-0.2-0.1-0.4-0.1-0.7-0.2v-0.5h-0.4v0.5c-0.5,0.1-0.9,0.3-1.1,0.7c-0.1,0.3-0.1,0.6,0,0.9c0.1,0.2,0.3,0.4,0.5,0.5
			c0.3,0.1,0.6,0.2,0.7,0.2v0.7c-0.5-0.1-1-0.3-1.1-0.4L39,26.1c0.4,0.3,0.9,0.4,1.4,0.5v0.6h0.4v-0.6c0.5,0,1-0.2,1.2-0.6
			c0.1-0.3,0.1-0.7,0-1C41.9,24.7,41.7,24.5,41.4,24.4z M40.5,24.1c-0.1,0-0.2-0.1-0.3-0.1c-0.1-0.1-0.1-0.1-0.1-0.2
			c0-0.2,0.1-0.3,0.4-0.3V24.1L40.5,24.1z M40.7,25.8v-0.6c0.1,0,0.2,0.1,0.3,0.1c0.1,0.1,0.1,0.1,0.1,0.2
			C41.1,25.7,41,25.8,40.7,25.8z"/>
		<path class="st1" d="M54.9,38.6l-5.6,2.5c-4,1.8-8.6,1.8-12.6,0c-0.7-0.2-3.3-1.8-7.5-1.8c-6.3,0-11.9,3.7-14.5,9.4l-3.7,8.2
			c-0.2,0.3,0,0.7,0.3,0.9l10.8,4.8c0.3,0.2,0.7,0,0.9-0.3c0.9-2.1,2.2-4.9,2.2-4.8c0,0,1-2.3,1-2.3c0.9-1.9,3.2-2.9,5.1-2
			c4.4,1.9,9.3,1.9,13.7,0l13.6-6.2c2.5-1.1,3.5-4.2,2-6.6C59.5,38.5,57.1,37.6,54.9,38.6L54.9,38.6z M22.1,61.1l-9.5-4.2l1.7-3.7
			l9.5,4.3L22.1,61.1L22.1,61.1z M58.2,45.7l-13.6,6.2c-4,1.8-8.6,1.8-12.6,0c-2.7-1.2-5.8,0-6.9,2.7l-0.7,1.7l-9.5-4.3l1.2-2.6
			c3.2-7.2,11.7-10.6,19.1-7.3l1.1,0.5c4.4,1.9,9.3,1.9,13.7,0l5.6-2.5c1.6-0.7,3.2-0.1,4.1,1.2C60.1,42,59.9,44.9,58.2,45.7
			L58.2,45.7z"/>
		<path class="st1" d="M12.8,43.9c0,0.6-0.5,1-1,1s-1-0.5-1-1c0-0.6,0.5-1,1-1S12.8,43.4,12.8,43.9z"/>
		<path class="st1" d="M65.6,48.7c0,0.6-0.5,1-1,1c-0.6,0-1-0.5-1-1s0.5-1,1-1C65.2,47.7,65.6,48.1,65.6,48.7z"/>
		<path class="st1" d="M64.3,31.1c0,0.6-0.5,1-1,1c-0.6,0-1-0.5-1-1c0-0.6,0.5-1,1-1C63.8,30.1,64.3,30.5,64.3,31.1z"/>
		<path class="st1" d="M57.5,2.7c0,0.6-0.5,1-1,1c-0.6,0-1-0.5-1-1s0.5-1,1-1C57,1.7,57.5,2.1,57.5,2.7z"/>
		<path class="st1" d="M39.2,6.1c0,0.6-0.5,1-1,1c-0.6,0-1-0.5-1-1s0.5-1,1-1C38.7,5.1,39.2,5.5,39.2,6.1z"/>
		<path class="st1" d="M18.2,2.3c0,0.6-0.5,1-1,1s-1-0.5-1-1c0-0.6,0.5-1,1-1S18.2,1.8,18.2,2.3z"/>
		<path class="st1" d="M10.7,14.2c0,0.6-0.5,1-1,1c-0.6,0-1-0.5-1-1c0-0.6,0.5-1,1-1C10.3,13.2,10.7,13.6,10.7,14.2z"/>
		<path class="st1" d="M54.8,56.1c0,0.6-0.5,1-1,1c-0.6,0-1-0.5-1-1c0-0.6,0.5-1,1-1C54.3,55.1,54.8,55.5,54.8,56.1z"/>
		<path class="st1" d="M18.2,29.4c0.2,1.4,1.3,2.5,2.7,2.7c0.2,1.5,1.5,2.7,3.1,2.7h33.1c1.7,0,3.1-1.4,3.1-3.1V17.6
			c0-1.6-1.2-2.9-2.7-3.1c-0.2-1.4-1.3-2.5-2.7-2.7c-0.2-1.5-1.5-2.7-3.1-2.7H18.6c-1.7,0-3.1,1.4-3.1,3.1v14.1
			C15.5,27.9,16.7,29.2,18.2,29.4L18.2,29.4z M58.9,17.6v14.1c0,1-0.8,1.8-1.8,1.8H24c-1,0-1.8-0.8-1.8-1.8V17.6
			c0-1,0.8-1.8,1.8-1.8h33.1C58.1,15.9,58.9,16.7,58.9,17.6z M56.1,14.5H24c-1.7,0-3.1,1.4-3.1,3.1v13.1c-0.8-0.2-1.4-0.9-1.4-1.7
			V14.9c0-1,0.8-1.8,1.8-1.8h33.1C55.2,13.2,55.9,13.7,56.1,14.5z M16.8,12.2c0-1,0.8-1.8,1.8-1.8h33.1c0.8,0,1.5,0.6,1.7,1.4H21.3
			c-1.7,0-3.1,1.4-3.1,3.1V28c-0.8-0.2-1.4-0.9-1.4-1.7V12.2z"/>
		<path class="st1" d="M56.1,20.8c-1.2,0-2.2-1-2.2-2.2c0-0.4-0.3-0.7-0.7-0.7H27.9c-0.4,0-0.7,0.3-0.7,0.7c0,1.2-1,2.2-2.2,2.2
			c-0.4,0-0.7,0.3-0.7,0.7v6.4c0,0.4,0.3,0.7,0.7,0.7c1.2,0,2.2,1,2.2,2.2c0,0.4,0.3,0.7,0.7,0.7h25.4c0.4,0,0.7-0.3,0.7-0.7
			c0-1.2,1-2.2,2.2-2.2c0.4,0,0.7-0.3,0.7-0.7v-6.4C56.8,21.1,56.5,20.8,56.1,20.8L56.1,20.8z M55.5,27.2c-1.4,0.3-2.6,1.4-2.9,2.8
			H28.5c-0.3-1.4-1.4-2.6-2.9-2.8v-5.1c1.4-0.3,2.6-1.4,2.9-2.8h24.1c0.3,1.4,1.4,2.6,2.9,2.8V27.2L55.5,27.2z"/>
		<path class="st1" d="M40.6,20.6c-2.2,0-4.1,1.8-4.1,4.1s1.8,4.1,4.1,4.1c2.2,0,4.1-1.8,4.1-4.1S42.8,20.6,40.6,20.6z M40.6,27.4
			c-1.5,0-2.7-1.2-2.7-2.7s1.2-2.7,2.7-2.7c1.5,0,2.7,1.2,2.7,2.7S42,27.4,40.6,27.4z"/>
		<path class="st1" d="M49.4,22c-1.5,0-2.7,1.2-2.7,2.7c0,1.5,1.2,2.7,2.7,2.7c1.5,0,2.7-1.2,2.7-2.7C52.1,23.2,50.9,22,49.4,22z
			 M49.4,26c-0.7,0-1.4-0.6-1.4-1.4c0-0.7,0.6-1.4,1.4-1.4s1.4,0.6,1.4,1.4C50.7,25.4,50.1,26,49.4,26z"/>
		<path class="st1" d="M31.7,22c-1.5,0-2.7,1.2-2.7,2.7c0,1.5,1.2,2.7,2.7,2.7c1.5,0,2.7-1.2,2.7-2.7C34.4,23.2,33.2,22,31.7,22z
			 M31.7,26c-0.7,0-1.4-0.6-1.4-1.4c0-0.7,0.6-1.4,1.4-1.4c0.7,0,1.4,0.6,1.4,1.4C33.1,25.4,32.5,26,31.7,26z"/>
		<path class="st1" d="M13.4,27.4c0-1.5-1.2-2.7-2.7-2.7c-1.5,0-2.7,1.2-2.7,2.7c0,1.5,1.2,2.7,2.7,2.7
			C12.2,30.1,13.4,28.9,13.4,27.4z M9.4,27.4c0-0.7,0.6-1.4,1.4-1.4c0.7,0,1.4,0.6,1.4,1.4s-0.6,1.4-1.4,1.4
			C10,28.7,9.4,28.1,9.4,27.4z"/>
		<path class="st1" d="M63.3,3.7c-2.1,0-3.7,1.7-3.7,3.7s1.7,3.7,3.7,3.7c2.1,0,3.7-1.7,3.7-3.7S65.3,3.7,63.3,3.7z M63.3,9.8
			c-1.3,0-2.4-1.1-2.4-2.4S62,5,63.3,5c1.3,0,2.4,1.1,2.4,2.4C65.6,8.7,64.6,9.8,63.3,9.8z"/>
	</g>
</g>
</svg>
