<?xml version="1.0" encoding="utf-8"?>
<!-- Generator: Adobe Illustrator 27.4.1, SVG Export Plug-In . SVG Version: 6.00 Build 0)  -->
<svg version="1.1" id="Capa_1" xmlns="http://www.w3.org/2000/svg" xmlns:xlink="http://www.w3.org/1999/xlink" x="0px" y="0px"
	 viewBox="0 0 68 64" style="enable-background:new 0 0 68 64;" xml:space="preserve">
<style type="text/css">
	.st0{clip-path:url(#SVGID_00000091693697649448009100000002395907120842202518_);}
	.st1{fill:#1B75B4;}
</style>
<g>
	<defs>
		<rect id="SVGID_1_" y="6.5" width="68" height="51"/>
	</defs>
	<clipPath id="SVGID_00000176744293740147846610000007948870886070940082_">
		<use xlink:href="#SVGID_1_"  style="overflow:visible;"/>
	</clipPath>
	<g style="clip-path:url(#SVGID_00000176744293740147846610000007948870886070940082_);">
		<path class="st1" d="M68,6.5l-23,5.3c0.5,0.7,0.9,1.4,1.2,2.2l7.5-1.7l-6.9,3.4c0.2,0.8,0.4,1.6,0.5,2.4l6.6-3.3l-9.1,6.3
			c0.5-3.4-0.5-6.9-2.9-9.4c-2-2.2-4.9-3.4-7.9-3.4c-3,0-5.9,1.2-7.9,3.4c-2,2.1-3,4.8-3,7.7c0,2.8,1.1,5.6,3,7.7
			c1.5,1.6,3.4,2.7,5.6,3.2L19,39l-3.6,9.9v-15l9.4-4.6c-0.2-0.2-0.4-0.4-0.5-0.5c-0.4-0.4-0.8-0.9-1.1-1.3l-8.8,4.4l-9.3-8.2
			l15.5-3.6c0-0.8,0-1.7,0.1-2.5L0,22.2l13,11.4v23.8l13.2-12.2l8.7,7.7L68,6.5z M32.7,10.8v1.7c-1.2,0.5-2,1.4-2.4,2.6
			c-0.4,1.2-0.2,2.4,0.4,3.5c0.7,1,1.7,1.8,3,1.9c0.6,0.1,1.1,0.4,1.3,0.9c0.3,0.5,0.3,1.1,0.1,1.6C35,23.6,34.5,24,34,24.2
			c-0.6,0.2-1.1,0-1.6-0.3c-0.5-0.4-1.3-0.2-1.7,0.3c-0.4,0.5-0.3,1.2,0.2,1.6c0.5,0.4,1.2,0.6,1.8,0.7V28c-1.9-0.3-3.6-1.2-4.9-2.5
			c-1.5-1.6-2.4-3.8-2.4-6s0.9-4.4,2.4-6C29.1,12,30.9,11.1,32.7,10.8z M35.2,10.8c1.9,0.3,3.6,1.2,4.9,2.5c1.2,1.3,2.1,3,2.3,4.8
			c0.3,1.8,0,3.6-0.9,5.2l-6.3,4.4v-1.5c1.2-0.5,2-1.4,2.4-2.6c0.4-1.2,0.2-2.4-0.4-3.5c-0.7-1-1.7-1.8-3-1.9
			c-0.6-0.1-1.1-0.4-1.3-0.9c-0.3-0.5-0.3-1.1-0.1-1.6c0.2-0.5,0.7-0.9,1.2-1.1c0.5-0.2,1.1,0,1.6,0.3c0.5,0.3,1.3,0.2,1.6-0.3
			c0.4-0.5,0.3-1.2-0.2-1.6c-0.5-0.4-1.1-0.6-1.8-0.7L35.2,10.8L35.2,10.8z M60.1,13.4l-25.6,36L22.9,39.2L60.1,13.4z M20.9,40.7
			l3.4,3L17.6,50L20.9,40.7L20.9,40.7z"/>
	</g>
</g>
</svg>
