<?xml version="1.0" encoding="utf-8"?>
<!-- Generator: Adobe Illustrator 27.4.1, SVG Export Plug-In . SVG Version: 6.00 Build 0)  -->
<svg version="1.1" id="Capa_1" xmlns="http://www.w3.org/2000/svg" xmlns:xlink="http://www.w3.org/1999/xlink" x="0px" y="0px"
	 viewBox="0 0 66 64" style="enable-background:new 0 0 66 64;" xml:space="preserve">
<style type="text/css">
	.st0{clip-path:url(#SVGID_00000135681613971560841670000005738792516235646096_);}
	.st1{fill:#1B75B4;}
</style>
<g>
	<defs>
		<rect id="SVGID_1_" x="5.5" y="2.4" width="55" height="59.2"/>
	</defs>
	<clipPath id="SVGID_00000116220515262070429760000010909303813097952174_">
		<use xlink:href="#SVGID_1_"  style="overflow:visible;"/>
	</clipPath>
	<g style="clip-path:url(#SVGID_00000116220515262070429760000010909303813097952174_);">
		<path class="st1" d="M55.9,2.4H30.2c-2.5,0-4.6,2.2-4.6,4.9v11.8H10.1c-0.5,0-0.9,0.4-0.9,1v23.7c0,0.5,0.4,1,0.9,1h15.6v11.8
			c0,2.7,2.1,4.9,4.6,4.9h25.7c2.5,0,4.6-2.2,4.6-4.9V7.3C60.5,4.6,58.4,2.4,55.9,2.4z M27.5,7.3c0-1.6,1.2-3,2.8-3h25.7
			c1.5,0,2.7,1.3,2.7,3v3H27.5V7.3z M11,21.2h20.2v21.7H11V21.2z M32.1,44.8c0.5,0,0.9-0.4,0.9-1V20.2c0-0.5-0.4-1-0.9-1h-4.6v-6.9
			h31.2v39.4H27.5v-6.9H32.1z M55.9,59.6H30.2c-1.5,0-2.8-1.3-2.8-3v-3h31.2v3C58.7,58.3,57.4,59.6,55.9,59.6z"/>
		<path class="st1" d="M34.8,21.2c0,0.5,0.4,1,0.9,1s0.9-0.4,0.9-1v-4.9c0-0.5-0.4-1-0.9-1h-4.6c-0.5,0-0.9,0.4-0.9,1
			c0,0.5,0.4,1,0.9,1h3.7V21.2z"/>
		<path class="st1" d="M11,46.8H7.3v-3.9c0-0.5-0.4-1-0.9-1s-0.9,0.4-0.9,1v4.9c0,0.5,0.4,1,0.9,1H11c0.5,0,0.9-0.4,0.9-1
			C11.9,47.2,11.5,46.8,11,46.8z"/>
		<path class="st1" d="M6.4,22.1c0.5,0,0.9-0.4,0.9-1v-3.9H11c0.5,0,0.9-0.4,0.9-1c0-0.5-0.4-1-0.9-1H6.4c-0.5,0-0.9,0.4-0.9,1v4.9
			C5.5,21.7,5.9,22.1,6.4,22.1z"/>
		<path class="st1" d="M31.2,48.8h4.6c0.5,0,0.9-0.4,0.9-1v-4.9c0-0.5-0.4-1-0.9-1s-0.9,0.4-0.9,1v3.9h-3.7c-0.5,0-0.9,0.4-0.9,1
			C30.2,48.3,30.7,48.8,31.2,48.8z"/>
		<path class="st1" d="M29.3,39.9V33c0-0.5-0.4-1-0.9-1h-1.8v-3.9c0-0.5-0.4-1-0.9-1h-4.6v-3c0-0.5-0.4-1-0.9-1h-6.4
			c-0.5,0-0.9,0.4-0.9,1V30c0,0.5,0.4,1,0.9,1h2.8v2c0,0.5,0.4,1,0.9,1h5.5v5.9c0,0.5,0.4,1,0.9,1h4.6
			C28.9,40.9,29.3,40.4,29.3,39.9z M14.7,25.1h4.6V29h-4.6V25.1z M18.3,31h1.8c0.5,0,0.9-0.4,0.9-1v-1h3.7v3h-6.4V31z M27.5,38.9
			h-2.8V34h2.8V38.9z"/>
		<path class="st1" d="M20.2,35.9h-7.3c-0.5,0-0.9,0.4-0.9,1v3c0,0.5,0.4,1,0.9,1h7.3c0.5,0,0.9-0.4,0.9-1v-3
			C21.1,36.4,20.7,35.9,20.2,35.9z M19.2,38.9h-5.5v-1h5.5V38.9z"/>
		<path class="st1" d="M25.7,24.1h2.7v3c0,0.5,0.4,1,0.9,1c0.5,0,0.9-0.4,0.9-1v-3.9c0-0.5-0.4-1-0.9-1h-3.7c-0.5,0-0.9,0.4-0.9,1
			C24.8,23.7,25.2,24.1,25.7,24.1z"/>
		<path class="st1" d="M44.9,55.7h-4.6c-0.5,0-0.9,0.4-0.9,1s0.4,1,0.9,1h4.6c0.5,0,0.9-0.4,0.9-1S45.4,55.7,44.9,55.7z"/>
	</g>
</g>
</svg>
