<?xml version="1.0" encoding="utf-8"?>
<!-- Generator: Adobe Illustrator 27.4.1, SVG Export Plug-In . SVG Version: 6.00 Build 0)  -->
<svg version="1.1" id="Capa_1" xmlns="http://www.w3.org/2000/svg" xmlns:xlink="http://www.w3.org/1999/xlink" x="0px" y="0px"
	 viewBox="0 0 54 64" style="enable-background:new 0 0 54 64;" xml:space="preserve">
<style type="text/css">
	.st0{clip-path:url(#SVGID_00000124869411616669485020000014397787094053163956_);}
	.st1{fill:#1B75B4;}
</style>
<g>
	<defs>
		<rect id="SVGID_1_" x="2.7" y="1.8" width="48.7" height="60.4"/>
	</defs>
	<clipPath id="SVGID_00000146492608950007973720000013289169178791410817_">
		<use xlink:href="#SVGID_1_"  style="overflow:visible;"/>
	</clipPath>
	<g style="clip-path:url(#SVGID_00000146492608950007973720000013289169178791410817_);">
		<path class="st1" d="M8.4,22.8c0.7,0,1.4,0.3,1.8,0.8c0.5,0.5,0.8,1.2,0.8,1.9c0,0.3,0.1,0.6,0.3,0.8c0.2,0.2,0.5,0.3,0.8,0.3
			h29.8c0.6,0,1.1-0.5,1.1-1.1c0-1.4,1.2-2.6,2.6-2.6c0.6,0,1.1-0.5,1.1-1.1V10.4c0-0.6-0.5-1.1-1.1-1.1c-1.4,0-2.6-1.2-2.6-2.6
			c0-0.6-0.5-1.1-1.1-1.1H12.1C11.5,5.5,11,6,11,6.7c0,1.4-1.2,2.6-2.6,2.6c-0.3,0-0.6,0.1-0.8,0.3c-0.2,0.2-0.3,0.5-0.3,0.8v11.3
			C7.3,22.3,7.8,22.8,8.4,22.8z M40.9,7.8c0.4,1.8,1.8,3.2,3.6,3.6v9.3c-1.8,0.4-3.2,1.8-3.6,3.6H29.5c3.5-1.1,6.1-4.4,6.1-8.2
			S33,8.9,29.5,7.8L40.9,7.8L40.9,7.8z M33.3,16c0,3.5-2.8,6.4-6.3,6.4c-3.5,0-6.3-2.9-6.3-6.4c0-3.5,2.8-6.4,6.3-6.4
			C30.5,9.7,33.3,12.5,33.3,16z M9.5,11.4c1.8-0.4,3.2-1.8,3.6-3.6h11.4c-3.5,1.1-6.1,4.4-6.1,8.3s2.6,7.2,6.1,8.2H13.1
			c-0.2-0.9-0.6-1.7-1.3-2.3c-0.6-0.6-1.4-1.1-2.3-1.3L9.5,11.4L9.5,11.4z M24.4,18.2c-0.6,0-1,0.7-1,1.2c0,0.9,1.4,1.8,3.2,1.9v0.4
			c0,0.2,0.2,0.4,0.6,0.4c0.3,0,0.6-0.2,0.6-0.4v-0.4c1.7-0.3,2.9-1.4,2.9-3.2c0-2-1.5-2.7-2.9-3.2v-2.1c0.9,0.1,1.2,0.5,1.7,0.5
			c0.6,0,0.9-0.8,0.9-1.2c0-1-1.7-1.2-2.6-1.3v-0.4c0-0.2-0.3-0.4-0.6-0.4c-0.3,0-0.6,0.2-0.6,0.4v0.4c-1.5,0.2-2.9,1.1-2.9,3
			s1.6,2.5,2.9,3v2.4C25.5,19,25,18.2,24.4,18.2L24.4,18.2z M27.6,17.2c0.5,0.3,0.9,0.6,0.9,1c0,0.5-0.4,0.8-0.9,0.9V17.2z
			 M25.8,13.6c0-0.4,0.3-0.7,0.9-0.8v1.7C26.2,14.3,25.8,14,25.8,13.6L25.8,13.6z M16.9,48.4v0.4c0,0.2,0.2,0.4,0.6,0.4
			c0.3,0,0.6-0.2,0.6-0.4v-0.4c1.7-0.3,2.9-1.4,2.9-3.2c0-2-1.5-2.7-2.9-3.2v-2.1c0.9,0.1,1.2,0.5,1.7,0.5c0.6,0,0.9-0.8,0.9-1.2
			c0-1-1.7-1.2-2.6-1.3v-0.4c0-0.2-0.3-0.4-0.6-0.4c-0.3,0-0.6,0.2-0.6,0.4v0.4c-1.5,0.2-2.9,1.1-2.9,3c0,1.9,1.6,2.5,2.9,3v2.4
			c-1.1-0.2-1.6-1.1-2.2-1.1c-0.6,0-1,0.7-1,1.2C13.8,47.4,15.2,48.3,16.9,48.4z M17.9,44.3c0.5,0.3,0.9,0.6,0.9,1
			c0,0.5-0.4,0.8-0.9,0.9V44.3z M16.1,40.7c0-0.3,0.3-0.7,0.9-0.8v1.7C16.5,41.4,16.1,41.1,16.1,40.7z M37.4,38.2v-2.1
			c0.9,0.1,1.2,0.5,1.7,0.5c0.6,0,0.9-0.8,0.9-1.2c0-1-1.7-1.2-2.6-1.3v-0.4c0-0.2-0.3-0.4-0.6-0.4c-0.3,0-0.6,0.2-0.6,0.4v0.4
			c-1.5,0.2-2.9,1.1-2.9,3c0,1.9,1.6,2.5,2.9,3v2.4c-1.1-0.2-1.6-1.1-2.2-1.1c-0.6,0-1,0.7-1,1.2c0,0.9,1.4,1.8,3.2,1.9V45
			c0,0.2,0.2,0.4,0.6,0.4c0.3,0,0.6-0.2,0.6-0.4v-0.4c1.7-0.3,2.9-1.4,2.9-3.2C40.2,39.4,38.7,38.7,37.4,38.2z M36.4,37.9
			c-0.6-0.2-0.9-0.5-0.9-0.9c0-0.4,0.3-0.7,0.9-0.8V37.9z M37.2,42.5v-2c0.5,0.3,0.9,0.6,0.9,1C38.1,42.1,37.7,42.4,37.2,42.5z
			 M50.5,36.7v-3.7V6.7c0-2.7-2.2-4.9-4.8-4.9H8.4C5.7,1.8,3.5,4,3.5,6.7v30c0,2.7,2.2,4.9,4.8,4.9h0.2L8.8,42
			c-0.1,0.4-0.1,0.7-0.1,1.1c0,0.7,0.1,1.3,0.2,1.9c-0.1,0.6-0.2,1.2-0.2,1.9c0,4.8,3.8,8.6,8.6,8.6c2.5,0,4.7-1.1,6.3-2.8
			c0.1,0.1,0.3,0.2,0.4,0.2c0.3,0,0.5-0.1,0.7-0.4l1.2-2.2l2.2-1.2c0.1,0,0.2-0.1,0.2-0.2c0.2,1.1,0.7,2,1.3,2.9l0,0L27.4,53
			c-0.2,0.1-0.4,0.4-0.4,0.7c0,0.3,0.1,0.5,0.4,0.7l2.2,1.2l1.2,2.2c0.1,0.2,0.4,0.4,0.7,0.4c0.3,0,0.5-0.1,0.7-0.4l1.2-2.2l0.7-0.4
			c0.8,0.3,1.7,0.4,2.6,0.4c4.7,0,8.6-3.9,8.6-8.6c0-0.6-0.1-1.2-0.2-1.9c0.1-0.6,0.2-1.2,0.2-1.9c0-0.5-0.1-1.1-0.2-1.6h0.5
			C48.3,41.5,50.5,39.4,50.5,36.7L50.5,36.7z M43.2,38.6l-0.3-0.1L42,37.9l0.7-0.4l0.5-0.3c0.1-0.1,0.2-0.2,0.3-0.3l0.7-1.2l0.7,1.2
			c0.1,0.1,0.2,0.2,0.3,0.3l1,0.5l0.2,0.1l-1.1,0.6l-0.1,0c-0.1,0.1-0.2,0.2-0.3,0.3l-0.7,1.2l-0.7-1.2
			C43.4,38.7,43.3,38.6,43.2,38.6L43.2,38.6z M45.8,35.5L45,34h0.7c0.9,0,1.8-0.3,2.6-0.8C48,34.5,47,35.5,45.8,35.5z M45.6,31.8
			h-4.9c-1.2-0.7-2.6-1-4.1-1s-2.9,0.4-4.1,1H8.4c-1.3,0-2.4-1-2.6-2.3c0.7,0.5,1.6,0.8,2.6,0.8h37.2c0.9,0,1.8-0.3,2.6-0.8
			C48,30.8,46.9,31.8,45.6,31.8z M5.8,6.7C5.8,5.2,6.9,4,8.4,4h37.2c1.4,0,2.6,1.2,2.6,2.6v18.8c0,1.4-1.2,2.6-2.6,2.6H8.4
			c-1.4,0-2.6-1.2-2.6-2.6L5.8,6.7L5.8,6.7z M6.1,37.8c-0.1-0.2-0.2-0.5-0.3-0.8c0.3,0.2,0.6,0.3,0.9,0.4L6.1,37.8L6.1,37.8z
			 M7.7,38.6L8.9,38c0.1,0,0.1-0.1,0.2-0.2c0,0,0.1-0.1,0.1-0.1l0.7-1.2l0.7,1.2c0.1,0.1,0.2,0.2,0.3,0.3l1.2,0.7l-1.2,0.7
			c-0.1,0.1-0.2,0.2-0.3,0.3l-0.7,1.2l-0.7-1.2c-0.1-0.1-0.2-0.2-0.3-0.3l0,0L7.7,38.6L7.7,38.6z M11,43.1c0-0.5,0.1-1.1,0.2-1.6
			l0.6-1.1l2.2-1.2c0.2-0.1,0.4-0.4,0.4-0.7c0-0.3-0.1-0.5-0.4-0.7l-0.2-0.1c1-0.7,2.2-1.1,3.5-1.1c3.5,0,6.3,2.9,6.3,6.4
			c0,0.3,0,0.6-0.1,0.9c-0.1,0.1-0.1,0.1-0.2,0.2l-1.2,2.2L20,47.7c-0.2,0.1-0.4,0.4-0.4,0.7c0,0.2,0.1,0.4,0.3,0.6
			c-0.8,0.3-1.6,0.5-2.5,0.5C13.8,49.5,11,46.7,11,43.1L11,43.1z M24,37.8h4.2c-0.1,0.5-0.1,1-0.1,1.5H25
			C24.7,38.8,24.4,38.3,24,37.8L24,37.8z M17.3,53.3c-2.6,0-4.8-1.6-5.8-3.8c1.5,1.4,3.5,2.3,5.8,2.3c1.8,0,3.4-0.6,4.8-1.5l0,0
			l0.2,0.4C21.2,52.2,19.4,53.3,17.3,53.3z M25.7,48.7L25,49.1c-0.1,0.1-0.2,0.2-0.3,0.3L24,50.6l-0.7-1.2c-0.1-0.1-0.2-0.2-0.3-0.3
			l-1.2-0.7l1.2-0.7c0.1-0.1,0.2-0.2,0.3-0.3l0.7-1.2l0.7,1.2c0.1,0.1,0.2,0.2,0.3,0.3l0.8,0.4l0.4,0.2L25.7,48.7z M28.1,47.7
			l-2.2-1.2l-0.1-0.1c0-0.5-0.1-0.9-0.2-1.4c0.1-0.6,0.2-1.2,0.2-1.9c0-0.5-0.1-1.1-0.2-1.6h2.5c-0.1,0.5-0.2,1.1-0.2,1.6
			c0,0.7,0.1,1.3,0.2,1.9c-0.1,0.6-0.2,1.2-0.2,1.9C28.1,47.2,28.1,47.5,28.1,47.7C28.1,47.7,28.1,47.7,28.1,47.7L28.1,47.7z
			 M29,35.5h-7.6c-1.2-0.7-2.6-1-4.1-1s-2.9,0.4-4.1,1h-2.1l-0.6-1c-0.1-0.2-0.4-0.4-0.7-0.4c-0.3,0-0.5,0.1-0.7,0.4l-0.6,1H8.4
			c-1.3,0-2.4-1-2.6-2.3C6.6,33.8,7.4,34,8.4,34H30C29.6,34.5,29.3,35,29,35.5L29,35.5z M32.5,54.3C32.4,54.3,32.4,54.3,32.5,54.3
			c-0.2,0.1-0.2,0.2-0.3,0.3l-0.7,1.2l-0.7-1.2c-0.1-0.1-0.2-0.2-0.3-0.3l-1.2-0.7l1.2-0.7c0,0,0,0,0.1,0c0.1-0.1,0.2-0.2,0.2-0.3
			l0.7-1.2l0.7,1.2c0.1,0.1,0.2,0.2,0.3,0.3l1.2,0.7L32.5,54.3L32.5,54.3z M36.7,53.3c-0.3,0-0.6,0-0.9-0.1
			c-0.1-0.1-0.1-0.2-0.2-0.2l-2.2-1.2l-0.5-0.9c1.1,0.6,2.4,0.9,3.8,0.9c2.2,0,4.2-0.9,5.8-2.3C41.5,51.7,39.2,53.3,36.7,53.3z
			 M36.7,49.5c-2.6,0-4.8-1.6-5.8-3.8c1.5,1.4,3.5,2.3,5.8,2.3c2.2,0,4.2-0.9,5.8-2.3C41.5,48,39.2,49.5,36.7,49.5z M36.7,45.8
			c-3.5,0-6.3-2.9-6.3-6.4c0-3.5,2.8-6.4,6.3-6.4c2.3,0,4.3,1.2,5.4,3.1l-2,1.1c-0.2,0.1-0.4,0.4-0.4,0.7c0,0.3,0.1,0.5,0.4,0.7
			l2.2,1.2l0.6,1C42.2,43.6,39.7,45.8,36.7,45.8L36.7,45.8z M17.5,57.7v3.7c0,0.4-0.3,0.7-0.7,0.7c-0.4,0-0.7-0.3-0.7-0.7v-3.7
			c0-0.4,0.3-0.7,0.7-0.7C17.2,57,17.5,57.3,17.5,57.7z M11.2,56.4l-0.7,1.3c-0.1,0.2-0.4,0.4-0.6,0.4c-0.1,0-0.3,0-0.4-0.1
			c-0.4-0.2-0.5-0.7-0.3-1l0.7-1.3c0.2-0.4,0.7-0.5,1-0.3C11.2,55.6,11.4,56,11.2,56.4L11.2,56.4z M7.3,49.8c0.2,0.4,0.1,0.8-0.3,1
			l-3.2,1.9c-0.1,0.1-0.2,0.1-0.4,0.1c-0.3,0-0.5-0.1-0.6-0.4c-0.2-0.4-0.1-0.8,0.3-1l3.2-1.9C6.6,49.3,7.1,49.4,7.3,49.8L7.3,49.8z
			 M4.7,43.9c-0.4,0-0.7-0.3-0.7-0.7c0-0.4,0.3-0.7,0.7-0.7h1.5c0.4,0,0.7,0.3,0.7,0.7c0,0.4-0.3,0.7-0.7,0.7H4.7z M37.9,57.7v3.7
			c0,0.4-0.3,0.7-0.7,0.7c-0.4,0-0.7-0.3-0.7-0.7v-3.7c0-0.4,0.3-0.7,0.7-0.7C37.6,57,37.9,57.3,37.9,57.7z M44.9,56.9
			c0.2,0.4,0.1,0.8-0.3,1c-0.1,0.1-0.2,0.1-0.4,0.1c-0.3,0-0.5-0.1-0.6-0.4l-0.7-1.3c-0.2-0.4-0.1-0.8,0.3-1c0.4-0.2,0.8-0.1,1,0.3
			L44.9,56.9L44.9,56.9z M51.2,52.4c-0.1,0.2-0.4,0.4-0.6,0.4c-0.1,0-0.3,0-0.4-0.1L47,50.8c-0.4-0.2-0.5-0.7-0.3-1
			c0.2-0.4,0.7-0.5,1-0.3l3.2,1.9C51.3,51.6,51.4,52.1,51.2,52.4L51.2,52.4z M49.3,42.4c0.4,0,0.7,0.3,0.7,0.7s-0.3,0.7-0.7,0.7
			h-1.5c-0.4,0-0.7-0.3-0.7-0.7s0.3-0.7,0.7-0.7H49.3z"/>
	</g>
</g>
</svg>
