<?xml version="1.0" encoding="utf-8"?>
<!-- Generator: Adobe Illustrator 27.4.1, SVG Export Plug-In . SVG Version: 6.00 Build 0)  -->
<svg version="1.1" id="Capa_1" xmlns="http://www.w3.org/2000/svg" xmlns:xlink="http://www.w3.org/1999/xlink" x="0px" y="0px"
	 viewBox="0 0 55 64" style="enable-background:new 0 0 55 64;" xml:space="preserve">
<style type="text/css">
	.st0{clip-path:url(#SVGID_00000026151699176894357340000003858859042450949772_);}
	.st1{fill:#1B75B4;}
</style>
<g>
	<defs>
		<rect id="SVGID_1_" x="3.4" y="1.4" width="48.1" height="61.3"/>
	</defs>
	<clipPath id="SVGID_00000081630547840662580780000007465644269217208709_">
		<use xlink:href="#SVGID_1_"  style="overflow:visible;"/>
	</clipPath>
	<g style="clip-path:url(#SVGID_00000081630547840662580780000007465644269217208709_);">
		<path class="st1" d="M25.4,22c-0.3-0.3-0.4-0.9,0-1.2c0.3-0.3,0.9-0.3,1.2,0l0.1,0.1c0.3-0.1,0.6-0.2,0.9-0.2
			c0.5,0,0.9,0.4,0.9,0.8c0,0.5-0.4,0.9-0.8,0.9c-0.2,0-0.4,0.1-0.5,0.2C27.1,22.7,27,22.9,27,23c0,0.1,0,0.2,0.1,0.3
			c0.1,0.1,0.2,0.1,0.3,0.1c0.2,0,0.4-0.1,0.5-0.2c0.5-0.4,1-0.7,1.6-0.7c0.6,0,1.2,0.2,1.7,0.6c0.4,0.4,0.6,1,0.6,1.7
			c0,0.3-0.1,0.6-0.2,0.9l0,0c0.3,0.3,0.4,0.9,0,1.2c-0.2,0.2-0.4,0.3-0.6,0.3c-0.2,0-0.4-0.1-0.6-0.2L30.4,27
			c-0.4,0.2-0.8,0.2-1.2,0.2h0c-0.5,0-0.9-0.4-0.9-0.9c0-0.5,0.4-0.9,0.9-0.9c0.5,0,0.6-0.1,0.7-0.2c0.1-0.1,0.2-0.3,0.2-0.5
			c0-0.1,0-0.2-0.1-0.3c-0.1-0.1-0.2-0.1-0.3-0.1c-0.2,0-0.4,0.1-0.5,0.2c-0.5,0.4-1,0.7-1.6,0.7c-0.6,0-1.2-0.2-1.7-0.6
			c-0.4-0.4-0.6-1-0.6-1.7C25.3,22.6,25.3,22.3,25.4,22L25.4,22L25.4,22z M51.4,33.5v26.8c0,1.3-1.3,2.4-2.8,2.4H9.2
			c-3.2,0-5.8-2.1-5.8-4.7V28.1c0-2.6,2.6-4.7,5.8-4.7h1.3L32.9,2c1-0.9,2.5-0.9,3.4,0.1l14.6,14.8c0.4,0.5,0.7,1.1,0.7,1.7
			c0,0.6-0.3,1.2-0.7,1.7L45,25.9v5.2h3.6C50.1,31.1,51.4,32.2,51.4,33.5L51.4,33.5z M49.6,42.4h-5.5c-2.5,0-4.5,2-4.5,4.5
			c0,2.5,2,4.5,4.5,4.5h5.5V42.4z M43.2,27.6l-3.7,3.5h3.7V27.6z M7.5,28.7c-0.1,0.1-0.2,0.3-0.2,0.5c0,0.2,0.1,0.3,0.2,0.5l1.4,1.4
			c0.1,0,0.2,0,0.3,0h3l0.3-0.3c0.9-0.8,0.9-2.2,0-3.1l-0.4-0.4c-0.3-0.3-0.3-0.9,0-1.2L31.3,7.8c0.2-0.2,0.4-0.2,0.6-0.2
			c0.2,0,0.5,0.1,0.6,0.3l0.4,0.4c0.9,0.9,2.3,0.9,3.1,0l0.4-0.4c0.2-0.2,0.4-0.3,0.6-0.2c0.2,0,0.5,0.1,0.6,0.3l7.4,7.5
			c0.2,0.2,0.3,0.4,0.2,0.6c0,0.2-0.1,0.4-0.3,0.6L44.6,17c-0.9,0.8-0.9,2.2,0,3.1l0.4,0.4c0.2,0.2,0.3,0.4,0.2,0.6
			c0,0.2-0.1,0.4-0.3,0.6l-9.9,9.4H37l12.6-12c0.1-0.1,0.2-0.3,0.2-0.5c0-0.2-0.1-0.3-0.2-0.5L35,3.3c-0.3-0.3-0.7-0.3-0.9,0
			L7.5,28.7L7.5,28.7z M32.5,31.1L43.1,21c-1.2-1.5-1.2-3.6,0.1-5L37,9.7c-1.5,1.2-3.7,1.2-5.1-0.1L14,26.8c1,1.2,1.2,3,0.4,4.3
			h13.9c-1.9-0.1-3.7-0.8-5-2.2c-1.4-1.4-2.1-3.2-2.1-5.1c0-1.9,0.8-3.7,2.2-5.1c2.9-2.8,7.5-2.7,10.3,0.2c1.4,1.4,2.1,3.2,2.1,5.1
			c0,1.9-0.8,3.7-2.2,5.1c-1.3,1.3-3,2-4.8,2H32.5z M23,23.8c0,1.5,0.5,2.8,1.6,3.9c1,1.1,2.4,1.6,3.9,1.7c0,0,0.1,0,0.1,0
			c1.4,0,2.8-0.5,3.9-1.5c1.1-1,1.7-2.4,1.7-3.8c0-1.5-0.5-2.8-1.6-3.9c-1.1-1.1-2.5-1.7-4-1.7c-1.5,0-2.8,0.5-3.9,1.5
			C23.6,21,23,22.3,23,23.8L23,23.8z M5.2,28.1c0,0.4,0.1,0.8,0.3,1.2c0,0,0-0.1,0-0.1c0-0.6,0.3-1.2,0.7-1.7l2.4-2.3
			C6.7,25.4,5.2,26.6,5.2,28.1z M49.6,60.2v-7.2h-5.5c-3.5,0-6.3-2.8-6.3-6.2c0-3.4,2.8-6.2,6.3-6.2h5.5v-7.2c0-0.3-0.4-0.6-1-0.6
			H9.2c-1.6,0-3-0.5-4-1.3v9.7l13.4,0v-1.5c-1.1-0.4-1.9-1.4-1.9-2.6c0-1.5,1.2-2.7,2.8-2.7c1.5,0,2.8,1.2,2.8,2.7
			c0,1.2-0.8,2.2-1.9,2.6v2.4c0,0.2-0.1,0.5-0.3,0.6c-0.2,0.2-0.4,0.3-0.6,0.3h0l-14.3,0V46h20.4c0.4-1.1,1.4-1.9,2.6-1.9
			c1.5,0,2.8,1.2,2.8,2.7c0,1.5-1.2,2.7-2.8,2.7c-1.2,0-2.3-0.8-2.6-1.9H5.2V51l14.3,0h0c0.2,0,0.5,0.1,0.6,0.3
			c0.2,0.2,0.3,0.4,0.3,0.6v2.4c1.1,0.4,1.9,1.4,1.9,2.6c0,1.5-1.2,2.7-2.8,2.7c-1.5,0-2.8-1.2-2.8-2.7c0-1.2,0.8-2.2,1.9-2.6v-1.5
			l-13.4,0v5.2c0,1.6,1.8,3,4,3h39.4C49.2,60.9,49.6,60.6,49.6,60.2L49.6,60.2z M18.5,56.8c0,0.5,0.5,1,1,1c0.6,0,1-0.4,1-1
			c0-0.5-0.5-1-1-1C18.9,55.8,18.5,56.2,18.5,56.8z M28.3,47.9c0.6,0,1-0.4,1-1c0-0.5-0.5-1-1-1c-0.6,0-1,0.4-1,1
			C27.2,47.4,27.7,47.9,28.3,47.9z M20.5,37.1c0-0.6-0.5-1-1-1c-0.6,0-1,0.4-1,1c0,0.5,0.5,1,1,1C20.1,38.1,20.5,37.7,20.5,37.1z
			 M44.6,43.9c1.6,0,3,1.3,3,2.9c0,1.6-1.3,2.9-3,2.9c-1.6,0-3-1.3-3-2.9C41.6,45.2,43,43.9,44.6,43.9z M43.4,46.9
			c0,0.7,0.6,1.2,1.2,1.2c0.7,0,1.2-0.5,1.2-1.2c0-0.7-0.6-1.2-1.2-1.2C43.9,45.7,43.4,46.2,43.4,46.9z"/>
	</g>
</g>
</svg>
