<svg width="75" height="78" viewBox="0 0 75 78" fill="none" xmlns="http://www.w3.org/2000/svg">
<g clip-path="url(#clip0_224_16)">
<path d="M42.4439 29.3435C42.026 29.1758 41.6658 29.1008 41.5953 29.0816V28.1537C42.0692 28.2224 42.6264 28.5211 42.6904 28.6041L43.1819 27.6762C42.9898 27.5676 42.7641 27.4606 42.5047 27.3552C42.2453 27.2498 41.9668 27.1843 41.6706 27.1572V26.4673H41.1983V27.1572C40.5595 27.2243 40.0232 27.5006 39.7622 28.0883C39.6085 28.4348 39.6037 28.9011 39.7174 29.1966C39.8326 29.4984 40.0728 29.6933 40.3642 29.8354C40.7292 30.0127 41.1182 30.1037 41.2735 30.1532V31.0603C40.662 30.9757 40.0216 30.6275 39.9255 30.5077L39.434 31.4835C39.9479 31.8253 40.6011 32.0185 41.1983 32.0712V32.8697H41.6706V32.0776C42.3062 32.0521 42.9049 31.8301 43.1883 31.2647C43.366 30.9118 43.3676 30.364 43.2203 30.0302C43.1003 29.7571 42.8761 29.516 42.4439 29.3435ZM41.2751 28.9842C41.115 28.9347 40.995 28.8756 40.9165 28.8101C40.8365 28.7446 40.7964 28.6536 40.7964 28.5402C40.7964 28.3039 40.9565 28.1713 41.2751 28.1442V28.9826V28.9842ZM41.5969 31.0715V30.2538C41.757 30.3081 41.8835 30.3688 41.9796 30.4343C42.0756 30.4998 42.1237 30.5924 42.1237 30.7106C42.1237 30.9373 41.9476 31.0587 41.5969 31.0715Z" fill="#1B75B4"/>
<path d="M59.6545 47.4028L52.5365 50.6224C47.4582 52.9189 41.6514 52.9428 36.5522 50.6798C35.7021 50.3828 32.3032 48.3322 27.0039 48.3322C19.0438 48.3322 11.8105 53.0195 8.5749 60.2731L3.92402 70.7208C3.7303 71.1536 3.92723 71.6631 4.36109 71.8563L18.0384 77.925C18.4754 78.1182 18.9845 77.9202 19.1767 77.489C20.3438 74.8651 21.9288 71.3069 21.9192 71.3261C21.9272 71.3085 23.2112 68.4243 23.2176 68.4068C24.3174 65.9394 27.2344 64.7735 29.764 65.8978C35.3082 68.3573 41.6289 68.3381 47.162 65.8356L64.4703 58.007C67.5906 56.5952 68.9819 52.6426 66.9758 49.5619C65.4773 47.2606 62.4754 46.1251 59.6513 47.4044L59.6545 47.4028ZM17.9519 76.0038L5.85002 70.6346L7.96973 65.8723L20.006 71.3916L17.9535 76.0038H17.9519ZM63.761 56.4387L46.4527 64.2673C41.3744 66.5638 35.5676 66.5878 30.4684 64.3248C27.0631 62.814 23.1295 64.3791 21.6454 67.7073L20.704 69.8201L8.66776 64.3008L10.1487 60.9726C14.2376 51.8042 25.0779 47.4714 34.4805 51.6444L35.8478 52.2513C41.3936 54.7123 47.7127 54.69 53.2441 52.189L60.3621 48.9694C62.3746 48.0591 64.4703 48.872 65.5285 50.4962C66.289 51.6636 65.9576 55.4438 63.7578 56.4387H63.761Z" fill="#1B75B4"/>
<path d="M6.03413 54.1758C6.03413 54.888 5.45457 55.4661 4.74053 55.4661C4.02649 55.4661 3.44853 54.888 3.44853 54.1758C3.44853 53.4635 4.02809 52.887 4.74053 52.887C5.45297 52.887 6.03413 53.4635 6.03413 54.1758Z" fill="#1B75B4"/>
<path d="M73.2757 60.1964C73.2757 60.9087 72.6962 61.4852 71.9821 61.4852C71.2681 61.4852 70.6901 60.9087 70.6901 60.1964C70.6901 59.4841 71.2697 58.906 71.9821 58.906C72.6946 58.906 73.2757 59.4841 73.2757 60.1964Z" fill="#1B75B4"/>
<path d="M71.5515 37.8382C71.5515 38.5505 70.9719 39.127 70.2595 39.127C69.547 39.127 68.9659 38.5505 68.9659 37.8382C68.9659 37.126 69.5454 36.5479 70.2595 36.5479C70.9735 36.5479 71.5515 37.126 71.5515 37.8382Z" fill="#1B75B4"/>
<path d="M62.9317 1.71995C62.9317 2.43222 62.3522 3.01034 61.6381 3.01034C60.9241 3.01034 60.3445 2.43222 60.3445 1.71995C60.3445 1.00768 60.9241 0.431152 61.6381 0.431152C62.3522 0.431152 62.9317 1.00768 62.9317 1.71995Z" fill="#1B75B4"/>
<path d="M39.6549 6.02086C39.6549 6.73313 39.0754 7.30965 38.3613 7.30965C37.6473 7.30965 37.0693 6.73313 37.0693 6.02086C37.0693 5.30859 37.6489 4.73047 38.3613 4.73047C39.0738 4.73047 39.6549 5.30859 39.6549 6.02086Z" fill="#1B75B4"/>
<path d="M12.9312 1.29039C12.9312 2.00266 12.3516 2.58078 11.6376 2.58078C10.9236 2.58078 10.344 2.00266 10.344 1.29039C10.344 0.578121 10.9236 0 11.6376 0C12.3516 0 12.9312 0.578121 12.9312 1.29039Z" fill="#1B75B4"/>
<path d="M3.44854 16.3392C3.44854 17.0515 2.86898 17.6296 2.15494 17.6296C1.44089 17.6296 0.861336 17.0515 0.861336 16.3392C0.861336 15.6269 1.44089 15.0488 2.15494 15.0488C2.86898 15.0488 3.44854 15.6269 3.44854 16.3392Z" fill="#1B75B4"/>
<path d="M59.4832 69.6556C59.4832 70.3679 58.9036 70.9444 58.1896 70.9444C57.4756 70.9444 56.896 70.3679 56.896 69.6556C56.896 68.9434 57.4756 68.3652 58.1896 68.3652C58.9036 68.3652 59.4832 68.9434 59.4832 69.6556Z" fill="#1B75B4"/>
<path d="M12.9616 35.6566C13.1826 37.45 14.6122 38.8762 16.4102 39.0965C16.6503 41.0497 18.3233 42.5669 20.3454 42.5669H62.4146C64.6016 42.5669 66.3803 40.7926 66.3803 38.6111V20.7244C66.3803 18.7074 64.8593 17.0401 62.9013 16.799C62.6804 15.0055 61.2523 13.5794 59.4528 13.359C59.2126 11.4058 57.5396 9.88867 55.5191 9.88867H13.4483C11.2614 9.88867 9.48267 11.663 9.48267 13.8445V31.7311C9.48267 33.7481 11.0036 35.4154 12.9616 35.655V35.6566ZM64.656 20.7244V38.6111C64.656 39.844 63.6506 40.8469 62.4146 40.8469H20.3454C19.1094 40.8469 18.104 39.844 18.104 38.6111V20.7244C18.104 19.4915 19.1094 18.4886 20.3454 18.4886H62.4146C63.6506 18.4886 64.656 19.4915 64.656 20.7244ZM61.145 16.7686H20.3454C18.1584 16.7686 16.3797 18.5429 16.3797 20.7244V37.3446C15.3935 37.1115 14.6555 36.2267 14.6555 35.1711V17.2845C14.6555 16.0516 15.6609 15.0486 16.8969 15.0486H58.9661C60.0243 15.0486 60.9097 15.7849 61.145 16.7686ZM11.2069 13.8445C11.2069 12.6116 12.2124 11.6087 13.4483 11.6087H55.5175C56.5758 11.6087 57.4611 12.3449 57.6965 13.3287H16.8969C14.7099 13.3287 12.9312 15.1029 12.9312 17.2845V33.9046C11.945 33.6715 11.2069 32.7867 11.2069 31.7311V13.8445Z" fill="#1B75B4"/>
<path d="M61.2075 24.7667C59.6385 24.7667 58.3625 23.4939 58.3625 21.9288C58.3625 21.4545 57.9767 21.0696 57.5012 21.0696H25.2588C24.7833 21.0696 24.3975 21.4545 24.3975 21.9288C24.3975 23.4939 23.1215 24.7667 21.5525 24.7667C21.077 24.7667 20.6912 25.1516 20.6912 25.6259V33.71C20.6912 34.1843 21.077 34.5692 21.5525 34.5692C23.1215 34.5692 24.3975 35.842 24.3975 37.4071C24.3975 37.8814 24.7833 38.2663 25.2588 38.2663H57.4996C57.9751 38.2663 58.3609 37.8814 58.3609 37.4071C58.3609 35.842 59.6369 34.5692 61.2059 34.5692C61.6814 34.5692 62.0672 34.1843 62.0672 33.71V25.6259C62.0672 25.1516 61.6814 24.7667 61.2059 24.7667H61.2075ZM60.3445 32.9306C58.5146 33.2804 57.0705 34.7225 56.7199 36.5463H26.0401C25.6895 34.7209 24.2438 33.2804 22.4139 32.929V26.4036C24.2438 26.0539 25.6879 24.6118 26.0401 22.7864H56.7199C57.0705 24.6118 58.5162 26.0523 60.3445 26.4036V32.929V32.9306Z" fill="#1B75B4"/>
<path d="M41.3792 24.5095C38.5262 24.5095 36.2064 26.8236 36.2064 29.6695C36.2064 32.5154 38.5262 34.8295 41.3792 34.8295C44.2322 34.8295 46.552 32.5154 46.552 29.6695C46.552 26.8236 44.2322 24.5095 41.3792 24.5095ZM41.3792 33.1079C39.4772 33.1079 37.9307 31.5652 37.9307 29.6679C37.9307 27.7706 39.4772 26.2279 41.3792 26.2279C43.2812 26.2279 44.8277 27.7706 44.8277 29.6679C44.8277 31.5652 43.2812 33.1079 41.3792 33.1079Z" fill="#1B75B4"/>
<path d="M52.5861 26.2295C50.6842 26.2295 49.1376 27.7722 49.1376 29.6695C49.1376 31.5667 50.6842 33.1094 52.5861 33.1094C54.4881 33.1094 56.0347 31.5667 56.0347 29.6695C56.0347 27.7722 54.4881 26.2295 52.5861 26.2295ZM52.5861 31.3895C51.6351 31.3895 50.8619 30.6181 50.8619 29.6695C50.8619 28.7208 51.6351 27.9495 52.5861 27.9495C53.5371 27.9495 54.3104 28.7208 54.3104 29.6695C54.3104 30.6181 53.5371 31.3895 52.5861 31.3895Z" fill="#1B75B4"/>
<path d="M30.1723 26.2295C28.2703 26.2295 26.7237 27.7722 26.7237 29.6695C26.7237 31.5667 28.2703 33.1094 30.1723 33.1094C32.0742 33.1094 33.6208 31.5667 33.6208 29.6695C33.6208 27.7722 32.0742 26.2295 30.1723 26.2295ZM30.1723 31.3895C29.2213 31.3895 28.448 30.6181 28.448 29.6695C28.448 28.7208 29.2213 27.9495 30.1723 27.9495C31.1233 27.9495 31.8965 28.7208 31.8965 29.6695C31.8965 30.6181 31.1233 31.3895 30.1723 31.3895Z" fill="#1B75B4"/>
<path d="M6.89707 33.1077C6.89707 31.2104 5.35051 29.6677 3.44853 29.6677C1.54656 29.6677 0 31.2104 0 33.1077C0 35.005 1.54656 36.5477 3.44853 36.5477C5.35051 36.5477 6.89707 35.005 6.89707 33.1077ZM1.72427 33.1077C1.72427 32.1591 2.49755 31.3877 3.44853 31.3877C4.39952 31.3877 5.1728 32.1591 5.1728 33.1077C5.1728 34.0563 4.39952 34.8277 3.44853 34.8277C2.49755 34.8277 1.72427 34.0563 1.72427 33.1077Z" fill="#1B75B4"/>
<path d="M70.2595 3.0105C67.645 3.0105 65.5173 5.13134 65.5173 7.74087C65.5173 10.3504 67.6434 12.4712 70.2595 12.4712C72.8755 12.4712 75.0016 10.3488 75.0016 7.74087C75.0016 5.13294 72.8739 3.0105 70.2595 3.0105ZM70.2595 10.7497C68.596 10.7497 67.2416 9.40017 67.2416 7.73927C67.2416 6.07837 68.5944 4.72889 70.2595 4.72889C71.9245 4.72889 73.2773 6.07837 73.2773 7.73927C73.2773 9.39857 71.9229 10.7497 70.2595 10.7497Z" fill="#1B75B4"/>
</g>
<defs>
<clipPath id="clip0_224_16">
<rect width="75" height="78" fill="white"/>
</clipPath>
</defs>
</svg>
