<svg width="55" height="70" viewBox="0 0 55 70" fill="none" xmlns="http://www.w3.org/2000/svg">
<g clip-path="url(#clip0_224_34)">
<path d="M25.104 23.5377C24.7075 23.1536 24.7022 22.5253 25.0919 22.1345C25.4817 21.7438 26.1178 21.7385 26.5156 22.1227L26.6335 22.2362C26.9656 22.0857 27.3232 21.9986 27.6888 21.9827C28.246 21.9616 28.7134 22.3867 28.7362 22.9332C28.7589 23.481 28.3263 23.943 27.7719 23.9654C27.5737 23.9733 27.3674 24.0657 27.2067 24.2189C27.046 24.372 26.9469 24.5713 26.9321 24.7667C26.9241 24.8776 26.9388 25.0333 27.058 25.1548C27.1772 25.2749 27.3353 25.2947 27.4478 25.2907C27.646 25.2828 27.8522 25.1904 28.013 25.0373C28.5313 24.5423 29.2009 24.2545 29.896 24.2268C30.6246 24.2004 31.3237 24.4657 31.8139 24.9647C32.3041 25.4623 32.5545 26.1593 32.501 26.8761C32.4755 27.2233 32.3818 27.5612 32.2291 27.874L32.28 27.9229C32.6764 28.307 32.6818 28.934 32.292 29.3261C32.0952 29.5228 31.8353 29.6231 31.5742 29.6231C31.313 29.6231 31.0652 29.528 30.8684 29.3393L30.7987 29.2706C30.3152 29.4858 29.8451 29.5175 29.3924 29.5241H29.3777C28.8286 29.5241 28.3799 29.0885 28.3719 28.5459C28.3638 27.9981 28.8085 27.548 29.3643 27.5414C29.888 27.5348 30.0099 27.4833 30.2175 27.284C30.3782 27.1309 30.4773 26.9315 30.492 26.7362C30.5 26.6253 30.4853 26.4695 30.3661 26.3481C30.2469 26.228 30.0889 26.2068 29.9764 26.2121C29.7782 26.22 29.5719 26.3124 29.4112 26.4656C28.8929 26.9606 28.2232 27.2483 27.5281 27.2761C26.7995 27.3051 26.1004 27.0371 25.6102 26.5382C25.12 26.0405 24.8696 25.3435 24.9232 24.6268C24.9486 24.2796 25.0424 23.9417 25.195 23.6275L25.104 23.5391V23.5377ZM54.8085 36.6853V67.273C54.8085 68.7766 53.3701 70.0002 51.6022 70.0002H6.58002C2.95183 70.0002 0 67.5846 0 64.6145V30.5563C0 27.5863 2.95183 25.1693 6.58002 25.1693H8.10147L33.6528 0.765852C34.7443 -0.276974 36.4934 -0.250573 37.5515 0.825253L54.2245 17.7824C54.7361 18.3025 55.012 18.9902 55 19.7162C54.9879 20.4436 54.692 21.1208 54.1629 21.625L47.445 28.0404V33.9594H51.6008C53.3687 33.9594 54.8071 35.1831 54.8071 36.6866L54.8085 36.6853ZM52.7968 46.8653H46.4726C43.6119 46.8653 41.2841 49.1596 41.2841 51.9792C41.2841 54.7987 43.6119 57.093 46.4726 57.093H52.7968V46.8653ZM45.4333 29.9623L41.2507 33.9581H45.4333V29.9623ZM4.61793 31.2586C4.47596 31.3946 4.39561 31.5767 4.39293 31.7747C4.39025 31.9714 4.46391 32.1575 4.60186 32.2961L6.22242 33.9449C6.34028 33.9515 6.45948 33.9567 6.57868 33.9567H9.95775L10.2926 33.636C11.2984 32.675 11.3238 31.0857 10.3488 30.0943L9.93096 29.6693C9.5439 29.2759 9.55462 28.6489 9.95373 28.2674L31.8527 7.35413C32.0443 7.17065 32.3001 7.06901 32.5693 7.07429C32.8371 7.07825 33.0903 7.18649 33.2764 7.37657L33.6943 7.80162C34.6693 8.79297 36.2818 8.81805 37.2877 7.85707L37.7189 7.44522C37.9104 7.26173 38.1703 7.15613 38.4354 7.16537C38.7033 7.16933 38.9564 7.27757 39.1426 7.46766L47.5414 16.0083C47.7276 16.197 47.8293 16.4518 47.8253 16.7145C47.8213 16.9785 47.7115 17.228 47.5186 17.4115L47.0874 17.8233C46.0815 18.7843 46.0561 20.3736 47.0311 21.365L47.449 21.79C47.6351 21.9788 47.7369 22.2335 47.7329 22.4962C47.7289 22.7602 47.6191 23.0097 47.4275 23.1932L36.1559 33.9607H38.3618L52.766 20.202C52.908 20.066 52.9884 19.8839 52.991 19.6859C52.9937 19.4892 52.92 19.3031 52.7821 19.1645L36.1064 2.20601C35.8198 1.9156 35.3483 1.90768 35.0537 2.19017L4.61793 31.2599V31.2586ZM33.2617 33.9581L45.3155 22.4447C43.932 20.763 43.9695 18.3262 45.4065 16.6868L38.3832 9.54539C36.6756 10.909 34.2046 10.872 32.5411 9.45563L12.0658 29.0145C13.235 30.4362 13.3877 32.3965 12.5399 33.9594H28.408C26.2344 33.8881 24.2066 33.0063 22.6892 31.4619C21.1356 29.8818 20.2999 27.8001 20.3347 25.6009C20.3695 23.4018 21.2722 21.3465 22.874 19.8166C26.1821 16.6564 31.4831 16.7382 34.6894 19.9987C36.243 21.5788 37.0787 23.6605 37.0439 25.8597C37.0091 28.0588 36.1064 30.1141 34.5046 31.6441C33.0045 33.0763 31.0585 33.8881 28.9866 33.9581H33.2617ZM22.3477 25.6313C22.3209 27.3011 22.9557 28.8812 24.1357 30.0798C25.3142 31.2797 26.8973 31.9543 28.5915 31.9807C28.625 31.9807 28.6598 31.9807 28.6947 31.9807C30.3514 31.9807 31.9144 31.3563 33.1063 30.2184C34.3224 29.0568 35.0082 27.4965 35.0349 25.8267C35.0617 24.1568 34.4269 22.5767 33.247 21.3782C32.0054 20.1149 30.3487 19.48 28.6906 19.48C27.0326 19.48 25.5071 20.0647 24.2776 21.2396C23.0615 22.4012 22.3758 23.9615 22.349 25.6313H22.3477ZM2.01298 30.5563C2.01298 31.021 2.14691 31.4685 2.38531 31.8777C2.38397 31.8341 2.37995 31.7906 2.37995 31.7457C2.392 31.0184 2.68799 30.3412 3.21702 29.8369L5.9934 27.185C3.78354 27.4067 2.01298 28.8601 2.01298 30.5563ZM52.7982 67.273V59.077H46.474C42.5043 59.077 39.2725 55.893 39.2725 51.9792C39.2725 48.0653 42.5029 44.8813 46.474 44.8813H52.7982V36.6853C52.7982 36.3354 52.2879 35.9434 51.6048 35.9434H6.58136C4.80945 35.9434 3.19693 35.3665 2.01298 34.432V45.4806L17.3547 45.4991V43.7897C16.0985 43.3739 15.1918 42.2043 15.1918 40.8288C15.1918 39.1062 16.6141 37.7056 18.3606 37.7056C20.107 37.7056 21.5294 39.1075 21.5294 40.8288C21.5294 42.2056 20.6213 43.3752 19.3664 43.7897V46.4918C19.3664 46.7558 19.2606 47.0079 19.0717 47.1927C18.8829 47.3788 18.6271 47.4831 18.3606 47.4831H18.3592L2.01298 47.4646V50.9891H25.3638C25.7857 49.7509 26.9723 48.8573 28.3679 48.8573C30.1157 48.8573 31.5367 50.2591 31.5367 51.9805C31.5367 53.7018 30.1143 55.1037 28.3679 55.1037C26.971 55.1037 25.7843 54.2087 25.3638 52.9718H2.01298V56.6692L18.3592 56.6507H18.3606C18.6271 56.6507 18.8829 56.755 19.0717 56.9412C19.2606 57.1273 19.3664 57.3794 19.3664 57.6421V60.3442C20.6227 60.76 21.5294 61.9296 21.5294 63.305C21.5294 65.0277 20.107 66.4282 18.3606 66.4282C16.6141 66.4282 15.1918 65.0264 15.1918 63.305C15.1918 61.9282 16.0998 60.7587 17.3547 60.3442V58.6348L2.01298 58.6532V64.6145C2.01298 66.4599 4.10498 68.0175 6.58136 68.0175H51.6048C52.2866 68.0175 52.7982 67.6255 52.7982 67.2744V67.273ZM17.2047 63.3037C17.2047 63.932 17.7244 64.4442 18.3619 64.4442C18.9994 64.4442 19.5191 63.932 19.5191 63.3037C19.5191 62.6754 18.9994 62.1632 18.3619 62.1632C17.7244 62.1632 17.2047 62.6754 17.2047 63.3037ZM28.3692 53.1197C29.0067 53.1197 29.5264 52.6075 29.5264 51.9792C29.5264 51.3508 29.0067 50.8386 28.3692 50.8386C27.7317 50.8386 27.212 51.3508 27.212 51.9792C27.212 52.6075 27.7317 53.1197 28.3692 53.1197ZM19.5177 40.8275C19.5177 40.1979 18.9981 39.687 18.3606 39.687C17.7231 39.687 17.2034 40.1992 17.2034 40.8275C17.2034 41.4559 17.7231 41.968 18.3606 41.968C18.9994 41.968 19.5177 41.4559 19.5177 40.8275ZM47.0418 48.6131C48.9249 48.6131 50.4571 50.1232 50.4571 51.9792C50.4571 53.8351 48.9249 55.3452 47.0418 55.3452C45.1588 55.3452 43.6266 53.8351 43.6266 51.9792C43.6266 50.1232 45.1588 48.6131 47.0418 48.6131ZM45.6382 51.9792C45.6382 52.7408 46.2677 53.3612 47.0405 53.3612C47.8133 53.3612 48.4427 52.7408 48.4427 51.9792C48.4427 51.2175 47.8133 50.5971 47.0405 50.5971C46.2677 50.5971 45.6382 51.2175 45.6382 51.9792Z" fill="#1B75B4"/>
</g>
<defs>
<clipPath id="clip0_224_34">
<rect width="55" height="70" fill="white"/>
</clipPath>
</defs>
</svg>
