<?xml version="1.0" encoding="utf-8"?>
<!-- Generator: Adobe Illustrator 27.4.1, SVG Export Plug-In . SVG Version: 6.00 Build 0)  -->
<svg version="1.1" id="Capa_1" xmlns="http://www.w3.org/2000/svg" xmlns:xlink="http://www.w3.org/1999/xlink" x="0px" y="0px"
	 viewBox="0 0 64 64" style="enable-background:new 0 0 64 64;" xml:space="preserve">
<style type="text/css">
	.st0{clip-path:url(#SVGID_00000035527654644696792480000011727135883967801784_);}
	.st1{fill:#4BB8A9;}
</style>
<g>
	<defs>
		<rect id="SVGID_1_" y="0" width="64" height="64"/>
	</defs>
	<clipPath id="SVGID_00000043428825092069416060000015574620733455646387_">
		<use xlink:href="#SVGID_1_"  style="overflow:visible;"/>
	</clipPath>
	<g style="clip-path:url(#SVGID_00000043428825092069416060000015574620733455646387_);">
		<path class="st1" d="M14.1,49c2.5,0,4.9-1,6.6-2.8l9.6-9.6c0.7-0.7,1.9-0.7,2.5,0l9.6,9.6c1.8,1.8,4.1,2.8,6.6,2.8H51L38.9,61.2
			c-3.8,3.8-10,3.8-13.8,0L12.9,49H14.1L14.1,49z"/>
		<path class="st1" d="M49.1,15c-2.5,0-4.9,1-6.7,2.8l-9.6,9.6c-0.7,0.7-1.8,0.7-2.5,0l-9.6-9.6C19,16,16.6,15,14.1,15h-1.2
			L25.1,2.8c3.8-3.8,10-3.8,13.8,0L51,15H49.1L49.1,15z"/>
		<path class="st1" d="M2.8,25.1l7.3-7.3h4c1.7,0,3.4,0.7,4.7,1.9l9.6,9.6c0.9,0.9,2.1,1.3,3.3,1.3c1.2,0,2.4-0.4,3.3-1.3l9.6-9.6
			c1.2-1.2,2.9-1.9,4.7-1.9h4.7l7.3,7.3c3.8,3.8,3.8,10,0,13.8l-7.3,7.3h-4.7c-1.7,0-3.4-0.7-4.7-1.9l-9.6-9.6
			c-1.7-1.7-4.8-1.7-6.5,0l-9.6,9.6c-1.2,1.2-2.9,1.9-4.7,1.9h-4l-7.3-7.3C-1,35.1-1,28.9,2.8,25.1"/>
	</g>
</g>
</svg>
