<svg width="177" height="218" viewBox="0 0 177 218" fill="none" xmlns="http://www.w3.org/2000/svg">
<g clip-path="url(#clip0_271_741)">
<path d="M152.002 42.6257L63.2922 142.286H97.3908L68.1209 217.559L158.646 116.992L123.945 116.695L152.002 42.6257Z" fill="#0085CA"/>
<path d="M151.704 42.9225L66.313 139.272L98.9012 138.671L68.7236 216.653L151.704 116.992L117.308 116.695L151.704 42.9225Z" fill="#00A3E4"/>
<path d="M88.4733 86.0126L78.7014 96.9278L103.692 96.8898L113.41 85.9669L88.4733 86.0126Z" fill="white"/>
<path d="M56.4725 107.539L49.462 115.257L87.3672 115.204L94.2403 107.5L56.4725 107.539Z" fill="#F0A433"/>
<path d="M99.5344 107.432L92.44 115.044L102.715 115.036L109.779 107.28L99.5344 107.432Z" fill="white"/>
<path d="M46.6014 74.9451L34.3275 87.3294L80.5398 87.2837L93.1266 74.907L46.6014 74.9451Z" fill="#00A686"/>
<path d="M106.125 75.0289L101.525 80.045L118.689 80.0222L123.175 74.9984L106.125 75.0289Z" fill="#6B7072"/>
</g>
<defs>
<clipPath id="clip0_271_741">
<rect width="177" height="218" fill="white"/>
</clipPath>
</defs>
</svg>
