<svg width="64" height="64" viewBox="0 0 64 64" fill="none" xmlns="http://www.w3.org/2000/svg">
<g clip-path="url(#clip0_218_126)">
<path d="M14.0881 48.961C16.5993 48.961 18.9625 47.9815 20.7335 46.2105L30.3344 36.6097C31.0063 35.932 32.1851 35.9377 32.857 36.6097L42.492 46.2447C44.2687 48.0214 46.6262 48.9951 49.1375 48.9951H51.028L38.8704 61.1528C35.0722 64.951 28.9164 64.951 25.1182 61.1528L12.9264 48.961H14.0824H14.0881Z" fill="#4BB8A9"/>
<path d="M49.1375 15.0049C46.6262 15.0049 44.263 15.9844 42.4863 17.7553L32.8513 27.3904C32.1566 28.0851 31.0234 28.0851 30.3287 27.3904L20.7278 17.7895C18.9512 16.0128 16.5936 15.0391 14.0824 15.0391H12.9264L25.1239 2.84725C28.9221 -0.950954 35.0778 -0.950954 38.8761 2.84725L51.0337 15.0049H49.1432H49.1375Z" fill="#4BB8A9"/>
<path d="M2.84723 25.1239L10.1077 17.8635H14.0881C15.8192 17.8635 17.5161 18.5639 18.7405 19.7882L28.3413 29.3891C29.241 30.2888 30.4198 30.7387 31.5985 30.7387C32.7773 30.7387 33.956 30.2888 34.8558 29.3948L44.4908 19.7597C45.7151 18.5354 47.412 17.835 49.1432 17.835H53.8582L61.1528 25.1296C64.951 28.9278 64.951 35.0835 61.1528 38.8817L53.8582 46.1763H49.1432C47.412 46.1763 45.7151 45.4759 44.4908 44.2516L34.8558 34.6166C33.1133 32.8798 30.0781 32.8741 28.3413 34.6166L18.7405 44.2174C17.5161 45.4417 15.8192 46.1422 14.0881 46.1422H10.1077L2.84723 38.8817C-0.950977 35.0835 -0.950977 28.9278 2.84723 25.1296" fill="#4BB8A9"/>
</g>
<defs>
<clipPath id="clip0_218_126">
<rect width="64" height="64" fill="white"/>
</clipPath>
</defs>
</svg>
