<svg width="189" height="32" viewBox="0 0 189 32" fill="none" xmlns="http://www.w3.org/2000/svg">
<g clip-path="url(#clip0_271_789)">
<path d="M30.5493 7.13395L25.034 13.536L39.1341 13.5109L44.6204 7.10889L30.5493 7.13395Z" fill="#1D1D1B"/>
<path d="M12.4904 19.7575L8.53641 24.2845L29.921 24.2544L33.7976 19.7374L12.4904 19.7575Z" fill="#F0A433"/>
<path d="M36.7849 19.6973L32.7826 24.1591L38.5831 24.1541L42.5661 19.6071L36.7849 19.6973Z" fill="#00A3E4"/>
<path d="M6.92194 0.64671L0 7.90599L26.0733 7.88093L33.1741 0.621643L6.92194 0.64671Z" fill="#00A686"/>
<path d="M40.5069 0.691828L37.9112 3.63464L47.5932 3.62462L50.1261 0.676788L40.5069 0.691828Z" fill="#6B7072"/>
<path d="M56.0233 0.140381H58.793V16.7796H58.9284L67.634 7.96115H70.8049L58.7979 20.2087V24.7758H56.0281V0.140381H56.0233ZM62.2588 15.8471L63.9265 13.9771L71.6653 24.7708H68.5959L62.2588 15.8471Z" fill="#6B7072"/>
<path d="M74.8701 20.4092C74.8701 16.6392 78.2731 14.8043 86.6452 14.1125C86.5436 11.8314 85.4754 9.89128 82.3431 9.89128C80.2404 9.89128 78.1716 10.929 76.6731 11.8966L75.571 9.96147C77.2387 8.85353 79.9746 7.54004 82.8071 7.54004C87.2445 7.54004 89.4101 10.2723 89.4101 14.4584V24.7658H87.1092L86.8772 22.4847H86.7757C85.0065 23.9386 82.6718 25.1819 80.4048 25.1819C77.3692 25.1819 74.8701 23.4172 74.8701 20.4092ZM86.6452 20.3741V16.0176C79.7087 16.569 77.606 17.9878 77.606 20.2037C77.606 22.1037 79.2737 22.8657 81.1395 22.8657C83.0053 22.8657 84.7745 21.9684 86.6403 20.3741H86.6452Z" fill="#6B7072"/>
<path d="M93.8136 7.95614H96.013L96.245 10.172H96.3127C97.1489 8.61789 98.1447 7.54504 100.015 7.54504C101.615 7.54504 102.616 8.51261 103.085 10.4528C104.018 8.65299 105.018 7.54504 106.889 7.54504C109.156 7.54504 110.49 9.37992 110.49 12.7338V24.7708H107.754V12.9394C107.754 11.0042 107.222 9.99656 106.019 9.99656C104.883 9.99656 104.284 10.8588 103.418 12.5884V24.7658H100.885V12.9344C100.885 10.9992 100.417 9.99154 99.2178 9.99154C98.0818 9.99154 97.3519 10.8538 96.5495 12.5834V24.7608H93.8136V7.95614Z" fill="#6B7072"/>
<path d="M122.062 10.2723H114.555V7.95614H124.827V24.7658H122.057V10.2723H122.062ZM120.96 2.21088C120.96 0.897392 121.893 -0.00500488 123.159 -0.00500488C124.426 -0.00500488 125.359 0.892379 125.359 2.21088C125.359 3.52938 124.426 4.42677 123.159 4.42677C121.893 4.42677 120.96 3.56448 120.96 2.21088Z" fill="#6B7072"/>
<path d="M134.635 2.07553H141.238C146.071 2.07553 149.344 3.77003 149.344 8.75327C149.344 13.7365 146.042 15.7769 141.238 15.7769H137.433V24.7708H134.63V2.07553H134.635ZM140.904 13.4207C144.708 13.4207 146.54 11.9668 146.54 8.74826C146.54 5.52971 144.674 4.42678 140.904 4.42678H137.433V13.4207H140.904Z" fill="#00A3E4"/>
<path d="M153.578 20.4092C153.578 16.6392 156.981 14.8043 165.353 14.1125C165.252 11.8314 164.183 9.89128 161.051 9.89128C158.949 9.89128 156.88 10.929 155.381 11.8966L154.279 9.96147C155.947 8.85353 158.683 7.54004 161.515 7.54004C165.953 7.54004 168.118 10.2723 168.118 14.4584V24.7658H165.817L165.585 22.4847H165.484C163.715 23.9386 161.38 25.1819 159.113 25.1819C156.077 25.1819 153.578 23.4172 153.578 20.4092ZM165.353 20.3741V16.0176C158.417 16.569 156.314 17.9878 156.314 20.2037C156.314 22.1037 157.982 22.8657 159.848 22.8657C161.713 22.8657 163.483 21.9684 165.348 20.3741H165.353Z" fill="#00A3E4"/>
<path d="M172.826 31.6541L173.392 29.373C173.827 29.5134 174.359 29.6137 174.861 29.6137C177.128 29.6137 178.496 28.1247 179.299 26.0492L179.768 24.8059L172.232 7.96115H175.035L178.97 17.2308C179.603 18.7197 180.304 20.4844 180.971 22.1087H181.106C181.672 20.5195 182.305 18.7548 182.842 17.2308L186.346 7.96115H189.015L181.846 26.1545C180.647 29.4733 178.68 32 174.977 32C174.209 32 173.411 31.8596 172.841 31.6541H172.826Z" fill="#00A3E4"/>
</g>
<defs>
<clipPath id="clip0_271_789">
<rect width="189" height="32" fill="white"/>
</clipPath>
</defs>
</svg>
